<svg xmlns="http://www.w3.org/2000/svg" width="520" height="320" viewBox="0 0 520 320"><title>Parametric two-axis gimbal pose</title><rect width="520" height="320" fill="#ffffff" /><polyline points="10.135,233.094 216.484,295.894" fill="none" stroke="#e2e8f0" stroke-width="1" stroke-linejoin="round" stroke-linecap="round" /><polyline points="25.182,267.438 162.747,173.237" fill="none" stroke="#e2e8f0" stroke-width="1" stroke-linejoin="round" stroke-linecap="round" /><polyline points="48.826,206.600 255.174,269.400" fill="none" stroke="#e2e8f0" stroke-width="1" stroke-linejoin="round" stroke-linecap="round" /><polyline points="83.217,285.100 220.783,190.900" fill="none" stroke="#e2e8f0" stroke-width="1" stroke-linejoin="round" stroke-linecap="round" /><polyline points="87.516,180.106 293.865,242.906" fill="none" stroke="#e2e8f0" stroke-width="1" stroke-linejoin="round" stroke-linecap="round" /><polyline points="141.253,302.763 278.818,208.562" fill="none" stroke="#e2e8f0" stroke-width="1" stroke-linejoin="round" stroke-linecap="round" /><polygon points="170.349,192.899 151.901,192.079 151.901,170.014 170.349,170.834" fill="#9ba6b6" stroke="#24364b" stroke-width="0.55" stroke-linejoin="round" stroke-linecap="round" /><polygon points="151.901,192.079 133.457,192.917 133.457,170.852 151.901,170.014" fill="#9eabba" stroke="#24364b" stroke-width="0.55" stroke-linejoin="round" stroke-linecap="round" /><polygon points="188.091,195.347 170.349,192.899 170.349,170.834 188.091,173.282" fill="#97a2b1" stroke="#24364b" stroke-width="0.55" stroke-linejoin="round" stroke-linecap="round" /><polygon points="133.457,192.917 115.726,195.382 115.726,173.317 133.457,170.852" fill="#a2aebe" stroke="#24364b" stroke-width="0.55" stroke-linejoin="round" stroke-linecap="round" /><polygon points="204.447,199.328 188.091,195.347 188.091,173.282 204.447,177.263" fill="#929dac" stroke="#24364b" stroke-width="0.55" stroke-linejoin="round" stroke-linecap="round" /><polygon points="115.726,195.382 99.389,199.378 99.389,177.313 115.726,173.317" fill="#a5b1c2" stroke="#24364b" stroke-width="0.55" stroke-linejoin="round" stroke-linecap="round" /><polygon points="218.787,204.689 204.447,199.328 204.447,177.263 218.787,182.624" fill="#8e99a7" stroke="#24364b" stroke-width="0.55" stroke-linejoin="round" stroke-linecap="round" /><polygon points="99.389,199.378 85.073,204.753 85.073,182.688 99.389,177.313" fill="#a7b3c4" stroke="#24364b" stroke-width="0.55" stroke-linejoin="round" stroke-linecap="round" /><polygon points="230.560,211.224 218.787,204.689 218.787,182.624 230.560,189.159" fill="#8a94a2" stroke="#24364b" stroke-width="0.55" stroke-linejoin="round" stroke-linecap="round" /><polygon points="85.073,204.753 73.330,211.299 73.330,189.234 85.073,182.688" fill="#a8b5c6" stroke="#24364b" stroke-width="0.55" stroke-linejoin="round" stroke-linecap="round" /><polygon points="156.348,181.397 142.684,181.620 142.684,163.693 156.348,163.469" fill="#3a72c8" stroke="#24364b" stroke-width="0.55" stroke-linejoin="round" stroke-linecap="round" /><polygon points="169.846,182.395 156.348,181.397 156.348,163.469 169.846,164.467" fill="#386ec2" stroke="#24364b" stroke-width="0.55" stroke-linejoin="round" stroke-linecap="round" /><polygon points="142.684,181.620 129.377,183.057 129.377,165.129 142.684,163.693" fill="#3b75cd" stroke="#24364b" stroke-width="0.55" stroke-linejoin="round" stroke-linecap="round" /><polygon points="119.414,165.135 193.669,167.253 193.669,150.704 119.414,148.587" fill="#798ca2" stroke="#24364b" stroke-width="0.55" stroke-linejoin="round" stroke-linecap="round" /><polygon points="182.658,184.576 169.846,182.395 169.846,164.467 182.658,166.648" fill="#366bbc" stroke="#24364b" stroke-width="0.55" stroke-linejoin="round" stroke-linecap="round" /><polygon points="129.377,183.057 116.940,185.650 116.940,167.722 129.377,165.129" fill="#3d78d3" stroke="#24364b" stroke-width="0.55" stroke-linejoin="round" stroke-linecap="round" /><polygon points="194.291,187.856 182.658,184.576 182.658,166.648 194.291,169.928" fill="#3568b7" stroke="#24364b" stroke-width="0.55" stroke-linejoin="round" stroke-linecap="round" /><polygon points="116.940,185.650 105.850,189.301 105.850,171.374 116.940,167.722" fill="#3e7bd8" stroke="#24364b" stroke-width="0.55" stroke-linejoin="round" stroke-linecap="round" /><polygon points="239.315,218.682 230.560,211.224 230.560,189.159 239.315,196.617" fill="#86909e" stroke="#24364b" stroke-width="0.55" stroke-linejoin="round" stroke-linecap="round" /><polygon points="73.330,211.299 64.609,218.766 64.609,196.701 73.330,189.234" fill="#a8b5c6" stroke="#24364b" stroke-width="0.55" stroke-linejoin="round" stroke-linecap="round" /><polygon points="138.293,164.370 172.327,165.341 173.438,157.219 139.404,156.249" fill="#617791" stroke="#24364b" stroke-width="0.55" stroke-linejoin="round" stroke-linecap="round" /><polygon points="204.300,192.109 194.291,187.856 194.291,169.928 204.300,174.181" fill="#3365b2" stroke="#24364b" stroke-width="0.55" stroke-linejoin="round" stroke-linecap="round" /><polygon points="105.850,189.301 96.534,193.870 96.534,175.943 105.850,171.374" fill="#407edd" stroke="#24364b" stroke-width="0.55" stroke-linejoin="round" stroke-linecap="round" /><polygon points="212.298,197.172 204.300,192.109 204.300,174.181 212.298,179.244" fill="#3263ae" stroke="#24364b" stroke-width="0.55" stroke-linejoin="round" stroke-linecap="round" /><polygon points="244.714,226.777 239.315,218.682 239.315,196.617 244.714,204.712" fill="#838d9a" stroke="#24364b" stroke-width="0.55" stroke-linejoin="round" stroke-linecap="round" /><polygon points="64.609,218.766 59.248,226.865 59.248,204.800 64.609,196.701" fill="#a8b5c6" stroke="#24364b" stroke-width="0.55" stroke-linejoin="round" stroke-linecap="round" /><polygon points="96.534,193.870 89.349,199.181 89.349,181.253 96.534,175.943" fill="#4180e1" stroke="#24364b" stroke-width="0.55" stroke-linejoin="round" stroke-linecap="round" /><polygon points="139.404,156.249 173.438,157.219 173.438,64.822 139.404,63.851" fill="#69819d" stroke="#24364b" stroke-width="0.55" stroke-linejoin="round" stroke-linecap="round" /><polygon points="217.979,202.849 212.298,197.172 212.298,179.244 217.979,184.922" fill="#3262ac" stroke="#24364b" stroke-width="0.55" stroke-linejoin="round" stroke-linecap="round" /><polygon points="138.293,164.370 139.404,156.249 139.404,63.851 138.293,71.973" fill="#738cab" stroke="#24364b" stroke-width="0.55" stroke-linejoin="round" stroke-linecap="round" /><polygon points="172.327,165.341 172.327,72.943 173.438,64.822 173.438,157.219" fill="#87a5c9" stroke="#24364b" stroke-width="0.55" stroke-linejoin="round" stroke-linecap="round" /><polygon points="89.349,199.181 84.572,205.030 84.572,187.102 89.349,181.253" fill="#4281e3" stroke="#24364b" stroke-width="0.55" stroke-linejoin="round" stroke-linecap="round" /><polygon points="246.550,235.197 244.714,226.777 244.714,204.712 246.550,213.132" fill="#808a96" stroke="#24364b" stroke-width="0.55" stroke-linejoin="round" stroke-linecap="round" /><polygon points="59.248,226.865 57.450,235.287 57.450,213.222 59.248,204.800" fill="#a7b3c4" stroke="#24364b" stroke-width="0.55" stroke-linejoin="round" stroke-linecap="round" /><polygon points="73.330,211.299 64.609,218.766 59.248,226.865 57.450,235.287 59.286,243.707 64.685,251.801 73.440,259.260 85.213,265.795 99.553,271.156 115.909,275.137 133.651,277.584 152.099,278.405 170.543,277.567 188.274,275.102 204.611,271.106 218.927,265.731 230.670,259.185 239.391,251.718 244.752,243.618 246.550,235.197 244.714,226.777 239.315,218.682 230.560,211.224 218.787,204.689 204.447,199.328 188.091,195.347 170.349,192.899 151.901,192.079 133.457,192.917 115.726,195.382 99.389,199.378 85.073,204.753" fill="#7a8490" stroke="#24364b" stroke-width="0.55" stroke-linejoin="round" stroke-linecap="round" /><polygon points="138.293,164.370 138.293,71.973 172.327,72.943 172.327,165.341" fill="#7c98b9" stroke="#24364b" stroke-width="0.55" stroke-linejoin="round" stroke-linecap="round" /><polygon points="221.125,208.924 217.979,202.849 217.979,184.922 221.125,190.996" fill="#3161aa" stroke="#24364b" stroke-width="0.55" stroke-linejoin="round" stroke-linecap="round" /><polygon points="84.572,205.030 82.386,211.192 82.386,193.264 84.572,187.102" fill="#4282e5" stroke="#24364b" stroke-width="0.55" stroke-linejoin="round" stroke-linecap="round" /><polygon points="155.479,83.634 151.404,83.160 152.661,73.979 156.735,74.453" fill="#109589" stroke="#24364b" stroke-width="0.55" stroke-linejoin="round" stroke-linecap="round" /><polygon points="151.404,83.160 147.487,81.989 148.743,72.808 152.661,73.979" fill="#109085" stroke="#24364b" stroke-width="0.55" stroke-linejoin="round" stroke-linecap="round" /><polygon points="159.553,83.392 155.479,83.634 156.735,74.453 160.809,74.212" fill="#11998d" stroke="#24364b" stroke-width="0.55" stroke-linejoin="round" stroke-linecap="round" /><polygon points="177.619,56.431 177.218,60.052 176.030,63.511 174.100,66.674 171.502,69.421 168.338,71.646 164.727,73.264 160.809,74.212 156.735,74.453 152.661,73.979 148.743,72.808 145.132,70.985 141.968,68.579 139.370,65.684 137.440,62.410 136.252,58.884 135.851,55.240 136.252,51.620 137.440,48.161 139.370,44.997 141.968,42.250 145.132,40.025 148.743,38.408 152.661,37.460 156.735,37.218 160.809,37.692 164.727,38.863 168.338,40.687 171.502,43.092 174.100,45.988 176.030,49.261 177.218,52.788" fill="#14b6a7" stroke="#24364b" stroke-width="0.55" stroke-linejoin="round" stroke-linecap="round" /><polygon points="147.487,81.989 143.876,80.165 145.132,70.985 148.743,72.808" fill="#0f8c81" stroke="#24364b" stroke-width="0.55" stroke-linejoin="round" stroke-linecap="round" /><polygon points="163.471,82.445 159.553,83.392 160.809,74.212 164.727,73.264" fill="#119d91" stroke="#24364b" stroke-width="0.55" stroke-linejoin="round" stroke-linecap="round" /><polygon points="143.876,80.165 140.711,77.760 141.968,68.579 145.132,70.985" fill="#0f887d" stroke="#24364b" stroke-width="0.55" stroke-linejoin="round" stroke-linecap="round" /><polygon points="167.081,80.827 163.471,82.445 164.727,73.264 168.338,71.646" fill="#12a194" stroke="#24364b" stroke-width="0.55" stroke-linejoin="round" stroke-linecap="round" /><polygon points="140.711,77.760 138.114,74.865 139.370,65.684 141.968,68.579" fill="#0f857a" stroke="#24364b" stroke-width="0.55" stroke-linejoin="round" stroke-linecap="round" /><polygon points="170.246,78.602 167.081,80.827 168.338,71.646 171.502,69.421" fill="#12a597" stroke="#24364b" stroke-width="0.55" stroke-linejoin="round" stroke-linecap="round" /><polygon points="138.114,74.865 136.184,71.591 137.440,62.410 139.370,65.684" fill="#0e8278" stroke="#24364b" stroke-width="0.55" stroke-linejoin="round" stroke-linecap="round" /><polygon points="172.843,75.855 170.246,78.602 171.502,69.421 174.100,66.674" fill="#12a79a" stroke="#24364b" stroke-width="0.55" stroke-linejoin="round" stroke-linecap="round" /><polygon points="82.386,211.192 82.875,217.430 86.021,223.504 91.702,229.182 99.700,234.245 109.709,238.498 121.342,241.778 134.154,243.959 147.652,244.957 161.316,244.733 174.623,243.297 187.060,240.704 198.150,237.052 207.466,232.483 214.651,227.173 219.428,221.324 221.614,215.162 221.125,208.924 217.979,202.849 212.298,197.172 204.300,192.109 194.291,187.856 182.658,184.576 169.846,182.395 156.348,181.397 142.684,181.620 129.377,183.057 116.940,185.650 105.850,189.301 96.534,193.870 89.349,199.181 84.572,205.030" fill="#305fa7" stroke="#24364b" stroke-width="0.55" stroke-linejoin="round" stroke-linecap="round" /><polygon points="73.330,189.234 64.609,196.701 59.248,204.800 57.450,213.222 59.286,221.642 64.685,229.736 73.440,237.195 85.213,243.730 99.553,249.091 115.909,253.072 133.651,255.520 152.099,256.340 170.543,255.502 188.274,253.037 204.611,249.041 218.927,243.666 230.670,237.120 239.391,229.653 244.752,221.553 246.550,213.132 244.714,204.712 239.315,196.617 230.560,189.159 218.787,182.624 204.447,177.263 188.091,173.282 170.349,170.834 151.901,170.014 133.457,170.852 115.726,173.317 99.389,177.313 85.073,182.688" fill="#b2c0d2" stroke="#24364b" stroke-width="0.55" stroke-linejoin="round" stroke-linecap="round" /><polygon points="136.184,71.591 134.996,68.065 136.252,58.884 137.440,62.410" fill="#0e8076" stroke="#24364b" stroke-width="0.55" stroke-linejoin="round" stroke-linecap="round" /><polygon points="174.773,72.691 172.843,75.855 174.100,66.674 176.030,63.511" fill="#13aa9c" stroke="#24364b" stroke-width="0.55" stroke-linejoin="round" stroke-linecap="round" /><polygon points="221.614,215.162 221.125,208.924 221.125,190.996 221.614,197.234" fill="#3160a9" stroke="#24364b" stroke-width="0.55" stroke-linejoin="round" stroke-linecap="round" /><polygon points="134.996,68.065 134.595,64.421 135.851,55.240 136.252,58.884" fill="#0e7f74" stroke="#24364b" stroke-width="0.55" stroke-linejoin="round" stroke-linecap="round" /><polygon points="244.752,243.618 246.550,235.197 246.550,213.132 244.752,221.553" fill="#7e8794" stroke="#24364b" stroke-width="0.55" stroke-linejoin="round" stroke-linecap="round" /><polygon points="57.450,235.287 59.286,243.707 59.286,221.642 57.450,213.222" fill="#a5b1c2" stroke="#24364b" stroke-width="0.55" stroke-linejoin="round" stroke-linecap="round" /><polygon points="175.962,69.233 174.773,72.691 176.030,63.511 177.218,60.052" fill="#13ab9d" stroke="#24364b" stroke-width="0.55" stroke-linejoin="round" stroke-linecap="round" /><polygon points="134.595,64.421 134.996,60.800 136.252,51.620 135.851,55.240" fill="#0e7e74" stroke="#24364b" stroke-width="0.55" stroke-linejoin="round" stroke-linecap="round" /><polygon points="176.363,65.612 175.962,69.233 177.218,60.052 177.619,56.431" fill="#13ab9d" stroke="#24364b" stroke-width="0.55" stroke-linejoin="round" stroke-linecap="round" /><polygon points="138.293,71.973 139.404,63.851 173.438,64.822 172.327,72.943" fill="#90b1d7" stroke="#24364b" stroke-width="0.55" stroke-linejoin="round" stroke-linecap="round" /><polygon points="134.996,60.800 136.184,57.342 137.440,48.161 136.252,51.620" fill="#0e7f74" stroke="#24364b" stroke-width="0.55" stroke-linejoin="round" stroke-linecap="round" /><polygon points="175.962,61.969 176.363,65.612 177.619,56.431 177.218,52.788" fill="#13ab9d" stroke="#24364b" stroke-width="0.55" stroke-linejoin="round" stroke-linecap="round" /><polygon points="82.386,211.192 82.875,217.430 82.875,199.502 82.386,193.264" fill="#4283e6" stroke="#24364b" stroke-width="0.55" stroke-linejoin="round" stroke-linecap="round" /><polygon points="110.331,231.520 184.586,233.637 193.669,167.253 119.414,165.135" fill="#708296" stroke="#24364b" stroke-width="0.55" stroke-linejoin="round" stroke-linecap="round" /><polygon points="164.374,62.434 164.210,63.909 163.726,65.318 162.940,66.607 161.882,67.727 160.592,68.633 159.121,69.292 157.525,69.678 155.865,69.777 154.205,69.583 152.609,69.106 151.138,68.363 149.849,67.383 148.791,66.204 148.005,64.870 147.520,63.433 147.357,61.949 147.520,60.474 148.005,59.065 148.791,57.776 149.849,56.657 151.138,55.750 152.609,55.091 154.205,54.705 155.865,54.607 157.525,54.800 159.121,55.277 160.592,56.020 161.882,57.000 162.940,58.180 163.726,59.513 164.210,60.950" fill="#57708a" stroke="#24364b" stroke-width="0.55" stroke-linejoin="round" stroke-linecap="round" /><polygon points="136.184,57.342 138.114,54.178 139.370,44.997 137.440,48.161" fill="#0e8076" stroke="#24364b" stroke-width="0.55" stroke-linejoin="round" stroke-linecap="round" /><polygon points="174.773,58.442 175.962,61.969 177.218,52.788 176.030,49.261" fill="#13aa9c" stroke="#24364b" stroke-width="0.55" stroke-linejoin="round" stroke-linecap="round" /><polygon points="82.386,193.264 82.875,199.502 86.021,205.577 91.702,211.254 99.700,216.317 109.709,220.570 121.342,223.850 134.154,226.031 147.652,227.029 161.316,226.805 174.623,225.369 187.060,222.776 198.150,219.124 207.466,214.556 214.651,209.245 219.428,203.396 221.614,197.234 221.125,190.996 217.979,184.922 212.298,179.244 204.300,174.181 194.291,169.928 182.658,166.648 169.846,164.467 156.348,163.469 142.684,163.693 129.377,165.129 116.940,167.722 105.850,171.374 96.534,175.943 89.349,181.253 84.572,187.102" fill="#468bf4" stroke="#24364b" stroke-width="0.55" stroke-linejoin="round" stroke-linecap="round" /><polygon points="110.331,231.520 119.414,165.135 119.414,148.587 110.331,214.971" fill="#8499b1" stroke="#24364b" stroke-width="0.55" stroke-linejoin="round" stroke-linecap="round" /><polygon points="138.114,54.178 140.711,51.431 141.968,42.250 139.370,44.997" fill="#0e8278" stroke="#24364b" stroke-width="0.55" stroke-linejoin="round" stroke-linecap="round" /><polygon points="172.843,55.169 174.773,58.442 176.030,49.261 174.100,45.988" fill="#12a79a" stroke="#24364b" stroke-width="0.55" stroke-linejoin="round" stroke-linecap="round" /><polygon points="140.711,51.431 143.876,49.206 145.132,40.025 141.968,42.250" fill="#0f857a" stroke="#24364b" stroke-width="0.55" stroke-linejoin="round" stroke-linecap="round" /><polygon points="170.246,52.273 172.843,55.169 174.100,45.988 171.502,43.092" fill="#12a597" stroke="#24364b" stroke-width="0.55" stroke-linejoin="round" stroke-linecap="round" /><polygon points="143.876,49.206 147.487,47.588 148.743,38.408 145.132,40.025" fill="#0f887d" stroke="#24364b" stroke-width="0.55" stroke-linejoin="round" stroke-linecap="round" /><polygon points="167.081,49.868 170.246,52.273 171.502,43.092 168.338,40.687" fill="#12a194" stroke="#24364b" stroke-width="0.55" stroke-linejoin="round" stroke-linecap="round" /><polygon points="147.487,47.588 151.404,46.641 152.661,37.460 148.743,38.408" fill="#0f8c81" stroke="#24364b" stroke-width="0.55" stroke-linejoin="round" stroke-linecap="round" /><polygon points="184.586,233.637 184.586,217.088 193.669,150.704 193.669,167.253" fill="#9bb4d0" stroke="#24364b" stroke-width="0.55" stroke-linejoin="round" stroke-linecap="round" /><polygon points="163.471,48.044 167.081,49.868 168.338,40.687 164.727,38.863" fill="#119d91" stroke="#24364b" stroke-width="0.55" stroke-linejoin="round" stroke-linecap="round" /><polygon points="176.363,65.612 175.962,69.233 174.773,72.691 172.843,75.855 170.246,78.602 167.081,80.827 163.471,82.445 159.553,83.392 155.479,83.634 151.404,83.160 147.487,81.989 143.876,80.165 140.711,77.760 138.114,74.865 136.184,71.591 134.996,68.065 134.595,64.421 134.996,60.800 136.184,57.342 138.114,54.178 140.711,51.431 143.876,49.206 147.487,47.588 151.404,46.641 155.479,46.399 159.553,46.873 163.471,48.044 167.081,49.868 170.246,52.273 172.843,55.169 174.773,58.442 175.962,61.969" fill="#0e7d72" stroke="#24364b" stroke-width="0.55" stroke-linejoin="round" stroke-linecap="round" /><polygon points="151.404,46.641 155.479,46.399 156.735,37.218 152.661,37.460" fill="#109085" stroke="#24364b" stroke-width="0.55" stroke-linejoin="round" stroke-linecap="round" /><polygon points="159.553,46.873 163.471,48.044 164.727,38.863 160.809,37.692" fill="#11998d" stroke="#24364b" stroke-width="0.55" stroke-linejoin="round" stroke-linecap="round" /><polygon points="155.479,46.399 159.553,46.873 160.809,37.692 156.735,37.218" fill="#109589" stroke="#24364b" stroke-width="0.55" stroke-linejoin="round" stroke-linecap="round" /><polygon points="219.428,221.324 221.614,215.162 221.614,197.234 219.428,203.396" fill="#3161aa" stroke="#24364b" stroke-width="0.55" stroke-linejoin="round" stroke-linecap="round" /><polygon points="110.331,214.971 119.414,148.587 193.669,150.704 184.586,217.088" fill="#a6c1df" stroke="#24364b" stroke-width="0.55" stroke-linejoin="round" stroke-linecap="round" /><polygon points="239.391,251.718 244.752,243.618 244.752,221.553 239.391,229.653" fill="#7d8692" stroke="#24364b" stroke-width="0.55" stroke-linejoin="round" stroke-linecap="round" /><polygon points="59.286,243.707 64.685,251.801 64.685,229.736 59.286,221.642" fill="#a2aebe" stroke="#24364b" stroke-width="0.55" stroke-linejoin="round" stroke-linecap="round" /><polygon points="82.875,217.430 86.021,223.504 86.021,205.577 82.875,199.502" fill="#4282e5" stroke="#24364b" stroke-width="0.55" stroke-linejoin="round" stroke-linecap="round" /><polygon points="184.592,123.341 187.503,119.661 205.906,134.941 202.995,138.622" fill="#1d2e42" stroke="#24364b" stroke-width="0.55" stroke-linejoin="round" stroke-linecap="round" /><polygon points="187.503,119.661 190.596,116.142 208.999,131.423 205.906,134.941" fill="#1c2d41" stroke="#24364b" stroke-width="0.55" stroke-linejoin="round" stroke-linecap="round" /><polygon points="181.976,127.041 184.592,123.341 202.995,138.622 200.379,142.322" fill="#1d2f44" stroke="#24364b" stroke-width="0.55" stroke-linejoin="round" stroke-linecap="round" /><polygon points="190.596,116.142 193.753,112.921 212.156,128.201 208.999,131.423" fill="#1c2d40" stroke="#24364b" stroke-width="0.55" stroke-linejoin="round" stroke-linecap="round" /><polygon points="205.104,138.942 207.301,136.164 208.796,137.405 206.599,140.183" fill="#086175" stroke="#24364b" stroke-width="0.55" stroke-linejoin="round" stroke-linecap="round" /><polygon points="207.301,136.164 209.636,133.508 211.131,134.749 208.796,137.405" fill="#085f73" stroke="#24364b" stroke-width="0.55" stroke-linejoin="round" stroke-linecap="round" /><polygon points="97.103,59.399 175.314,124.342 215.662,85.505 137.451,20.562" fill="#b5bac1" stroke="#24364b" stroke-width="0.55" stroke-linejoin="round" stroke-linecap="round" /><polygon points="179.755,130.619 181.976,127.041 200.379,142.322 198.157,145.900" fill="#1e3045" stroke="#24364b" stroke-width="0.55" stroke-linejoin="round" stroke-linecap="round" /><polygon points="203.129,141.735 205.104,138.942 206.599,140.183 204.624,142.976" fill="#086377" stroke="#24364b" stroke-width="0.55" stroke-linejoin="round" stroke-linecap="round" /><polygon points="193.753,112.921 196.853,110.120 215.256,125.401 212.156,128.201" fill="#1c2d40" stroke="#24364b" stroke-width="0.55" stroke-linejoin="round" stroke-linecap="round" /><polygon points="209.636,133.508 212.019,131.076 213.514,132.318 211.131,134.749" fill="#085e72" stroke="#24364b" stroke-width="0.55" stroke-linejoin="round" stroke-linecap="round" /><polygon points="214.651,227.173 219.428,221.324 219.428,203.396 214.651,209.245" fill="#3262ac" stroke="#24364b" stroke-width="0.55" stroke-linejoin="round" stroke-linecap="round" /><polygon points="201.452,144.436 203.129,141.735 204.624,142.976 202.947,145.677" fill="#09667a" stroke="#24364b" stroke-width="0.55" stroke-linejoin="round" stroke-linecap="round" /><polygon points="212.019,131.076 214.359,128.962 215.854,130.203 213.514,132.318" fill="#085e71" stroke="#24364b" stroke-width="0.55" stroke-linejoin="round" stroke-linecap="round" /><polygon points="178.014,133.938 179.755,130.619 198.157,145.900 196.417,149.219" fill="#1f3147" stroke="#24364b" stroke-width="0.55" stroke-linejoin="round" stroke-linecap="round" /><polygon points="196.853,110.120 199.776,107.847 218.179,123.128 215.256,125.401" fill="#1c2d40" stroke="#24364b" stroke-width="0.55" stroke-linejoin="round" stroke-linecap="round" /><polygon points="200.138,146.941 201.452,144.436 202.947,145.677 201.633,148.183" fill="#09697e" stroke="#24364b" stroke-width="0.55" stroke-linejoin="round" stroke-linecap="round" /><polygon points="214.359,128.962 216.565,127.246 218.060,128.488 215.854,130.203" fill="#085e72" stroke="#24364b" stroke-width="0.55" stroke-linejoin="round" stroke-linecap="round" /><polygon points="86.021,223.504 91.702,229.182 91.702,211.254 86.021,205.577" fill="#4281e3" stroke="#24364b" stroke-width="0.55" stroke-linejoin="round" stroke-linecap="round" /><polygon points="176.820,136.870 178.014,133.938 196.417,149.219 195.223,152.151" fill="#203349" stroke="#24364b" stroke-width="0.55" stroke-linejoin="round" stroke-linecap="round" /><polygon points="199.237,149.154 200.138,146.941 201.633,148.183 200.732,150.396" fill="#096c81" stroke="#24364b" stroke-width="0.55" stroke-linejoin="round" stroke-linecap="round" /><polygon points="216.565,127.246 218.553,125.996 220.048,127.237 218.060,128.488" fill="#085f73" stroke="#24364b" stroke-width="0.55" stroke-linejoin="round" stroke-linecap="round" /><polygon points="199.776,107.847 202.410,106.190 220.812,121.471 218.179,123.128" fill="#1c2d41" stroke="#24364b" stroke-width="0.55" stroke-linejoin="round" stroke-linecap="round" /><polygon points="209.400,140.551 210.620,139.007 211.196,139.485 209.975,141.028" fill="#112d4a" stroke="#24364b" stroke-width="0.55" stroke-linejoin="round" stroke-linecap="round" /><polygon points="210.620,139.007 211.918,137.532 212.493,138.010 211.196,139.485" fill="#102c49" stroke="#24364b" stroke-width="0.55" stroke-linejoin="round" stroke-linecap="round" /><polygon points="208.303,142.102 209.400,140.551 209.975,141.028 208.878,142.580" fill="#112e4c" stroke="#24364b" stroke-width="0.55" stroke-linejoin="round" stroke-linecap="round" /><polygon points="211.918,137.532 213.242,136.181 213.817,136.659 212.493,138.010" fill="#102c49" stroke="#24364b" stroke-width="0.55" stroke-linejoin="round" stroke-linecap="round" /><polygon points="207.371,143.603 208.303,142.102 208.878,142.580 207.946,144.081" fill="#112f4e" stroke="#24364b" stroke-width="0.55" stroke-linejoin="round" stroke-linecap="round" /><polygon points="213.242,136.181 214.541,135.006 215.117,135.484 213.817,136.659" fill="#102c48" stroke="#24364b" stroke-width="0.55" stroke-linejoin="round" stroke-linecap="round" /><polygon points="198.784,150.990 199.237,149.154 200.732,150.396 200.279,152.231" fill="#096f85" stroke="#24364b" stroke-width="0.55" stroke-linejoin="round" stroke-linecap="round" /><polygon points="218.553,125.996 220.247,125.258 221.742,126.499 220.048,127.237" fill="#086175" stroke="#24364b" stroke-width="0.55" stroke-linejoin="round" stroke-linecap="round" /><polygon points="230.670,259.185 239.391,251.718 239.391,229.653 230.670,237.120" fill="#7c8692" stroke="#24364b" stroke-width="0.55" stroke-linejoin="round" stroke-linecap="round" /><polygon points="206.641,144.995 207.371,143.603 207.946,144.081 207.216,145.472" fill="#123150" stroke="#24364b" stroke-width="0.55" stroke-linejoin="round" stroke-linecap="round" /><polygon points="214.541,135.006 215.767,134.053 216.342,134.531 215.117,135.484" fill="#102c49" stroke="#24364b" stroke-width="0.55" stroke-linejoin="round" stroke-linecap="round" /><polygon points="64.685,251.801 73.440,259.260 73.440,237.195 64.685,229.736" fill="#9eabba" stroke="#24364b" stroke-width="0.55" stroke-linejoin="round" stroke-linecap="round" /><polygon points="176.220,139.302 176.820,136.870 195.223,152.151 194.623,154.583" fill="#21344c" stroke="#24364b" stroke-width="0.55" stroke-linejoin="round" stroke-linecap="round" /><polygon points="202.410,106.190 204.654,105.213 223.056,120.493 220.812,121.471" fill="#1d2e42" stroke="#24364b" stroke-width="0.55" stroke-linejoin="round" stroke-linecap="round" /><polygon points="206.141,146.224 206.641,144.995 207.216,145.472 206.716,146.702" fill="#123253" stroke="#24364b" stroke-width="0.55" stroke-linejoin="round" stroke-linecap="round" /><polygon points="215.767,134.053 216.872,133.359 217.447,133.836 216.342,134.531" fill="#102c49" stroke="#24364b" stroke-width="0.55" stroke-linejoin="round" stroke-linecap="round" /><polygon points="198.796,152.378 198.784,150.990 200.279,152.231 200.291,153.620" fill="#0a7289" stroke="#24364b" stroke-width="0.55" stroke-linejoin="round" stroke-linecap="round" /><polygon points="205.889,147.244 206.141,146.224 206.716,146.702 206.464,147.722" fill="#133455" stroke="#24364b" stroke-width="0.55" stroke-linejoin="round" stroke-linecap="round" /><polygon points="216.872,133.359 217.813,132.949 218.388,133.426 217.447,133.836" fill="#112d4a" stroke="#24364b" stroke-width="0.55" stroke-linejoin="round" stroke-linecap="round" /><polygon points="220.247,125.258 221.581,125.061 223.076,126.302 221.742,126.499" fill="#086377" stroke="#24364b" stroke-width="0.55" stroke-linejoin="round" stroke-linecap="round" /><polygon points="207.466,232.483 214.651,227.173 214.651,209.245 207.466,214.556" fill="#3263ae" stroke="#24364b" stroke-width="0.55" stroke-linejoin="round" stroke-linecap="round" /><polygon points="205.896,148.015 205.889,147.244 206.464,147.722 206.471,148.493" fill="#133558" stroke="#24364b" stroke-width="0.55" stroke-linejoin="round" stroke-linecap="round" /><polygon points="176.236,141.141 176.220,139.302 194.623,154.583 194.639,156.422" fill="#22364e" stroke="#24364b" stroke-width="0.55" stroke-linejoin="round" stroke-linecap="round" /><polygon points="217.813,132.949 218.554,132.839 219.129,133.317 218.388,133.426" fill="#112e4c" stroke="#24364b" stroke-width="0.55" stroke-linejoin="round" stroke-linecap="round" /><polygon points="204.654,105.213 206.421,104.952 224.823,120.233 223.056,120.493" fill="#1d2f44" stroke="#24364b" stroke-width="0.55" stroke-linejoin="round" stroke-linecap="round" /><polygon points="199.273,153.265 198.796,152.378 200.291,153.620 200.768,154.507" fill="#0a758d" stroke="#24364b" stroke-width="0.55" stroke-linejoin="round" stroke-linecap="round" /><polygon points="221.581,125.061 222.504,125.413 223.999,126.654 223.076,126.302" fill="#09667a" stroke="#24364b" stroke-width="0.55" stroke-linejoin="round" stroke-linecap="round" /><polygon points="206.160,148.508 205.896,148.015 206.471,148.493 206.736,148.986" fill="#14375a" stroke="#24364b" stroke-width="0.55" stroke-linejoin="round" stroke-linecap="round" /><polygon points="218.554,132.839 219.067,133.035 219.642,133.512 219.129,133.317" fill="#112f4e" stroke="#24364b" stroke-width="0.55" stroke-linejoin="round" stroke-linecap="round" /><polygon points="91.702,229.182 99.700,234.245 99.700,216.317 91.702,211.254" fill="#4180e1" stroke="#24364b" stroke-width="0.55" stroke-linejoin="round" stroke-linecap="round" /><polygon points="212.560,145.839 211.261,147.014 210.035,147.967 208.930,148.662 207.989,149.072 207.248,149.181 206.736,148.986 206.471,148.493 206.464,147.722 206.716,146.702 207.216,145.472 207.946,144.081 208.878,142.580 209.975,141.028 211.196,139.485 212.493,138.010 213.817,136.659 215.117,135.484 216.342,134.531 217.447,133.836 218.388,133.426 219.129,133.317 219.642,133.512 219.906,134.005 219.913,134.776 219.661,135.796 219.161,137.026 218.431,138.417 217.499,139.918 216.402,141.470 215.182,143.013 213.884,144.488" fill="#173f68" stroke="#24364b" stroke-width="0.55" stroke-linejoin="round" stroke-linecap="round" /><polygon points="211.985,145.362 210.686,146.536 209.460,147.489 208.355,148.184 207.414,148.594 206.673,148.704 206.160,148.508 205.896,148.015 205.889,147.244 206.141,146.224 206.641,144.995 207.371,143.603 208.303,142.102 209.400,140.551 210.620,139.007 211.918,137.532 213.242,136.181 214.541,135.006 215.767,134.053 216.872,133.359 217.813,132.949 218.554,132.839 219.067,133.035 219.331,133.527 219.338,134.299 219.086,135.319 218.586,136.548 217.856,137.940 216.924,139.440 215.827,140.992 214.607,142.535 213.309,144.011" fill="#102b47" stroke="#24364b" stroke-width="0.55" stroke-linejoin="round" stroke-linecap="round" /><polygon points="211.253,148.843 208.913,150.957 206.707,152.673 204.719,153.924 203.025,154.662 201.691,154.858 200.768,154.507 200.291,153.620 200.279,152.231 200.732,150.396 201.633,148.183 202.947,145.677 204.624,142.976 206.599,140.183 208.796,137.405 211.131,134.749 213.514,132.318 215.854,130.203 218.060,128.488 220.048,127.237 221.742,126.499 223.076,126.302 223.999,126.654 224.476,127.541 224.488,128.929 224.035,130.765 223.134,132.978 221.820,135.483 220.143,138.185 218.168,140.978 215.971,143.756 213.636,146.411" fill="#0c87a3" stroke="#24364b" stroke-width="0.55" stroke-linejoin="round" stroke-linecap="round" /><polygon points="209.758,147.602 207.418,149.716 205.212,151.431 203.223,152.682 201.530,153.420 200.196,153.617 199.273,153.265 198.796,152.378 198.784,150.990 199.237,149.154 200.138,146.941 201.452,144.436 203.129,141.735 205.104,138.942 207.301,136.164 209.636,133.508 212.019,131.076 214.359,128.962 216.565,127.246 218.553,125.996 220.247,125.258 221.581,125.061 222.504,125.413 222.980,126.300 222.992,127.688 222.539,129.524 221.638,131.737 220.324,134.242 218.648,136.943 216.673,139.736 214.476,142.514 212.141,145.170" fill="#085d70" stroke="#24364b" stroke-width="0.55" stroke-linejoin="round" stroke-linecap="round" /><polygon points="209.160,150.094 206.061,152.895 203.138,155.168 200.504,156.825 198.260,157.802 196.493,158.063 195.270,157.597 194.639,156.422 194.623,154.583 195.223,152.151 196.417,149.219 198.157,145.900 200.379,142.322 202.995,138.622 205.906,134.941 208.999,131.423 212.156,128.201 215.256,125.401 218.179,123.128 220.812,121.471 223.056,120.493 224.823,120.233 226.046,120.699 226.678,121.874 226.694,123.713 226.093,126.145 224.900,129.077 223.159,132.395 220.938,135.974 218.322,139.674 215.411,143.354 212.318,146.873" fill="#28405c" stroke="#24364b" stroke-width="0.55" stroke-linejoin="round" stroke-linecap="round" /><polygon points="206.673,148.704 206.160,148.508 206.736,148.986 207.248,149.181" fill="#15385c" stroke="#24364b" stroke-width="0.55" stroke-linejoin="round" stroke-linecap="round" /><polygon points="219.067,133.035 219.331,133.527 219.906,134.005 219.642,133.512" fill="#123150" stroke="#24364b" stroke-width="0.55" stroke-linejoin="round" stroke-linecap="round" /><polygon points="176.868,142.316 176.236,141.141 194.639,156.422 195.270,157.597" fill="#233750" stroke="#24364b" stroke-width="0.55" stroke-linejoin="round" stroke-linecap="round" /><polygon points="206.421,104.952 207.644,105.418 226.046,120.699 224.823,120.233" fill="#1e3045" stroke="#24364b" stroke-width="0.55" stroke-linejoin="round" stroke-linecap="round" /><polygon points="200.196,153.617 199.273,153.265 200.768,154.507 201.691,154.858" fill="#0a7890" stroke="#24364b" stroke-width="0.55" stroke-linejoin="round" stroke-linecap="round" /><polygon points="222.504,125.413 222.980,126.300 224.476,127.541 223.999,126.654" fill="#09697e" stroke="#24364b" stroke-width="0.55" stroke-linejoin="round" stroke-linecap="round" /><polygon points="207.414,148.594 206.673,148.704 207.248,149.181 207.989,149.072" fill="#15395e" stroke="#24364b" stroke-width="0.55" stroke-linejoin="round" stroke-linecap="round" /><polygon points="219.331,133.527 219.338,134.299 219.913,134.776 219.906,134.005" fill="#123253" stroke="#24364b" stroke-width="0.55" stroke-linejoin="round" stroke-linecap="round" /><polygon points="99.311,56.424 102.187,58.812 133.223,28.937 130.348,26.550" fill="#506479" stroke="#24364b" stroke-width="0.55" stroke-linejoin="round" stroke-linecap="round" /><polygon points="208.355,148.184 207.414,148.594 207.989,149.072 208.930,148.662" fill="#153a60" stroke="#24364b" stroke-width="0.55" stroke-linejoin="round" stroke-linecap="round" /><polygon points="219.338,134.299 219.086,135.319 219.661,135.796 219.913,134.776" fill="#133455" stroke="#24364b" stroke-width="0.55" stroke-linejoin="round" stroke-linecap="round" /><polygon points="201.530,153.420 200.196,153.617 201.691,154.858 203.025,154.662" fill="#0a7b94" stroke="#24364b" stroke-width="0.55" stroke-linejoin="round" stroke-linecap="round" /><polygon points="198.150,237.052 207.466,232.483 207.466,214.556 198.150,219.124" fill="#3365b2" stroke="#24364b" stroke-width="0.55" stroke-linejoin="round" stroke-linecap="round" /><polygon points="222.980,126.300 222.992,127.688 224.488,128.929 224.476,127.541" fill="#096c81" stroke="#24364b" stroke-width="0.55" stroke-linejoin="round" stroke-linecap="round" /><polygon points="209.460,147.489 208.355,148.184 208.930,148.662 210.035,147.967" fill="#163b61" stroke="#24364b" stroke-width="0.55" stroke-linejoin="round" stroke-linecap="round" /><polygon points="218.927,265.731 230.670,259.185 230.670,237.120 218.927,243.666" fill="#7d8692" stroke="#24364b" stroke-width="0.55" stroke-linejoin="round" stroke-linecap="round" /><polygon points="178.090,142.782 176.868,142.316 195.270,157.597 196.493,158.063" fill="#233952" stroke="#24364b" stroke-width="0.55" stroke-linejoin="round" stroke-linecap="round" /><polygon points="219.086,135.319 218.586,136.548 219.161,137.026 219.661,135.796" fill="#133558" stroke="#24364b" stroke-width="0.55" stroke-linejoin="round" stroke-linecap="round" /><polygon points="73.440,259.260 85.213,265.795 85.213,243.730 73.440,237.195" fill="#9ba6b6" stroke="#24364b" stroke-width="0.55" stroke-linejoin="round" stroke-linecap="round" /><polygon points="207.644,105.418 208.275,106.593 226.678,121.874 226.046,120.699" fill="#1f3147" stroke="#24364b" stroke-width="0.55" stroke-linejoin="round" stroke-linecap="round" /><polygon points="170.000,163.184 210.347,124.347 215.662,85.505 175.314,124.342" fill="#e8eff8" stroke="#24364b" stroke-width="0.55" stroke-linejoin="round" stroke-linecap="round" /><polygon points="190.758,134.813 187.658,137.614 184.735,139.887 182.101,141.544 179.858,142.522 178.090,142.782 176.868,142.316 176.236,141.141 176.220,139.302 176.820,136.870 178.014,133.938 179.755,130.619 181.976,127.041 184.592,123.341 187.503,119.661 190.596,116.142 193.753,112.921 196.853,110.120 199.776,107.847 202.410,106.190 204.654,105.213 206.421,104.952 207.644,105.418 208.275,106.593 208.291,108.432 207.691,110.864 206.497,113.796 204.757,117.115 202.535,120.693 199.919,124.393 197.008,128.073 193.915,131.592" fill="#1b2c3f" stroke="#24364b" stroke-width="0.55" stroke-linejoin="round" stroke-linecap="round" /><polygon points="210.686,146.536 209.460,147.489 210.035,147.967 211.261,147.014" fill="#163b62" stroke="#24364b" stroke-width="0.55" stroke-linejoin="round" stroke-linecap="round" /><polygon points="218.586,136.548 217.856,137.940 218.431,138.417 219.161,137.026" fill="#14375a" stroke="#24364b" stroke-width="0.55" stroke-linejoin="round" stroke-linecap="round" /><polygon points="211.985,145.362 210.686,146.536 211.261,147.014 212.560,145.839" fill="#163b62" stroke="#24364b" stroke-width="0.55" stroke-linejoin="round" stroke-linecap="round" /><polygon points="99.700,234.245 109.709,238.498 109.709,220.570 99.700,216.317" fill="#407edd" stroke="#24364b" stroke-width="0.55" stroke-linejoin="round" stroke-linecap="round" /><polygon points="203.223,152.682 201.530,153.420 203.025,154.662 204.719,153.924" fill="#0b7d96" stroke="#24364b" stroke-width="0.55" stroke-linejoin="round" stroke-linecap="round" /><polygon points="217.856,137.940 216.924,139.440 217.499,139.918 218.431,138.417" fill="#15385c" stroke="#24364b" stroke-width="0.55" stroke-linejoin="round" stroke-linecap="round" /><polygon points="222.992,127.688 222.539,129.524 224.035,130.765 224.488,128.929" fill="#096f85" stroke="#24364b" stroke-width="0.55" stroke-linejoin="round" stroke-linecap="round" /><polygon points="213.309,144.011 211.985,145.362 212.560,145.839 213.884,144.488" fill="#163b62" stroke="#24364b" stroke-width="0.55" stroke-linejoin="round" stroke-linecap="round" /><polygon points="216.924,139.440 215.827,140.992 216.402,141.470 217.499,139.918" fill="#15395e" stroke="#24364b" stroke-width="0.55" stroke-linejoin="round" stroke-linecap="round" /><polygon points="214.607,142.535 213.309,144.011 213.884,144.488 215.182,143.013" fill="#163b61" stroke="#24364b" stroke-width="0.55" stroke-linejoin="round" stroke-linecap="round" /><polygon points="215.827,140.992 214.607,142.535 215.182,143.013 216.402,141.470" fill="#153a60" stroke="#24364b" stroke-width="0.55" stroke-linejoin="round" stroke-linecap="round" /><polygon points="91.789,98.241 170.000,163.184 175.314,124.342 97.103,59.399" fill="#a7acb3" stroke="#24364b" stroke-width="0.55" stroke-linejoin="round" stroke-linecap="round" /><polygon points="179.858,142.522 178.090,142.782 196.493,158.063 198.260,157.802" fill="#243a54" stroke="#24364b" stroke-width="0.55" stroke-linejoin="round" stroke-linecap="round" /><polygon points="208.275,106.593 208.291,108.432 226.694,123.713 226.678,121.874" fill="#203349" stroke="#24364b" stroke-width="0.55" stroke-linejoin="round" stroke-linecap="round" /><polygon points="205.212,151.431 203.223,152.682 204.719,153.924 206.707,152.673" fill="#0b7e98" stroke="#24364b" stroke-width="0.55" stroke-linejoin="round" stroke-linecap="round" /><polygon points="222.539,129.524 221.638,131.737 223.134,132.978 224.035,130.765" fill="#0a7289" stroke="#24364b" stroke-width="0.55" stroke-linejoin="round" stroke-linecap="round" /><polygon points="187.060,240.704 198.150,237.052 198.150,219.124 187.060,222.776" fill="#3568b7" stroke="#24364b" stroke-width="0.55" stroke-linejoin="round" stroke-linecap="round" /><polygon points="207.418,149.716 205.212,151.431 206.707,152.673 208.913,150.957" fill="#0b7f99" stroke="#24364b" stroke-width="0.55" stroke-linejoin="round" stroke-linecap="round" /><polygon points="221.638,131.737 220.324,134.242 221.820,135.483 223.134,132.978" fill="#0a758d" stroke="#24364b" stroke-width="0.55" stroke-linejoin="round" stroke-linecap="round" /><polygon points="182.101,141.544 179.858,142.522 198.260,157.802 200.504,156.825" fill="#253b55" stroke="#24364b" stroke-width="0.55" stroke-linejoin="round" stroke-linecap="round" /><polygon points="208.291,108.432 207.691,110.864 226.093,126.145 226.694,123.713" fill="#21344c" stroke="#24364b" stroke-width="0.55" stroke-linejoin="round" stroke-linecap="round" /><polygon points="209.758,147.602 207.418,149.716 208.913,150.957 211.253,148.843" fill="#0b8099" stroke="#24364b" stroke-width="0.55" stroke-linejoin="round" stroke-linecap="round" /><polygon points="109.709,238.498 121.342,241.778 121.342,223.850 109.709,220.570" fill="#3e7bd8" stroke="#24364b" stroke-width="0.55" stroke-linejoin="round" stroke-linecap="round" /><polygon points="220.324,134.242 218.648,136.943 220.143,138.185 221.820,135.483" fill="#0a7890" stroke="#24364b" stroke-width="0.55" stroke-linejoin="round" stroke-linecap="round" /><polygon points="212.141,145.170 209.758,147.602 211.253,148.843 213.636,146.411" fill="#0b7f99" stroke="#24364b" stroke-width="0.55" stroke-linejoin="round" stroke-linecap="round" /><polygon points="218.648,136.943 216.673,139.736 218.168,140.978 220.143,138.185" fill="#0a7b94" stroke="#24364b" stroke-width="0.55" stroke-linejoin="round" stroke-linecap="round" /><polygon points="204.611,271.106 218.927,265.731 218.927,243.666 204.611,249.041" fill="#7e8794" stroke="#24364b" stroke-width="0.55" stroke-linejoin="round" stroke-linecap="round" /><polygon points="214.476,142.514 212.141,145.170 213.636,146.411 215.971,143.756" fill="#0b7e98" stroke="#24364b" stroke-width="0.55" stroke-linejoin="round" stroke-linecap="round" /><polygon points="148.135,126.274 146.475,126.081 154.205,69.583 155.865,69.777" fill="#475c71" stroke="#24364b" stroke-width="0.55" stroke-linejoin="round" stroke-linecap="round" /><polygon points="216.673,139.736 214.476,142.514 215.971,143.756 218.168,140.978" fill="#0b7d96" stroke="#24364b" stroke-width="0.55" stroke-linejoin="round" stroke-linecap="round" /><polygon points="85.213,265.795 99.553,271.156 99.553,249.091 85.213,243.730" fill="#97a2b1" stroke="#24364b" stroke-width="0.55" stroke-linejoin="round" stroke-linecap="round" /><polygon points="146.475,126.081 144.879,125.604 152.609,69.106 154.205,69.583" fill="#45596d" stroke="#24364b" stroke-width="0.55" stroke-linejoin="round" stroke-linecap="round" /><polygon points="149.795,126.175 148.135,126.274 155.865,69.777 157.525,69.678" fill="#495f74" stroke="#24364b" stroke-width="0.55" stroke-linejoin="round" stroke-linecap="round" /><polygon points="144.879,125.604 143.408,124.861 151.138,68.363 152.609,69.106" fill="#43576a" stroke="#24364b" stroke-width="0.55" stroke-linejoin="round" stroke-linecap="round" /><polygon points="151.391,125.789 149.795,126.175 157.525,69.678 159.121,69.292" fill="#4c6177" stroke="#24364b" stroke-width="0.55" stroke-linejoin="round" stroke-linecap="round" /><polygon points="143.408,124.861 142.118,123.881 149.849,67.383 151.138,68.363" fill="#415467" stroke="#24364b" stroke-width="0.55" stroke-linejoin="round" stroke-linecap="round" /><polygon points="152.862,125.130 151.391,125.789 159.121,69.292 160.592,68.633" fill="#4d647a" stroke="#24364b" stroke-width="0.55" stroke-linejoin="round" stroke-linecap="round" /><polygon points="184.735,139.887 182.101,141.544 200.504,156.825 203.138,155.168" fill="#253c56" stroke="#24364b" stroke-width="0.55" stroke-linejoin="round" stroke-linecap="round" /><polygon points="207.691,110.864 206.497,113.796 224.900,129.077 226.093,126.145" fill="#22364e" stroke="#24364b" stroke-width="0.55" stroke-linejoin="round" stroke-linecap="round" /><polygon points="142.118,123.881 141.060,122.701 148.791,66.204 149.849,67.383" fill="#405265" stroke="#24364b" stroke-width="0.55" stroke-linejoin="round" stroke-linecap="round" /><polygon points="154.151,124.224 152.862,125.130 160.592,68.633 161.882,67.727" fill="#4f667d" stroke="#24364b" stroke-width="0.55" stroke-linejoin="round" stroke-linecap="round" /><polygon points="141.060,122.701 140.274,121.367 148.005,64.870 148.791,66.204" fill="#3e5063" stroke="#24364b" stroke-width="0.55" stroke-linejoin="round" stroke-linecap="round" /><polygon points="174.623,243.297 187.060,240.704 187.060,222.776 174.623,225.369" fill="#366bbc" stroke="#24364b" stroke-width="0.55" stroke-linejoin="round" stroke-linecap="round" /><polygon points="155.209,123.105 154.151,124.224 161.882,67.727 162.940,66.607" fill="#50687f" stroke="#24364b" stroke-width="0.55" stroke-linejoin="round" stroke-linecap="round" /><polygon points="140.274,121.367 139.790,119.931 147.520,63.433 148.005,64.870" fill="#3d4f61" stroke="#24364b" stroke-width="0.55" stroke-linejoin="round" stroke-linecap="round" /><polygon points="155.995,121.816 155.209,123.105 162.940,66.607 163.726,65.318" fill="#516980" stroke="#24364b" stroke-width="0.55" stroke-linejoin="round" stroke-linecap="round" /><polygon points="139.790,119.931 139.626,118.446 147.357,61.949 147.520,63.433" fill="#3d4e60" stroke="#24364b" stroke-width="0.55" stroke-linejoin="round" stroke-linecap="round" /><polygon points="156.480,120.407 155.995,121.816 163.726,65.318 164.210,63.909" fill="#526a81" stroke="#24364b" stroke-width="0.55" stroke-linejoin="round" stroke-linecap="round" /><polygon points="121.342,241.778 134.154,243.959 134.154,226.031 121.342,223.850" fill="#3d78d3" stroke="#24364b" stroke-width="0.55" stroke-linejoin="round" stroke-linecap="round" /><polygon points="139.626,118.446 139.790,116.971 147.520,60.474 147.357,61.949" fill="#3d4e60" stroke="#24364b" stroke-width="0.55" stroke-linejoin="round" stroke-linecap="round" /><polygon points="156.643,118.932 156.480,120.407 164.210,63.909 164.374,62.434" fill="#526a82" stroke="#24364b" stroke-width="0.55" stroke-linejoin="round" stroke-linecap="round" /><polygon points="187.658,137.614 184.735,139.887 203.138,155.168 206.061,152.895" fill="#263c57" stroke="#24364b" stroke-width="0.55" stroke-linejoin="round" stroke-linecap="round" /><polygon points="206.497,113.796 204.757,117.115 223.159,132.395 224.900,129.077" fill="#233750" stroke="#24364b" stroke-width="0.55" stroke-linejoin="round" stroke-linecap="round" /><polygon points="139.790,116.971 140.274,115.562 148.005,59.065 147.520,60.474" fill="#3d4e60" stroke="#24364b" stroke-width="0.55" stroke-linejoin="round" stroke-linecap="round" /><polygon points="156.480,117.447 156.643,118.932 164.374,62.434 164.210,60.950" fill="#526a81" stroke="#24364b" stroke-width="0.55" stroke-linejoin="round" stroke-linecap="round" /><polygon points="140.274,115.562 141.060,114.273 148.791,57.776 148.005,59.065" fill="#3d4f61" stroke="#24364b" stroke-width="0.55" stroke-linejoin="round" stroke-linecap="round" /><polygon points="155.995,116.011 156.480,117.447 164.210,60.950 163.726,59.513" fill="#516980" stroke="#24364b" stroke-width="0.55" stroke-linejoin="round" stroke-linecap="round" /><polygon points="161.316,244.733 174.623,243.297 174.623,225.369 161.316,226.805" fill="#386ec2" stroke="#24364b" stroke-width="0.55" stroke-linejoin="round" stroke-linecap="round" /><polygon points="141.060,114.273 142.118,113.154 149.849,56.657 148.791,57.776" fill="#3e5063" stroke="#24364b" stroke-width="0.55" stroke-linejoin="round" stroke-linecap="round" /><polygon points="155.209,114.677 155.995,116.011 163.726,59.513 162.940,58.180" fill="#50687f" stroke="#24364b" stroke-width="0.55" stroke-linejoin="round" stroke-linecap="round" /><polygon points="134.154,243.959 147.652,244.957 147.652,227.029 134.154,226.031" fill="#3b75cd" stroke="#24364b" stroke-width="0.55" stroke-linejoin="round" stroke-linecap="round" /><polygon points="190.758,134.813 187.658,137.614 206.061,152.895 209.160,150.094" fill="#263c57" stroke="#24364b" stroke-width="0.55" stroke-linejoin="round" stroke-linecap="round" /><polygon points="142.118,113.154 143.408,112.248 151.138,55.750 149.849,56.657" fill="#405265" stroke="#24364b" stroke-width="0.55" stroke-linejoin="round" stroke-linecap="round" /><polygon points="154.151,113.497 155.209,114.677 162.940,58.180 161.882,57.000" fill="#4f667d" stroke="#24364b" stroke-width="0.55" stroke-linejoin="round" stroke-linecap="round" /><polygon points="204.757,117.115 202.535,120.693 220.938,135.974 223.159,132.395" fill="#233952" stroke="#24364b" stroke-width="0.55" stroke-linejoin="round" stroke-linecap="round" /><polygon points="143.408,112.248 144.879,111.589 152.609,55.091 151.138,55.750" fill="#415467" stroke="#24364b" stroke-width="0.55" stroke-linejoin="round" stroke-linecap="round" /><polygon points="152.862,112.517 154.151,113.497 161.882,57.000 160.592,56.020" fill="#4d647a" stroke="#24364b" stroke-width="0.55" stroke-linejoin="round" stroke-linecap="round" /><polygon points="147.652,244.957 161.316,244.733 161.316,226.805 147.652,227.029" fill="#3a72c8" stroke="#24364b" stroke-width="0.55" stroke-linejoin="round" stroke-linecap="round" /><polygon points="144.879,111.589 146.475,111.203 154.205,54.705 152.609,55.091" fill="#43576a" stroke="#24364b" stroke-width="0.55" stroke-linejoin="round" stroke-linecap="round" /><polygon points="151.391,111.774 152.862,112.517 160.592,56.020 159.121,55.277" fill="#4c6177" stroke="#24364b" stroke-width="0.55" stroke-linejoin="round" stroke-linecap="round" /><polygon points="146.475,111.203 148.135,111.104 155.865,54.607 154.205,54.705" fill="#45596d" stroke="#24364b" stroke-width="0.55" stroke-linejoin="round" stroke-linecap="round" /><polygon points="149.795,111.297 151.391,111.774 159.121,55.277 157.525,54.800" fill="#495f74" stroke="#24364b" stroke-width="0.55" stroke-linejoin="round" stroke-linecap="round" /><polygon points="148.135,111.104 149.795,111.297 157.525,54.800 155.865,54.607" fill="#475c71" stroke="#24364b" stroke-width="0.55" stroke-linejoin="round" stroke-linecap="round" /><polygon points="193.915,131.592 190.758,134.813 209.160,150.094 212.318,146.873" fill="#263c57" stroke="#24364b" stroke-width="0.55" stroke-linejoin="round" stroke-linecap="round" /><polygon points="130.562,220.867 164.596,221.838 165.707,213.716 131.673,212.746" fill="#617791" stroke="#24364b" stroke-width="0.55" stroke-linejoin="round" stroke-linecap="round" /><polygon points="202.535,120.693 199.919,124.393 218.322,139.674 220.938,135.974" fill="#243a54" stroke="#24364b" stroke-width="0.55" stroke-linejoin="round" stroke-linecap="round" /><polygon points="94.866,88.910 97.742,91.298 102.187,58.812 99.311,56.424" fill="#495c70" stroke="#24364b" stroke-width="0.55" stroke-linejoin="round" stroke-linecap="round" /><polygon points="188.274,275.102 204.611,271.106 204.611,249.041 188.274,253.037" fill="#808a96" stroke="#24364b" stroke-width="0.55" stroke-linejoin="round" stroke-linecap="round" /><polygon points="99.553,271.156 115.909,275.137 115.909,253.072 99.553,249.091" fill="#929dac" stroke="#24364b" stroke-width="0.55" stroke-linejoin="round" stroke-linecap="round" /><polygon points="197.008,128.073 193.915,131.592 212.318,146.873 215.411,143.354" fill="#253c56" stroke="#24364b" stroke-width="0.55" stroke-linejoin="round" stroke-linecap="round" /><polygon points="199.919,124.393 197.008,128.073 215.411,143.354 218.322,139.674" fill="#253b55" stroke="#24364b" stroke-width="0.55" stroke-linejoin="round" stroke-linecap="round" /><polygon points="132.136,59.404 137.451,20.562 215.662,85.505 210.347,124.347" fill="#f8ffff" stroke="#24364b" stroke-width="0.55" stroke-linejoin="round" stroke-linecap="round" /><polygon points="170.543,277.567 188.274,275.102 188.274,253.037 170.543,255.502" fill="#838d9a" stroke="#24364b" stroke-width="0.55" stroke-linejoin="round" stroke-linecap="round" /><polygon points="115.909,275.137 133.651,277.584 133.651,255.520 115.909,253.072" fill="#8e99a7" stroke="#24364b" stroke-width="0.55" stroke-linejoin="round" stroke-linecap="round" /><polygon points="97.742,91.298 128.778,61.423 133.223,28.937 102.187,58.812" fill="#66809b" stroke="#24364b" stroke-width="0.55" stroke-linejoin="round" stroke-linecap="round" /><polygon points="110.331,231.520 110.331,214.971 184.586,217.088 184.586,233.637" fill="#8fa6bf" stroke="#24364b" stroke-width="0.55" stroke-linejoin="round" stroke-linecap="round" /><polygon points="91.789,98.241 97.103,59.399 137.451,20.562 132.136,59.404" fill="#c5cbd3" stroke="#24364b" stroke-width="0.55" stroke-linejoin="round" stroke-linecap="round" /><polygon points="94.866,88.910 99.311,56.424 130.348,26.550 125.903,59.036" fill="#576d84" stroke="#24364b" stroke-width="0.55" stroke-linejoin="round" stroke-linecap="round" /><polygon points="152.099,278.405 170.543,277.567 170.543,255.502 152.099,256.340" fill="#86909e" stroke="#24364b" stroke-width="0.55" stroke-linejoin="round" stroke-linecap="round" /><polygon points="133.651,277.584 152.099,278.405 152.099,256.340 133.651,255.520" fill="#8a94a2" stroke="#24364b" stroke-width="0.55" stroke-linejoin="round" stroke-linecap="round" /><polygon points="131.673,212.746 165.707,213.716 165.707,121.319 131.673,120.349" fill="#69819d" stroke="#24364b" stroke-width="0.55" stroke-linejoin="round" stroke-linecap="round" /><polygon points="125.903,59.036 130.348,26.550 133.223,28.937 128.778,61.423" fill="#6d89a6" stroke="#24364b" stroke-width="0.55" stroke-linejoin="round" stroke-linecap="round" /><polygon points="130.562,220.867 131.673,212.746 131.673,120.349 130.562,128.470" fill="#738cab" stroke="#24364b" stroke-width="0.55" stroke-linejoin="round" stroke-linecap="round" /><polygon points="164.596,221.838 164.596,129.441 165.707,121.319 165.707,213.716" fill="#87a5c9" stroke="#24364b" stroke-width="0.55" stroke-linejoin="round" stroke-linecap="round" /><polygon points="130.562,220.867 130.562,128.470 164.596,129.441 164.596,221.838" fill="#7c98b9" stroke="#24364b" stroke-width="0.55" stroke-linejoin="round" stroke-linecap="round" /><polygon points="91.789,98.241 132.136,59.404 210.347,124.347 170.000,163.184" fill="#d5dce4" stroke="#24364b" stroke-width="0.55" stroke-linejoin="round" stroke-linecap="round" /><polygon points="94.866,88.910 125.903,59.036 128.778,61.423 97.742,91.298" fill="#5e768f" stroke="#24364b" stroke-width="0.55" stroke-linejoin="round" stroke-linecap="round" /><polygon points="144.447,134.008 148.521,134.482 147.265,143.662 143.191,143.188" fill="#11998d" stroke="#24364b" stroke-width="0.55" stroke-linejoin="round" stroke-linecap="round" /><polygon points="140.529,132.836 144.447,134.008 143.191,143.188 139.273,142.017" fill="#119d91" stroke="#24364b" stroke-width="0.55" stroke-linejoin="round" stroke-linecap="round" /><polygon points="148.521,134.482 152.596,134.240 151.339,143.421 147.265,143.662" fill="#109589" stroke="#24364b" stroke-width="0.55" stroke-linejoin="round" stroke-linecap="round" /><polygon points="127.637,115.269 128.038,118.912 129.227,122.439 131.157,125.712 133.754,128.608 136.919,131.013 140.529,132.836 144.447,134.008 148.521,134.482 152.596,134.240 156.513,133.292 160.124,131.675 163.289,129.450 165.886,126.703 167.816,123.539 169.004,120.080 169.405,116.460 169.004,112.816 167.816,109.290 165.886,106.016 163.289,103.121 160.124,100.715 156.513,98.892 152.596,97.721 148.521,97.247 144.447,97.488 140.529,98.436 136.919,100.054 133.754,102.279 131.157,105.026 129.227,108.189 128.038,111.648" fill="#0e7d72" stroke="#24364b" stroke-width="0.55" stroke-linejoin="round" stroke-linecap="round" /><polygon points="136.919,131.013 140.529,132.836 139.273,142.017 135.662,140.194" fill="#12a194" stroke="#24364b" stroke-width="0.55" stroke-linejoin="round" stroke-linecap="round" /><polygon points="152.596,134.240 156.513,133.292 155.257,142.473 151.339,143.421" fill="#109085" stroke="#24364b" stroke-width="0.55" stroke-linejoin="round" stroke-linecap="round" /><polygon points="133.754,128.608 136.919,131.013 135.662,140.194 132.498,137.788" fill="#12a597" stroke="#24364b" stroke-width="0.55" stroke-linejoin="round" stroke-linecap="round" /><polygon points="156.513,133.292 160.124,131.675 158.868,140.856 155.257,142.473" fill="#0f8c81" stroke="#24364b" stroke-width="0.55" stroke-linejoin="round" stroke-linecap="round" /><polygon points="131.157,125.712 133.754,128.608 132.498,137.788 129.900,134.893" fill="#12a79a" stroke="#24364b" stroke-width="0.55" stroke-linejoin="round" stroke-linecap="round" /><polygon points="130.562,128.470 131.673,120.349 165.707,121.319 164.596,129.441" fill="#90b1d7" stroke="#24364b" stroke-width="0.55" stroke-linejoin="round" stroke-linecap="round" /><polygon points="160.124,131.675 163.289,129.450 162.032,138.631 158.868,140.856" fill="#0f887d" stroke="#24364b" stroke-width="0.55" stroke-linejoin="round" stroke-linecap="round" /><polygon points="129.227,122.439 131.157,125.712 129.900,134.893 127.970,131.619" fill="#13aa9c" stroke="#24364b" stroke-width="0.55" stroke-linejoin="round" stroke-linecap="round" /><polygon points="163.289,129.450 165.886,126.703 164.630,135.883 162.032,138.631" fill="#0f857a" stroke="#24364b" stroke-width="0.55" stroke-linejoin="round" stroke-linecap="round" /><polygon points="128.038,118.912 129.227,122.439 127.970,131.619 126.782,128.093" fill="#13ab9d" stroke="#24364b" stroke-width="0.55" stroke-linejoin="round" stroke-linecap="round" /><polygon points="165.886,126.703 167.816,123.539 166.560,132.720 164.630,135.883" fill="#0e8278" stroke="#24364b" stroke-width="0.55" stroke-linejoin="round" stroke-linecap="round" /><polygon points="156.643,118.932 156.480,120.407 155.995,121.816 155.209,123.105 154.151,124.224 152.862,125.130 151.391,125.789 149.795,126.175 148.135,126.274 146.475,126.081 144.879,125.604 143.408,124.861 142.118,123.881 141.060,122.701 140.274,121.367 139.790,119.931 139.626,118.446 139.790,116.971 140.274,115.562 141.060,114.273 142.118,113.154 143.408,112.248 144.879,111.589 146.475,111.203 148.135,111.104 149.795,111.297 151.391,111.774 152.862,112.517 154.151,113.497 155.209,114.677 155.995,116.011 156.480,117.447" fill="#3c4d5e" stroke="#24364b" stroke-width="0.55" stroke-linejoin="round" stroke-linecap="round" /><polygon points="127.637,115.269 128.038,118.912 126.782,128.093 126.381,124.449" fill="#13ab9d" stroke="#24364b" stroke-width="0.55" stroke-linejoin="round" stroke-linecap="round" /><polygon points="167.816,123.539 169.004,120.080 167.748,129.261 166.560,132.720" fill="#0e8076" stroke="#24364b" stroke-width="0.55" stroke-linejoin="round" stroke-linecap="round" /><polygon points="128.038,111.648 127.637,115.269 126.381,124.449 126.782,120.829" fill="#13ab9d" stroke="#24364b" stroke-width="0.55" stroke-linejoin="round" stroke-linecap="round" /><polygon points="169.004,120.080 169.405,116.460 168.149,125.641 167.748,129.261" fill="#0e7f74" stroke="#24364b" stroke-width="0.55" stroke-linejoin="round" stroke-linecap="round" /><polygon points="129.227,108.189 128.038,111.648 126.782,120.829 127.970,117.370" fill="#13aa9c" stroke="#24364b" stroke-width="0.55" stroke-linejoin="round" stroke-linecap="round" /><polygon points="169.405,116.460 169.004,112.816 167.748,121.997 168.149,125.641" fill="#0e7e74" stroke="#24364b" stroke-width="0.55" stroke-linejoin="round" stroke-linecap="round" /><polygon points="131.157,105.026 129.227,108.189 127.970,117.370 129.900,114.207" fill="#12a79a" stroke="#24364b" stroke-width="0.55" stroke-linejoin="round" stroke-linecap="round" /><polygon points="169.004,112.816 167.816,109.290 166.560,118.471 167.748,121.997" fill="#0e7f74" stroke="#24364b" stroke-width="0.55" stroke-linejoin="round" stroke-linecap="round" /><polygon points="133.754,102.279 131.157,105.026 129.900,114.207 132.498,111.459" fill="#12a597" stroke="#24364b" stroke-width="0.55" stroke-linejoin="round" stroke-linecap="round" /><polygon points="167.816,109.290 165.886,106.016 164.630,115.197 166.560,118.471" fill="#0e8076" stroke="#24364b" stroke-width="0.55" stroke-linejoin="round" stroke-linecap="round" /><polygon points="136.919,100.054 133.754,102.279 132.498,111.459 135.662,109.234" fill="#12a194" stroke="#24364b" stroke-width="0.55" stroke-linejoin="round" stroke-linecap="round" /><polygon points="165.886,106.016 163.289,103.121 162.032,112.302 164.630,115.197" fill="#0e8278" stroke="#24364b" stroke-width="0.55" stroke-linejoin="round" stroke-linecap="round" /><polygon points="140.529,98.436 136.919,100.054 135.662,109.234 139.273,107.617" fill="#119d91" stroke="#24364b" stroke-width="0.55" stroke-linejoin="round" stroke-linecap="round" /><polygon points="163.289,103.121 160.124,100.715 158.868,109.896 162.032,112.302" fill="#0f857a" stroke="#24364b" stroke-width="0.55" stroke-linejoin="round" stroke-linecap="round" /><polygon points="144.447,97.488 140.529,98.436 139.273,107.617 143.191,106.669" fill="#11998d" stroke="#24364b" stroke-width="0.55" stroke-linejoin="round" stroke-linecap="round" /><polygon points="160.124,100.715 156.513,98.892 155.257,108.073 158.868,109.896" fill="#0f887d" stroke="#24364b" stroke-width="0.55" stroke-linejoin="round" stroke-linecap="round" /><polygon points="126.381,124.449 126.782,128.093 127.970,131.619 129.900,134.893 132.498,137.788 135.662,140.194 139.273,142.017 143.191,143.188 147.265,143.662 151.339,143.421 155.257,142.473 158.868,140.856 162.032,138.631 164.630,135.883 166.560,132.720 167.748,129.261 168.149,125.641 167.748,121.997 166.560,118.471 164.630,115.197 162.032,112.302 158.868,109.896 155.257,108.073 151.339,106.902 147.265,106.428 143.191,106.669 139.273,107.617 135.662,109.234 132.498,111.459 129.900,114.207 127.970,117.370 126.782,120.829" fill="#14b6a7" stroke="#24364b" stroke-width="0.55" stroke-linejoin="round" stroke-linecap="round" /><polygon points="148.521,97.247 144.447,97.488 143.191,106.669 147.265,106.428" fill="#109589" stroke="#24364b" stroke-width="0.55" stroke-linejoin="round" stroke-linecap="round" /><polygon points="156.513,98.892 152.596,97.721 151.339,106.902 155.257,108.073" fill="#0f8c81" stroke="#24364b" stroke-width="0.55" stroke-linejoin="round" stroke-linecap="round" /><polygon points="152.596,97.721 148.521,97.247 147.265,106.428 151.339,106.902" fill="#109085" stroke="#24364b" stroke-width="0.55" stroke-linejoin="round" stroke-linecap="round" /><polyline points="214.109,142.013 267.016,185.945" fill="none" stroke="#009c91" stroke-width="2.5" stroke-linejoin="round" stroke-linecap="round" /><polygon points="267.016,185.945 262.647,177.118 257.537,183.273" fill="#009c91" stroke="#009c91" stroke-width="0.4" stroke-linejoin="round" stroke-linecap="round" /><text x="449" y="15" font-family="Arial, Helvetica, sans-serif" font-size="13" fill="#2563eb" text-anchor="middle" font-weight="600">PAN</text><polygon points="502.000,80.000 501.745,85.195 500.982,90.340 499.718,95.385 497.966,100.282 495.742,104.984 493.068,109.445 489.970,113.623 486.477,117.477 482.623,120.970 478.445,124.068 473.984,126.742 469.282,128.966 464.385,130.718 459.340,131.982 454.195,132.745 449.000,133.000 443.805,132.745 438.660,131.982 433.615,130.718 428.718,128.966 424.016,126.742 419.555,124.068 415.377,120.970 411.523,117.477 408.030,113.623 404.932,109.445 402.258,104.984 400.034,100.282 398.282,95.385 397.018,90.340 396.255,85.195 396.000,80.000 396.255,74.805 397.018,69.660 398.282,64.615 400.034,59.718 402.258,55.016 404.932,50.555 408.030,46.377 411.523,42.523 415.377,39.030 419.555,35.932 424.016,33.258 428.718,31.034 433.615,29.282 438.660,28.018 443.805,27.255 449.000,27.000 454.195,27.255 459.340,28.018 464.385,29.282 469.282,31.034 473.984,33.258 478.445,35.932 482.623,39.030 486.477,42.523 489.970,46.377 493.068,50.555 495.742,55.016 497.966,59.718 499.718,64.615 500.982,69.660 501.745,74.805" fill="#f5f8ff" stroke="#d5dfed" stroke-width="1" stroke-linejoin="round" stroke-linecap="round" /><polyline points="449.000,133.000 449.000,19.000" fill="none" stroke="#9cacc0" stroke-width="1" stroke-linejoin="round" stroke-linecap="round" stroke-dasharray="4 4" /><polyline points="396.000,80.000 502.000,80.000" fill="none" stroke="#d5dfed" stroke-width="1" stroke-linejoin="round" stroke-linecap="round" /><polyline points="449.000,80.000 425.598,39.656" fill="none" stroke="#2563eb" stroke-width="2.5" stroke-linejoin="round" stroke-linecap="round" /><polygon points="425.598,39.656 426.654,49.448 433.574,45.434" fill="#2563eb" stroke="#2563eb" stroke-width="0.4" stroke-linejoin="round" stroke-linecap="round" /><polyline points="449.000,39.720 448.471,39.723 447.942,39.734 447.413,39.751 446.884,39.776 446.355,39.807 445.828,39.845 445.300,39.890 444.773,39.942 444.247,40.001 443.722,40.067 443.198,40.140 442.675,40.220 442.153,40.306 441.632,40.400 441.112,40.500 440.593,40.607 440.077,40.721 439.561,40.842 439.048,40.969 438.535,41.103 438.025,41.244 437.517,41.391 437.011,41.546 436.506,41.707 436.004,41.874 435.504,42.048 435.007,42.229 434.512,42.416 434.019,42.609 433.529,42.810 433.042,43.016 432.557,43.229 432.075,43.448 431.597,43.674 431.121,43.906 430.648,44.144 430.178,44.388 429.712,44.638 429.249,44.895 428.790,45.157" fill="none" stroke="#2563eb" stroke-width="2" stroke-linejoin="round" stroke-linecap="round" /><polygon points="452.000,80.000 451.986,80.294 451.942,80.585 451.871,80.871 451.772,81.148 451.646,81.414 451.494,81.667 451.319,81.903 451.121,82.121 450.903,82.319 450.667,82.494 450.414,82.646 450.148,82.772 449.871,82.871 449.585,82.942 449.294,82.986 449.000,83.000 448.706,82.986 448.415,82.942 448.129,82.871 447.852,82.772 447.586,82.646 447.333,82.494 447.097,82.319 446.879,82.121 446.681,81.903 446.506,81.667 446.354,81.414 446.228,81.148 446.129,80.871 446.058,80.585 446.014,80.294 446.000,80.000 446.014,79.706 446.058,79.415 446.129,79.129 446.228,78.852 446.354,78.586 446.506,78.333 446.681,78.097 446.879,77.879 447.097,77.681 447.333,77.506 447.586,77.354 447.852,77.228 448.129,77.129 448.415,77.058 448.706,77.014 449.000,77.000 449.294,77.014 449.585,77.058 449.871,77.129 450.148,77.228 450.414,77.354 450.667,77.506 450.903,77.681 451.121,77.879 451.319,78.097 451.494,78.333 451.646,78.586 451.772,78.852 451.871,79.129 451.942,79.415 451.986,79.706" fill="#2563eb" stroke="#2563eb" stroke-width="1" stroke-linejoin="round" stroke-linecap="round" /><text x="449" y="151" font-family="Arial, Helvetica, sans-serif" font-size="21" fill="#2563eb" text-anchor="middle" font-weight="600">+30.12°</text><text x="449" y="175" font-family="Arial, Helvetica, sans-serif" font-size="13" fill="#009c91" text-anchor="middle" font-weight="600">TILT</text><polyline points="387.000,214.000 511.000,214.000" fill="none" stroke="#9cacc0" stroke-width="1" stroke-linejoin="round" stroke-linecap="round" stroke-dasharray="4 4" /><polyline points="449.000,186.000 449.000,244.000" fill="none" stroke="#d5dfed" stroke-width="1" stroke-linejoin="round" stroke-linecap="round" /><polyline points="449.000,214.000 500.017,203.936" fill="none" stroke="#009c91" stroke-width="2.5" stroke-linejoin="round" stroke-linecap="round" /><polygon points="500.017,203.936 490.413,201.753 491.961,209.602" fill="#009c91" stroke="#009c91" stroke-width="0.4" stroke-linejoin="round" stroke-linecap="round" /><polyline points="488.000,214.000 488.000,213.810 487.998,213.620 487.996,213.430 487.993,213.240 487.988,213.051 487.983,212.861 487.977,212.671 487.970,212.481 487.963,212.291 487.954,212.102 487.944,211.912 487.933,211.723 487.922,211.533 487.909,211.343 487.896,211.154 487.882,210.965 487.866,210.775 487.850,210.586 487.833,210.397 487.815,210.208 487.796,210.019 487.776,209.830 487.756,209.641 487.734,209.453 487.711,209.264 487.688,209.076 487.663,208.888 487.638,208.699 487.612,208.511 487.585,208.323 487.557,208.135 487.528,207.948 487.498,207.760 487.467,207.573 487.435,207.386 487.402,207.199 487.369,207.012 487.334,206.825 487.299,206.638 487.263,206.452" fill="none" stroke="#009c91" stroke-width="2" stroke-linejoin="round" stroke-linecap="round" /><polygon points="452.000,214.000 451.986,214.294 451.942,214.585 451.871,214.871 451.772,215.148 451.646,215.414 451.494,215.667 451.319,215.903 451.121,216.121 450.903,216.319 450.667,216.494 450.414,216.646 450.148,216.772 449.871,216.871 449.585,216.942 449.294,216.986 449.000,217.000 448.706,216.986 448.415,216.942 448.129,216.871 447.852,216.772 447.586,216.646 447.333,216.494 447.097,216.319 446.879,216.121 446.681,215.903 446.506,215.667 446.354,215.414 446.228,215.148 446.129,214.871 446.058,214.585 446.014,214.294 446.000,214.000 446.014,213.706 446.058,213.415 446.129,213.129 446.228,212.852 446.354,212.586 446.506,212.333 446.681,212.097 446.879,211.879 447.097,211.681 447.333,211.506 447.586,211.354 447.852,211.228 448.129,211.129 448.415,211.058 448.706,211.014 449.000,211.000 449.294,211.014 449.585,211.058 449.871,211.129 450.148,211.228 450.414,211.354 450.667,211.506 450.903,211.681 451.121,211.879 451.319,212.097 451.494,212.333 451.646,212.586 451.772,212.852 451.871,213.129 451.942,213.415 451.986,213.706" fill="#009c91" stroke="#009c91" stroke-width="1" stroke-linejoin="round" stroke-linecap="round" /><text x="449" y="271" font-family="Arial, Helvetica, sans-serif" font-size="21" fill="#009c91" text-anchor="middle" font-weight="600">-11.16°</text></svg>