<svg xmlns="http://www.w3.org/2000/svg" width="520" height="320" viewBox="0 0 520 320"><title>Parametric two-axis gimbal pose</title><rect width="520" height="320" fill="#ffffff" /><polyline points="10.135,233.094 216.484,295.894" fill="none" stroke="#e2e8f0" stroke-width="1" stroke-linejoin="round" stroke-linecap="round" /><polyline points="25.182,267.438 162.747,173.237" fill="none" stroke="#e2e8f0" stroke-width="1" stroke-linejoin="round" stroke-linecap="round" /><polyline points="48.826,206.600 255.174,269.400" fill="none" stroke="#e2e8f0" stroke-width="1" stroke-linejoin="round" stroke-linecap="round" /><polyline points="83.217,285.100 220.783,190.900" fill="none" stroke="#e2e8f0" stroke-width="1" stroke-linejoin="round" stroke-linecap="round" /><polyline points="87.516,180.106 293.865,242.906" fill="none" stroke="#e2e8f0" stroke-width="1" stroke-linejoin="round" stroke-linecap="round" /><polyline points="141.253,302.763 278.818,208.562" fill="none" stroke="#e2e8f0" stroke-width="1" stroke-linejoin="round" stroke-linecap="round" /><polygon points="170.349,192.899 151.901,192.079 151.901,170.014 170.349,170.834" fill="#9ba6b6" stroke="#24364b" stroke-width="0.55" stroke-linejoin="round" stroke-linecap="round" /><polygon points="151.901,192.079 133.457,192.917 133.457,170.852 151.901,170.014" fill="#9eabba" stroke="#24364b" stroke-width="0.55" stroke-linejoin="round" stroke-linecap="round" /><polygon points="188.091,195.347 170.349,192.899 170.349,170.834 188.091,173.282" fill="#97a2b1" stroke="#24364b" stroke-width="0.55" stroke-linejoin="round" stroke-linecap="round" /><polygon points="133.457,192.917 115.726,195.382 115.726,173.317 133.457,170.852" fill="#a2aebe" stroke="#24364b" stroke-width="0.55" stroke-linejoin="round" stroke-linecap="round" /><polygon points="204.447,199.328 188.091,195.347 188.091,173.282 204.447,177.263" fill="#929dac" stroke="#24364b" stroke-width="0.55" stroke-linejoin="round" stroke-linecap="round" /><polygon points="115.726,195.382 99.389,199.378 99.389,177.313 115.726,173.317" fill="#a5b1c2" stroke="#24364b" stroke-width="0.55" stroke-linejoin="round" stroke-linecap="round" /><polygon points="218.787,204.689 204.447,199.328 204.447,177.263 218.787,182.624" fill="#8e99a7" stroke="#24364b" stroke-width="0.55" stroke-linejoin="round" stroke-linecap="round" /><polygon points="99.389,199.378 85.073,204.753 85.073,182.688 99.389,177.313" fill="#a7b3c4" stroke="#24364b" stroke-width="0.55" stroke-linejoin="round" stroke-linecap="round" /><polygon points="230.560,211.224 218.787,204.689 218.787,182.624 230.560,189.159" fill="#8a94a2" stroke="#24364b" stroke-width="0.55" stroke-linejoin="round" stroke-linecap="round" /><polygon points="85.073,204.753 73.330,211.299 73.330,189.234 85.073,182.688" fill="#a8b5c6" stroke="#24364b" stroke-width="0.55" stroke-linejoin="round" stroke-linecap="round" /><polygon points="157.112,181.421 143.443,181.576 143.443,163.648 157.112,163.493" fill="#3e7bd8" stroke="#24364b" stroke-width="0.55" stroke-linejoin="round" stroke-linecap="round" /><polygon points="170.585,182.486 157.112,181.421 157.112,163.493 170.585,164.559" fill="#3d78d3" stroke="#24364b" stroke-width="0.55" stroke-linejoin="round" stroke-linecap="round" /><polygon points="143.443,181.576 130.103,182.945 130.103,165.017 143.443,163.648" fill="#407edd" stroke="#24364b" stroke-width="0.55" stroke-linejoin="round" stroke-linecap="round" /><polygon points="183.343,184.731 170.585,182.486 170.585,164.559 183.343,166.803" fill="#3b75cd" stroke="#24364b" stroke-width="0.55" stroke-linejoin="round" stroke-linecap="round" /><polygon points="130.103,182.945 117.604,185.476 117.604,167.548 130.103,165.017" fill="#4180e1" stroke="#24364b" stroke-width="0.55" stroke-linejoin="round" stroke-linecap="round" /><polygon points="194.897,188.069 183.343,184.731 183.343,166.803 194.897,170.141" fill="#3a72c8" stroke="#24364b" stroke-width="0.55" stroke-linejoin="round" stroke-linecap="round" /><polygon points="117.604,185.476 106.427,189.072 106.427,171.144 117.604,167.548" fill="#4281e3" stroke="#24364b" stroke-width="0.55" stroke-linejoin="round" stroke-linecap="round" /><polygon points="239.315,218.682 230.560,211.224 230.560,189.159 239.315,196.617" fill="#86909e" stroke="#24364b" stroke-width="0.55" stroke-linejoin="round" stroke-linecap="round" /><polygon points="73.330,211.299 64.609,218.766 64.609,196.701 73.330,189.234" fill="#a8b5c6" stroke="#24364b" stroke-width="0.55" stroke-linejoin="round" stroke-linecap="round" /><polygon points="204.803,192.372 194.897,188.069 194.897,170.141 204.803,174.444" fill="#386ec2" stroke="#24364b" stroke-width="0.55" stroke-linejoin="round" stroke-linecap="round" /><polygon points="167.471,162.718 226.137,183.607 226.137,167.058 167.471,146.170" fill="#798ca2" stroke="#24364b" stroke-width="0.55" stroke-linejoin="round" stroke-linecap="round" /><polygon points="106.427,189.072 97.001,193.594 97.001,175.666 106.427,171.144" fill="#4282e5" stroke="#24364b" stroke-width="0.55" stroke-linejoin="round" stroke-linecap="round" /><polygon points="171.206,165.147 198.094,174.721 209.057,168.304 182.168,158.730" fill="#617791" stroke="#24364b" stroke-width="0.55" stroke-linejoin="round" stroke-linecap="round" /><polygon points="212.679,197.475 204.803,192.372 204.803,174.444 212.679,179.547" fill="#366bbc" stroke="#24364b" stroke-width="0.55" stroke-linejoin="round" stroke-linecap="round" /><polygon points="244.714,226.777 239.315,218.682 239.315,196.617 244.714,204.712" fill="#838d9a" stroke="#24364b" stroke-width="0.55" stroke-linejoin="round" stroke-linecap="round" /><polygon points="64.609,218.766 59.248,226.865 59.248,204.800 64.609,196.701" fill="#a8b5c6" stroke="#24364b" stroke-width="0.55" stroke-linejoin="round" stroke-linecap="round" /><polygon points="97.001,193.594 89.689,198.868 89.689,180.940 97.001,175.666" fill="#4283e6" stroke="#24364b" stroke-width="0.55" stroke-linejoin="round" stroke-linecap="round" /><polygon points="218.224,203.181 212.679,197.475 212.679,179.547 218.224,185.253" fill="#3568b7" stroke="#24364b" stroke-width="0.55" stroke-linejoin="round" stroke-linecap="round" /><polygon points="89.689,198.868 84.772,204.693 84.772,186.765 89.689,180.940" fill="#4282e5" stroke="#24364b" stroke-width="0.55" stroke-linejoin="round" stroke-linecap="round" /><polygon points="171.206,165.147 182.168,158.730 182.168,66.333 171.206,72.749" fill="#738cab" stroke="#24364b" stroke-width="0.55" stroke-linejoin="round" stroke-linecap="round" /><polygon points="246.550,235.197 244.714,226.777 244.714,204.712 246.550,213.132" fill="#808a96" stroke="#24364b" stroke-width="0.55" stroke-linejoin="round" stroke-linecap="round" /><polygon points="59.248,226.865 57.450,235.287 57.450,213.222 59.248,204.800" fill="#a7b3c4" stroke="#24364b" stroke-width="0.55" stroke-linejoin="round" stroke-linecap="round" /><polygon points="182.168,158.730 209.057,168.304 209.057,75.907 182.168,66.333" fill="#69819d" stroke="#24364b" stroke-width="0.55" stroke-linejoin="round" stroke-linecap="round" /><polygon points="73.330,211.299 64.609,218.766 59.248,226.865 57.450,235.287 59.286,243.707 64.685,251.801 73.440,259.260 85.213,265.795 99.553,271.156 115.909,275.137 133.651,277.584 152.099,278.405 170.543,277.567 188.274,275.102 204.611,271.106 218.927,265.731 230.670,259.185 239.391,251.718 244.752,243.618 246.550,235.197 244.714,226.777 239.315,218.682 230.560,211.224 218.787,204.689 204.447,199.328 188.091,195.347 170.349,192.899 151.901,192.079 133.457,192.917 115.726,195.382 99.389,199.378 85.073,204.753" fill="#7a8490" stroke="#24364b" stroke-width="0.55" stroke-linejoin="round" stroke-linecap="round" /><polygon points="77.863,215.165 167.471,162.718 167.471,146.170 77.863,198.617" fill="#8499b1" stroke="#24364b" stroke-width="0.55" stroke-linejoin="round" stroke-linecap="round" /><polygon points="221.223,209.271 218.224,203.181 218.224,185.253 221.223,191.343" fill="#3365b2" stroke="#24364b" stroke-width="0.55" stroke-linejoin="round" stroke-linecap="round" /><polygon points="84.772,204.693 82.438,210.843 82.438,192.915 84.772,186.765" fill="#4281e3" stroke="#24364b" stroke-width="0.55" stroke-linejoin="round" stroke-linecap="round" /><polygon points="171.206,165.147 171.206,72.749 198.094,82.323 198.094,174.721" fill="#7c98b9" stroke="#24364b" stroke-width="0.55" stroke-linejoin="round" stroke-linecap="round" /><polygon points="73.330,189.234 64.609,196.701 59.248,204.800 57.450,213.222 59.286,221.642 64.685,229.736 73.440,237.195 85.213,243.730 99.553,249.091 115.909,253.072 133.651,255.520 152.099,256.340 170.543,255.502 188.274,253.037 204.611,249.041 218.927,243.666 230.670,237.120 239.391,229.653 244.752,221.553 246.550,213.132 244.714,204.712 239.315,196.617 230.560,189.159 218.787,182.624 204.447,177.263 188.091,173.282 170.349,170.834 151.901,170.014 133.457,170.852 115.726,173.317 99.389,177.313 85.073,182.688" fill="#b2c0d2" stroke="#24364b" stroke-width="0.55" stroke-linejoin="round" stroke-linecap="round" /><polygon points="97.001,193.594 89.689,198.868 84.772,204.693 82.438,210.843 82.777,217.083 85.776,223.173 91.321,228.879 99.197,233.982 109.103,238.285 120.657,241.623 133.415,243.867 146.888,244.933 160.557,244.778 173.897,243.409 186.396,240.878 197.573,237.282 206.999,232.760 214.311,227.486 219.228,221.661 221.562,215.511 221.223,209.271 218.224,203.181 212.679,197.475 204.803,192.372 194.897,188.069 183.343,184.731 170.585,182.486 157.112,181.421 143.443,181.576 130.103,182.945 117.604,185.476 106.427,189.072" fill="#305fa7" stroke="#24364b" stroke-width="0.55" stroke-linejoin="round" stroke-linecap="round" /><polygon points="198.094,174.721 198.094,82.323 209.057,75.907 209.057,168.304" fill="#87a5c9" stroke="#24364b" stroke-width="0.55" stroke-linejoin="round" stroke-linecap="round" /><polygon points="174.651,79.365 172.599,75.813 184.992,68.559 187.044,72.111" fill="#0f857a" stroke="#24364b" stroke-width="0.55" stroke-linejoin="round" stroke-linecap="round" /><polygon points="177.151,82.570 174.651,79.365 187.044,72.111 189.544,75.317" fill="#0f887d" stroke="#24364b" stroke-width="0.55" stroke-linejoin="round" stroke-linecap="round" /><polygon points="172.599,75.813 171.074,72.051 183.467,64.798 184.992,68.559" fill="#0e8278" stroke="#24364b" stroke-width="0.55" stroke-linejoin="round" stroke-linecap="round" /><polygon points="244.752,243.618 246.550,235.197 246.550,213.132 244.752,221.553" fill="#7e8794" stroke="#24364b" stroke-width="0.55" stroke-linejoin="round" stroke-linecap="round" /><polygon points="57.450,235.287 59.286,243.707 59.286,221.642 57.450,213.222" fill="#a5b1c2" stroke="#24364b" stroke-width="0.55" stroke-linejoin="round" stroke-linecap="round" /><polygon points="180.004,85.306 177.151,82.570 189.544,75.317 192.396,78.053" fill="#0f8c81" stroke="#24364b" stroke-width="0.55" stroke-linejoin="round" stroke-linecap="round" /><polygon points="221.562,215.511 221.223,209.271 221.223,191.343 221.562,197.583" fill="#3263ae" stroke="#24364b" stroke-width="0.55" stroke-linejoin="round" stroke-linecap="round" /><polygon points="171.074,72.051 170.135,68.224 182.528,60.971 183.467,64.798" fill="#0e8076" stroke="#24364b" stroke-width="0.55" stroke-linejoin="round" stroke-linecap="round" /><polygon points="183.099,87.468 180.004,85.306 192.396,78.053 195.492,80.214" fill="#109085" stroke="#24364b" stroke-width="0.55" stroke-linejoin="round" stroke-linecap="round" /><polygon points="170.135,68.224 169.818,64.479 182.211,57.226 182.528,60.971" fill="#0e7f74" stroke="#24364b" stroke-width="0.55" stroke-linejoin="round" stroke-linecap="round" /><polygon points="82.438,210.843 82.777,217.083 82.777,199.155 82.438,192.915" fill="#4180e1" stroke="#24364b" stroke-width="0.55" stroke-linejoin="round" stroke-linecap="round" /><polygon points="186.318,88.972 183.099,87.468 195.492,80.214 198.711,81.718" fill="#109589" stroke="#24364b" stroke-width="0.55" stroke-linejoin="round" stroke-linecap="round" /><polygon points="169.818,64.479 170.135,60.960 182.528,53.707 182.211,57.226" fill="#0e7e74" stroke="#24364b" stroke-width="0.55" stroke-linejoin="round" stroke-linecap="round" /><polygon points="77.863,215.165 136.529,236.054 226.137,183.607 167.471,162.718" fill="#708296" stroke="#24364b" stroke-width="0.55" stroke-linejoin="round" stroke-linecap="round" /><polygon points="189.537,89.760 186.318,88.972 198.711,81.718 201.929,82.507" fill="#11998d" stroke="#24364b" stroke-width="0.55" stroke-linejoin="round" stroke-linecap="round" /><polygon points="170.135,60.960 171.074,57.802 183.467,50.549 182.528,53.707" fill="#0e7f74" stroke="#24364b" stroke-width="0.55" stroke-linejoin="round" stroke-linecap="round" /><polygon points="97.001,175.666 89.689,180.940 84.772,186.765 82.438,192.915 82.777,199.155 85.776,205.245 91.321,210.951 99.197,216.054 109.103,220.357 120.657,223.695 133.415,225.940 146.888,227.005 160.557,226.850 173.897,225.481 186.396,222.950 197.573,219.354 206.999,214.832 214.311,209.558 219.228,203.733 221.562,197.583 221.223,191.343 218.224,185.253 212.679,179.547 204.803,174.444 194.897,170.141 183.343,166.803 170.585,164.559 157.112,163.493 143.443,163.648 130.103,165.017 117.604,167.548 106.427,171.144" fill="#468bf4" stroke="#24364b" stroke-width="0.55" stroke-linejoin="round" stroke-linecap="round" /><polygon points="215.210,68.976 214.893,72.495 213.954,75.653 212.430,78.329 210.378,80.420 207.877,81.845 205.025,82.549 201.929,82.507 198.711,81.718 195.492,80.214 192.396,78.053 189.544,75.317 187.044,72.111 184.992,68.559 183.467,64.798 182.528,60.971 182.211,57.226 182.528,53.707 183.467,50.549 184.992,47.873 187.044,45.782 189.544,44.357 192.396,43.653 195.492,43.695 198.711,44.484 201.929,45.988 205.025,48.149 207.877,50.885 210.378,54.091 212.430,57.643 213.954,61.404 214.893,65.231" fill="#14b6a7" stroke="#24364b" stroke-width="0.55" stroke-linejoin="round" stroke-linecap="round" /><polygon points="192.632,89.803 189.537,89.760 201.929,82.507 205.025,82.549" fill="#119d91" stroke="#24364b" stroke-width="0.55" stroke-linejoin="round" stroke-linecap="round" /><polygon points="171.074,57.802 172.599,55.126 184.992,47.873 183.467,50.549" fill="#0e8076" stroke="#24364b" stroke-width="0.55" stroke-linejoin="round" stroke-linecap="round" /><polygon points="195.485,89.098 192.632,89.803 205.025,82.549 207.877,81.845" fill="#12a194" stroke="#24364b" stroke-width="0.55" stroke-linejoin="round" stroke-linecap="round" /><polygon points="172.599,55.126 174.651,53.036 187.044,45.782 184.992,47.873" fill="#0e8278" stroke="#24364b" stroke-width="0.55" stroke-linejoin="round" stroke-linecap="round" /><polygon points="219.228,221.661 221.562,215.511 221.562,197.583 219.228,203.733" fill="#3262ac" stroke="#24364b" stroke-width="0.55" stroke-linejoin="round" stroke-linecap="round" /><polygon points="77.863,198.617 167.471,146.170 226.137,167.058 136.529,219.505" fill="#a6c1df" stroke="#24364b" stroke-width="0.55" stroke-linejoin="round" stroke-linecap="round" /><polygon points="171.206,72.749 182.168,66.333 209.057,75.907 198.094,82.323" fill="#90b1d7" stroke="#24364b" stroke-width="0.55" stroke-linejoin="round" stroke-linecap="round" /><polygon points="197.985,87.673 195.485,89.098 207.877,81.845 210.378,80.420" fill="#12a597" stroke="#24364b" stroke-width="0.55" stroke-linejoin="round" stroke-linecap="round" /><polygon points="174.651,53.036 177.151,51.611 189.544,44.357 187.044,45.782" fill="#0f857a" stroke="#24364b" stroke-width="0.55" stroke-linejoin="round" stroke-linecap="round" /><polygon points="82.777,217.083 85.776,223.173 85.776,205.245 82.777,199.155" fill="#407edd" stroke="#24364b" stroke-width="0.55" stroke-linejoin="round" stroke-linecap="round" /><polygon points="239.391,251.718 244.752,243.618 244.752,221.553 239.391,229.653" fill="#7d8692" stroke="#24364b" stroke-width="0.55" stroke-linejoin="round" stroke-linecap="round" /><polygon points="59.286,243.707 64.685,251.801 64.685,229.736 59.286,221.642" fill="#a2aebe" stroke="#24364b" stroke-width="0.55" stroke-linejoin="round" stroke-linecap="round" /><polygon points="196.853,70.516 196.724,71.950 196.341,73.236 195.720,74.327 194.884,75.178 193.866,75.759 192.704,76.046 191.442,76.029 190.131,75.707 188.820,75.095 187.559,74.214 186.396,73.099 185.378,71.793 184.542,70.346 183.921,68.814 183.538,67.255 183.409,65.729 183.538,64.295 183.921,63.009 184.542,61.918 185.378,61.067 186.396,60.486 187.559,60.199 188.820,60.216 190.131,60.538 191.442,61.150 192.704,62.031 193.866,63.146 194.884,64.452 195.720,65.899 196.341,67.431 196.724,68.990" fill="#57708a" stroke="#24364b" stroke-width="0.55" stroke-linejoin="round" stroke-linecap="round" /><polygon points="200.037,85.582 197.985,87.673 210.378,80.420 212.430,78.329" fill="#12a79a" stroke="#24364b" stroke-width="0.55" stroke-linejoin="round" stroke-linecap="round" /><polygon points="177.151,51.611 180.004,50.906 192.396,43.653 189.544,44.357" fill="#0f887d" stroke="#24364b" stroke-width="0.55" stroke-linejoin="round" stroke-linecap="round" /><polygon points="201.562,82.907 200.037,85.582 212.430,78.329 213.954,75.653" fill="#13aa9c" stroke="#24364b" stroke-width="0.55" stroke-linejoin="round" stroke-linecap="round" /><polygon points="180.004,50.906 183.099,50.949 195.492,43.695 192.396,43.653" fill="#0f8c81" stroke="#24364b" stroke-width="0.55" stroke-linejoin="round" stroke-linecap="round" /><polygon points="202.818,76.229 202.501,79.748 201.562,82.907 200.037,85.582 197.985,87.673 195.485,89.098 192.632,89.803 189.537,89.760 186.318,88.972 183.099,87.468 180.004,85.306 177.151,82.570 174.651,79.365 172.599,75.813 171.074,72.051 170.135,68.224 169.818,64.479 170.135,60.960 171.074,57.802 172.599,55.126 174.651,53.036 177.151,51.611 180.004,50.906 183.099,50.949 186.318,51.737 189.537,53.241 192.632,55.402 195.485,58.138 197.985,61.344 200.037,64.896 201.562,68.658 202.501,72.484" fill="#0e7d72" stroke="#24364b" stroke-width="0.55" stroke-linejoin="round" stroke-linecap="round" /><polygon points="202.501,79.748 201.562,82.907 213.954,75.653 214.893,72.495" fill="#13ab9d" stroke="#24364b" stroke-width="0.55" stroke-linejoin="round" stroke-linecap="round" /><polygon points="183.099,50.949 186.318,51.737 198.711,44.484 195.492,43.695" fill="#109085" stroke="#24364b" stroke-width="0.55" stroke-linejoin="round" stroke-linecap="round" /><polygon points="214.311,227.486 219.228,221.661 219.228,203.733 214.311,209.558" fill="#3161aa" stroke="#24364b" stroke-width="0.55" stroke-linejoin="round" stroke-linecap="round" /><polygon points="202.818,76.229 202.501,79.748 214.893,72.495 215.210,68.976" fill="#13ab9d" stroke="#24364b" stroke-width="0.55" stroke-linejoin="round" stroke-linecap="round" /><polygon points="186.318,51.737 189.537,53.241 201.929,45.988 198.711,44.484" fill="#109589" stroke="#24364b" stroke-width="0.55" stroke-linejoin="round" stroke-linecap="round" /><polygon points="129.213,51.034 131.698,53.924 153.029,27.869 150.544,24.979" fill="#506479" stroke="#24364b" stroke-width="0.55" stroke-linejoin="round" stroke-linecap="round" /><polygon points="202.501,72.484 202.818,76.229 215.210,68.976 214.893,65.231" fill="#13ab9d" stroke="#24364b" stroke-width="0.55" stroke-linejoin="round" stroke-linecap="round" /><polygon points="189.537,53.241 192.632,55.402 205.025,48.149 201.929,45.988" fill="#11998d" stroke="#24364b" stroke-width="0.55" stroke-linejoin="round" stroke-linecap="round" /><polygon points="85.776,223.173 91.321,228.879 91.321,210.951 85.776,205.245" fill="#3e7bd8" stroke="#24364b" stroke-width="0.55" stroke-linejoin="round" stroke-linecap="round" /><polygon points="201.562,68.658 202.501,72.484 214.893,65.231 213.954,61.404" fill="#13aa9c" stroke="#24364b" stroke-width="0.55" stroke-linejoin="round" stroke-linecap="round" /><polygon points="192.632,55.402 195.485,58.138 207.877,50.885 205.025,48.149" fill="#119d91" stroke="#24364b" stroke-width="0.55" stroke-linejoin="round" stroke-linecap="round" /><polygon points="200.037,64.896 201.562,68.658 213.954,61.404 212.430,57.643" fill="#12a79a" stroke="#24364b" stroke-width="0.55" stroke-linejoin="round" stroke-linecap="round" /><polygon points="195.485,58.138 197.985,61.344 210.378,54.091 207.877,50.885" fill="#12a194" stroke="#24364b" stroke-width="0.55" stroke-linejoin="round" stroke-linecap="round" /><polygon points="197.985,61.344 200.037,64.896 212.430,57.643 210.378,54.091" fill="#12a597" stroke="#24364b" stroke-width="0.55" stroke-linejoin="round" stroke-linecap="round" /><polygon points="136.529,236.054 136.529,219.505 226.137,167.058 226.137,183.607" fill="#9bb4d0" stroke="#24364b" stroke-width="0.55" stroke-linejoin="round" stroke-linecap="round" /><polygon points="132.042,54.454 199.640,133.079 227.370,99.208 159.773,20.583" fill="#b5bac1" stroke="#24364b" stroke-width="0.55" stroke-linejoin="round" stroke-linecap="round" /><polygon points="230.670,259.185 239.391,251.718 239.391,229.653 230.670,237.120" fill="#7c8692" stroke="#24364b" stroke-width="0.55" stroke-linejoin="round" stroke-linecap="round" /><polygon points="64.685,251.801 73.440,259.260 73.440,237.195 64.685,229.736" fill="#9eabba" stroke="#24364b" stroke-width="0.55" stroke-linejoin="round" stroke-linecap="round" /><polygon points="206.999,232.760 214.311,227.486 214.311,209.558 206.999,214.832" fill="#3160a9" stroke="#24364b" stroke-width="0.55" stroke-linejoin="round" stroke-linecap="round" /><polygon points="85.362,76.699 87.847,79.590 131.698,53.924 129.213,51.034" fill="#495c70" stroke="#24364b" stroke-width="0.55" stroke-linejoin="round" stroke-linecap="round" /><polygon points="91.321,228.879 99.197,233.982 99.197,216.054 91.321,210.951" fill="#3d78d3" stroke="#24364b" stroke-width="0.55" stroke-linejoin="round" stroke-linecap="round" /><polygon points="79.612,85.142 147.210,163.766 199.640,133.079 132.042,54.454" fill="#a7acb3" stroke="#24364b" stroke-width="0.55" stroke-linejoin="round" stroke-linecap="round" /><polygon points="197.573,237.282 206.999,232.760 206.999,214.832 197.573,219.354" fill="#3161aa" stroke="#24364b" stroke-width="0.55" stroke-linejoin="round" stroke-linecap="round" /><polygon points="218.927,265.731 230.670,259.185 230.670,237.120 218.927,243.666" fill="#7d8692" stroke="#24364b" stroke-width="0.55" stroke-linejoin="round" stroke-linecap="round" /><polygon points="73.440,259.260 85.213,265.795 85.213,243.730 73.440,237.195" fill="#9ba6b6" stroke="#24364b" stroke-width="0.55" stroke-linejoin="round" stroke-linecap="round" /><polygon points="99.197,233.982 109.103,238.285 109.103,220.357 99.197,216.054" fill="#3b75cd" stroke="#24364b" stroke-width="0.55" stroke-linejoin="round" stroke-linecap="round" /><polygon points="189.448,134.313 192.956,131.197 208.861,149.697 205.353,152.813" fill="#1d2f44" stroke="#24364b" stroke-width="0.55" stroke-linejoin="round" stroke-linecap="round" /><polygon points="185.838,137.297 189.448,134.313 205.353,152.813 201.744,155.797" fill="#1e3045" stroke="#24364b" stroke-width="0.55" stroke-linejoin="round" stroke-linecap="round" /><polygon points="192.956,131.197 196.226,128.071 212.132,146.571 208.861,149.697" fill="#1d2e42" stroke="#24364b" stroke-width="0.55" stroke-linejoin="round" stroke-linecap="round" /><polygon points="182.265,140.037 185.838,137.297 201.744,155.797 198.171,158.537" fill="#1f3147" stroke="#24364b" stroke-width="0.55" stroke-linejoin="round" stroke-linecap="round" /><polygon points="85.362,76.699 129.213,51.034 150.544,24.979 106.693,50.644" fill="#576d84" stroke="#24364b" stroke-width="0.55" stroke-linejoin="round" stroke-linecap="round" /><polygon points="79.612,85.142 132.042,54.454 159.773,20.583 107.342,51.270" fill="#c5cbd3" stroke="#24364b" stroke-width="0.55" stroke-linejoin="round" stroke-linecap="round" /><polygon points="196.226,128.071 199.135,125.053 215.040,143.553 212.132,146.571" fill="#1c2d41" stroke="#24364b" stroke-width="0.55" stroke-linejoin="round" stroke-linecap="round" /><polygon points="87.847,79.590 109.178,53.535 153.029,27.869 131.698,53.924" fill="#66809b" stroke="#24364b" stroke-width="0.55" stroke-linejoin="round" stroke-linecap="round" /><polygon points="178.866,142.425 182.265,140.037 198.171,158.537 194.772,160.925" fill="#203349" stroke="#24364b" stroke-width="0.55" stroke-linejoin="round" stroke-linecap="round" /><polygon points="186.396,240.878 197.573,237.282 197.573,219.354 186.396,222.950" fill="#3262ac" stroke="#24364b" stroke-width="0.55" stroke-linejoin="round" stroke-linecap="round" /><polygon points="94.943,209.782 121.832,219.356 132.794,212.940 105.906,203.366" fill="#617791" stroke="#24364b" stroke-width="0.55" stroke-linejoin="round" stroke-linecap="round" /><polygon points="199.135,125.053 201.569,122.261 217.474,140.761 215.040,143.553" fill="#1c2d40" stroke="#24364b" stroke-width="0.55" stroke-linejoin="round" stroke-linecap="round" /><polygon points="109.103,238.285 120.657,241.623 120.657,223.695 109.103,220.357" fill="#3a72c8" stroke="#24364b" stroke-width="0.55" stroke-linejoin="round" stroke-linecap="round" /><polygon points="175.772,144.371 178.866,142.425 194.772,160.925 191.677,162.871" fill="#21344c" stroke="#24364b" stroke-width="0.55" stroke-linejoin="round" stroke-linecap="round" /><polygon points="109.116,116.429 108.280,114.982 184.542,70.346 185.378,71.793" fill="#405265" stroke="#24364b" stroke-width="0.55" stroke-linejoin="round" stroke-linecap="round" /><polygon points="110.134,117.735 109.116,116.429 185.378,71.793 186.396,73.099" fill="#415467" stroke="#24364b" stroke-width="0.55" stroke-linejoin="round" stroke-linecap="round" /><polygon points="108.280,114.982 107.659,113.450 183.921,68.814 184.542,70.346" fill="#3e5063" stroke="#24364b" stroke-width="0.55" stroke-linejoin="round" stroke-linecap="round" /><polygon points="111.296,118.850 110.134,117.735 186.396,73.099 187.559,74.214" fill="#43576a" stroke="#24364b" stroke-width="0.55" stroke-linejoin="round" stroke-linecap="round" /><polygon points="107.659,113.450 107.276,111.890 183.538,67.255 183.921,68.814" fill="#3d4f61" stroke="#24364b" stroke-width="0.55" stroke-linejoin="round" stroke-linecap="round" /><polygon points="112.558,119.730 111.296,118.850 187.559,74.214 188.820,75.095" fill="#45596d" stroke="#24364b" stroke-width="0.55" stroke-linejoin="round" stroke-linecap="round" /><polygon points="107.276,111.890 107.147,110.365 183.409,65.729 183.538,67.255" fill="#3d4e60" stroke="#24364b" stroke-width="0.55" stroke-linejoin="round" stroke-linecap="round" /><polygon points="113.869,120.343 112.558,119.730 188.820,75.095 190.131,75.707" fill="#475c71" stroke="#24364b" stroke-width="0.55" stroke-linejoin="round" stroke-linecap="round" /><polygon points="107.147,110.365 107.276,108.931 183.538,64.295 183.409,65.729" fill="#3d4e60" stroke="#24364b" stroke-width="0.55" stroke-linejoin="round" stroke-linecap="round" /><polygon points="204.611,271.106 218.927,265.731 218.927,243.666 204.611,249.041" fill="#7e8794" stroke="#24364b" stroke-width="0.55" stroke-linejoin="round" stroke-linecap="round" /><polygon points="85.213,265.795 99.553,271.156 99.553,249.091 85.213,243.730" fill="#97a2b1" stroke="#24364b" stroke-width="0.55" stroke-linejoin="round" stroke-linecap="round" /><polygon points="115.180,120.664 113.869,120.343 190.131,75.707 191.442,76.029" fill="#495f74" stroke="#24364b" stroke-width="0.55" stroke-linejoin="round" stroke-linecap="round" /><polygon points="107.276,108.931 107.659,107.644 183.921,63.009 183.538,64.295" fill="#3d4e60" stroke="#24364b" stroke-width="0.55" stroke-linejoin="round" stroke-linecap="round" /><polygon points="204.901,152.210 207.549,149.858 208.841,151.361 206.193,153.713" fill="#086377" stroke="#24364b" stroke-width="0.55" stroke-linejoin="round" stroke-linecap="round" /><polygon points="202.176,154.462 204.901,152.210 206.193,153.713 203.469,155.966" fill="#09667a" stroke="#24364b" stroke-width="0.55" stroke-linejoin="round" stroke-linecap="round" /><polygon points="201.569,122.261 203.435,119.801 219.340,138.301 217.474,140.761" fill="#1c2d40" stroke="#24364b" stroke-width="0.55" stroke-linejoin="round" stroke-linecap="round" /><polygon points="173.101,145.799 175.772,144.371 191.677,162.871 189.006,164.299" fill="#22364e" stroke="#24364b" stroke-width="0.55" stroke-linejoin="round" stroke-linecap="round" /><polygon points="207.549,149.858 210.018,147.498 211.310,149.001 208.841,151.361" fill="#086175" stroke="#24364b" stroke-width="0.55" stroke-linejoin="round" stroke-linecap="round" /><polygon points="199.479,156.530 202.176,154.462 203.469,155.966 200.772,158.033" fill="#09697e" stroke="#24364b" stroke-width="0.55" stroke-linejoin="round" stroke-linecap="round" /><polygon points="116.441,120.682 115.180,120.664 191.442,76.029 192.704,76.046" fill="#4c6177" stroke="#24364b" stroke-width="0.55" stroke-linejoin="round" stroke-linecap="round" /><polygon points="107.659,107.644 108.280,106.554 184.542,61.918 183.921,63.009" fill="#3d4f61" stroke="#24364b" stroke-width="0.55" stroke-linejoin="round" stroke-linecap="round" /><polygon points="173.897,243.409 186.396,240.878 186.396,222.950 173.897,225.481" fill="#3263ae" stroke="#24364b" stroke-width="0.55" stroke-linejoin="round" stroke-linecap="round" /><polygon points="210.018,147.498 212.213,145.220 213.505,146.723 211.310,149.001" fill="#085f73" stroke="#24364b" stroke-width="0.55" stroke-linejoin="round" stroke-linecap="round" /><polygon points="117.604,120.395 116.441,120.682 192.704,76.046 193.866,75.759" fill="#4d647a" stroke="#24364b" stroke-width="0.55" stroke-linejoin="round" stroke-linecap="round" /><polygon points="196.914,158.333 199.479,156.530 200.772,158.033 198.206,159.836" fill="#096c81" stroke="#24364b" stroke-width="0.55" stroke-linejoin="round" stroke-linecap="round" /><polygon points="108.280,106.554 109.116,105.703 185.378,61.067 184.542,61.918" fill="#3e5063" stroke="#24364b" stroke-width="0.55" stroke-linejoin="round" stroke-linecap="round" /><polygon points="120.657,241.623 133.415,243.867 133.415,225.940 120.657,223.695" fill="#386ec2" stroke="#24364b" stroke-width="0.55" stroke-linejoin="round" stroke-linecap="round" /><polygon points="77.863,215.165 77.863,198.617 136.529,219.505 136.529,236.054" fill="#8fa6bf" stroke="#24364b" stroke-width="0.55" stroke-linejoin="round" stroke-linecap="round" /><polygon points="118.622,119.814 117.604,120.395 193.866,75.759 194.884,75.178" fill="#4f667d" stroke="#24364b" stroke-width="0.55" stroke-linejoin="round" stroke-linecap="round" /><polygon points="109.116,105.703 110.134,105.122 186.396,60.486 185.378,61.067" fill="#405265" stroke="#24364b" stroke-width="0.55" stroke-linejoin="round" stroke-linecap="round" /><polygon points="212.213,145.220 214.050,143.112 215.343,144.615 213.505,146.723" fill="#085e72" stroke="#24364b" stroke-width="0.55" stroke-linejoin="round" stroke-linecap="round" /><polygon points="203.435,119.801 204.661,117.768 220.567,136.268 219.340,138.301" fill="#1c2d40" stroke="#24364b" stroke-width="0.55" stroke-linejoin="round" stroke-linecap="round" /><polygon points="194.578,159.802 196.914,158.333 198.206,159.836 195.870,161.305" fill="#096f85" stroke="#24364b" stroke-width="0.55" stroke-linejoin="round" stroke-linecap="round" /><polygon points="170.956,146.656 173.101,145.799 189.006,164.299 186.862,165.156" fill="#233750" stroke="#24364b" stroke-width="0.55" stroke-linejoin="round" stroke-linecap="round" /><polygon points="119.458,118.962 118.622,119.814 194.884,75.178 195.720,74.327" fill="#50687f" stroke="#24364b" stroke-width="0.55" stroke-linejoin="round" stroke-linecap="round" /><polygon points="110.134,105.122 111.296,104.835 187.559,60.199 186.396,60.486" fill="#415467" stroke="#24364b" stroke-width="0.55" stroke-linejoin="round" stroke-linecap="round" /><polygon points="160.557,244.778 173.897,243.409 173.897,225.481 160.557,226.850" fill="#3365b2" stroke="#24364b" stroke-width="0.55" stroke-linejoin="round" stroke-linecap="round" /><polygon points="120.079,117.872 119.458,118.962 195.720,74.327 196.341,73.236" fill="#516980" stroke="#24364b" stroke-width="0.55" stroke-linejoin="round" stroke-linecap="round" /><polygon points="111.296,104.835 112.558,104.852 188.820,60.216 187.559,60.199" fill="#43576a" stroke="#24364b" stroke-width="0.55" stroke-linejoin="round" stroke-linecap="round" /><polygon points="133.415,243.867 146.888,244.933 146.888,227.005 133.415,225.940" fill="#366bbc" stroke="#24364b" stroke-width="0.55" stroke-linejoin="round" stroke-linecap="round" /><polygon points="214.050,143.112 215.459,141.255 216.751,142.758 215.343,144.615" fill="#085e71" stroke="#24364b" stroke-width="0.55" stroke-linejoin="round" stroke-linecap="round" /><polygon points="192.562,160.880 194.578,159.802 195.870,161.305 193.854,162.383" fill="#0a7289" stroke="#24364b" stroke-width="0.55" stroke-linejoin="round" stroke-linecap="round" /><polygon points="120.462,116.586 120.079,117.872 196.341,73.236 196.724,71.950" fill="#526a81" stroke="#24364b" stroke-width="0.55" stroke-linejoin="round" stroke-linecap="round" /><polygon points="146.888,244.933 160.557,244.778 160.557,226.850 146.888,227.005" fill="#3568b7" stroke="#24364b" stroke-width="0.55" stroke-linejoin="round" stroke-linecap="round" /><polygon points="112.558,104.852 113.869,105.173 190.131,60.538 188.820,60.216" fill="#45596d" stroke="#24364b" stroke-width="0.55" stroke-linejoin="round" stroke-linecap="round" /><polygon points="120.591,115.152 120.462,116.586 196.724,71.950 196.853,70.516" fill="#526a82" stroke="#24364b" stroke-width="0.55" stroke-linejoin="round" stroke-linecap="round" /><polygon points="113.869,105.173 115.180,105.786 191.442,61.150 190.131,60.538" fill="#475c71" stroke="#24364b" stroke-width="0.55" stroke-linejoin="round" stroke-linecap="round" /><polygon points="205.502,152.802 206.972,151.496 207.470,152.074 205.999,153.380" fill="#112e4c" stroke="#24364b" stroke-width="0.55" stroke-linejoin="round" stroke-linecap="round" /><polygon points="203.988,154.054 205.502,152.802 205.999,153.380 204.485,154.632" fill="#112f4e" stroke="#24364b" stroke-width="0.55" stroke-linejoin="round" stroke-linecap="round" /><polygon points="204.661,117.768 205.201,116.239 221.107,134.739 220.567,136.268" fill="#1c2d41" stroke="#24364b" stroke-width="0.55" stroke-linejoin="round" stroke-linecap="round" /><polygon points="120.462,113.626 120.591,115.152 196.853,70.516 196.724,68.990" fill="#526a81" stroke="#24364b" stroke-width="0.55" stroke-linejoin="round" stroke-linecap="round" /><polygon points="115.180,105.786 116.441,106.667 192.704,62.031 191.442,61.150" fill="#495f74" stroke="#24364b" stroke-width="0.55" stroke-linejoin="round" stroke-linecap="round" /><polygon points="188.274,275.102 204.611,271.106 204.611,249.041 188.274,253.037" fill="#808a96" stroke="#24364b" stroke-width="0.55" stroke-linejoin="round" stroke-linecap="round" /><polygon points="99.553,271.156 115.909,275.137 115.909,253.072 99.553,249.091" fill="#929dac" stroke="#24364b" stroke-width="0.55" stroke-linejoin="round" stroke-linecap="round" /><polygon points="206.972,151.496 208.344,150.184 208.841,150.763 207.470,152.074" fill="#112d4a" stroke="#24364b" stroke-width="0.55" stroke-linejoin="round" stroke-linecap="round" /><polygon points="202.489,155.202 203.988,154.054 204.485,154.632 202.986,155.780" fill="#123150" stroke="#24364b" stroke-width="0.55" stroke-linejoin="round" stroke-linecap="round" /><polygon points="169.420,146.907 170.956,146.656 186.862,165.156 185.326,165.407" fill="#233952" stroke="#24364b" stroke-width="0.55" stroke-linejoin="round" stroke-linecap="round" /><polygon points="120.079,112.067 120.462,113.626 196.724,68.990 196.341,67.431" fill="#516980" stroke="#24364b" stroke-width="0.55" stroke-linejoin="round" stroke-linecap="round" /><polygon points="116.441,106.667 117.604,107.781 193.866,63.146 192.704,62.031" fill="#4c6177" stroke="#24364b" stroke-width="0.55" stroke-linejoin="round" stroke-linecap="round" /><polygon points="119.458,110.534 120.079,112.067 196.341,67.431 195.720,65.899" fill="#50687f" stroke="#24364b" stroke-width="0.55" stroke-linejoin="round" stroke-linecap="round" /><polygon points="215.459,141.255 216.385,139.721 217.677,141.224 216.751,142.758" fill="#085e72" stroke="#24364b" stroke-width="0.55" stroke-linejoin="round" stroke-linecap="round" /><polygon points="117.604,107.781 118.622,109.087 194.884,64.452 193.866,63.146" fill="#4d647a" stroke="#24364b" stroke-width="0.55" stroke-linejoin="round" stroke-linecap="round" /><polygon points="208.344,150.184 209.564,148.919 210.061,149.497 208.841,150.763" fill="#102c49" stroke="#24364b" stroke-width="0.55" stroke-linejoin="round" stroke-linecap="round" /><polygon points="118.622,109.087 119.458,110.534 195.720,65.899 194.884,64.452" fill="#4f667d" stroke="#24364b" stroke-width="0.55" stroke-linejoin="round" stroke-linecap="round" /><polygon points="201.064,156.204 202.489,155.202 202.986,155.780 201.561,156.782" fill="#123253" stroke="#24364b" stroke-width="0.55" stroke-linejoin="round" stroke-linecap="round" /><polygon points="190.943,161.526 192.562,160.880 193.854,162.383 192.235,163.029" fill="#0a758d" stroke="#24364b" stroke-width="0.55" stroke-linejoin="round" stroke-linecap="round" /><polygon points="106.693,50.644 150.544,24.979 153.029,27.869 109.178,53.535" fill="#6d89a6" stroke="#24364b" stroke-width="0.55" stroke-linejoin="round" stroke-linecap="round" /><polygon points="209.564,148.919 210.584,147.748 211.081,148.326 210.061,149.497" fill="#102c49" stroke="#24364b" stroke-width="0.55" stroke-linejoin="round" stroke-linecap="round" /><polygon points="199.766,157.020 201.064,156.204 201.561,156.782 200.263,157.598" fill="#133455" stroke="#24364b" stroke-width="0.55" stroke-linejoin="round" stroke-linecap="round" /><polygon points="94.943,209.782 105.906,203.366 105.906,110.969 94.943,117.385" fill="#738cab" stroke="#24364b" stroke-width="0.55" stroke-linejoin="round" stroke-linecap="round" /><polygon points="210.584,147.748 211.367,146.716 211.864,147.294 211.081,148.326" fill="#102c48" stroke="#24364b" stroke-width="0.55" stroke-linejoin="round" stroke-linecap="round" /><polygon points="198.646,157.619 199.766,157.020 200.263,157.598 199.143,158.197" fill="#133558" stroke="#24364b" stroke-width="0.55" stroke-linejoin="round" stroke-linecap="round" /><polygon points="216.385,139.721 216.792,138.567 218.085,140.070 217.677,141.224" fill="#085f73" stroke="#24364b" stroke-width="0.55" stroke-linejoin="round" stroke-linecap="round" /><polygon points="189.783,161.716 190.943,161.526 192.235,163.029 191.076,163.219" fill="#0a7890" stroke="#24364b" stroke-width="0.55" stroke-linejoin="round" stroke-linecap="round" /><polygon points="205.201,116.239 205.034,115.275 220.939,133.775 221.107,134.739" fill="#1d2e42" stroke="#24364b" stroke-width="0.55" stroke-linejoin="round" stroke-linecap="round" /><polygon points="172.017,139.557 170.151,142.017 168.924,144.051 168.384,145.579 168.552,146.543 169.420,146.907 170.956,146.656 173.101,145.799 175.772,144.371 178.866,142.425 182.265,140.037 185.838,137.297 189.448,134.313 192.956,131.197 196.226,128.071 199.135,125.053 201.569,122.261 203.435,119.801 204.661,117.768 205.201,116.239 205.034,115.275 204.165,114.911 202.629,115.163 200.485,116.019 197.814,117.447 194.719,119.393 191.320,121.782 187.747,124.521 184.138,127.505 180.630,130.621 177.359,133.747 174.451,136.765" fill="#1b2c3f" stroke="#24364b" stroke-width="0.55" stroke-linejoin="round" stroke-linecap="round" /><polygon points="168.552,146.543 169.420,146.907 185.326,165.407 184.457,165.043" fill="#243a54" stroke="#24364b" stroke-width="0.55" stroke-linejoin="round" stroke-linecap="round" /><polygon points="147.210,163.766 174.940,129.895 227.370,99.208 199.640,133.079" fill="#e8eff8" stroke="#24364b" stroke-width="0.55" stroke-linejoin="round" stroke-linecap="round" /><polygon points="211.367,146.716 211.881,145.864 212.378,146.442 211.864,147.294" fill="#102c49" stroke="#24364b" stroke-width="0.55" stroke-linejoin="round" stroke-linecap="round" /><polygon points="197.747,157.978 198.646,157.619 199.143,158.197 198.244,158.556" fill="#14375a" stroke="#24364b" stroke-width="0.55" stroke-linejoin="round" stroke-linecap="round" /><polygon points="105.906,203.366 132.794,212.940 132.794,120.543 105.906,110.969" fill="#69819d" stroke="#24364b" stroke-width="0.55" stroke-linejoin="round" stroke-linecap="round" /><polygon points="170.543,277.567 188.274,275.102 188.274,253.037 170.543,255.502" fill="#838d9a" stroke="#24364b" stroke-width="0.55" stroke-linejoin="round" stroke-linecap="round" /><polygon points="115.909,275.137 133.651,277.584 133.651,255.520 115.909,253.072" fill="#8e99a7" stroke="#24364b" stroke-width="0.55" stroke-linejoin="round" stroke-linecap="round" /><polygon points="211.881,145.864 212.108,145.223 212.605,145.801 212.378,146.442" fill="#102c49" stroke="#24364b" stroke-width="0.55" stroke-linejoin="round" stroke-linecap="round" /><polygon points="197.103,158.083 197.747,157.978 198.244,158.556 197.600,158.661" fill="#15385c" stroke="#24364b" stroke-width="0.55" stroke-linejoin="round" stroke-linecap="round" /><polygon points="216.792,138.567 216.666,137.839 217.958,139.342 218.085,140.070" fill="#086175" stroke="#24364b" stroke-width="0.55" stroke-linejoin="round" stroke-linecap="round" /><polygon points="189.128,161.441 189.783,161.716 191.076,163.219 190.420,162.945" fill="#0a7b94" stroke="#24364b" stroke-width="0.55" stroke-linejoin="round" stroke-linecap="round" /><polygon points="212.108,145.223 212.038,144.818 212.535,145.397 212.605,145.801" fill="#112d4a" stroke="#24364b" stroke-width="0.55" stroke-linejoin="round" stroke-linecap="round" /><polygon points="196.739,157.931 197.103,158.083 197.600,158.661 197.236,158.509" fill="#15395e" stroke="#24364b" stroke-width="0.55" stroke-linejoin="round" stroke-linecap="round" /><polygon points="205.034,115.275 204.165,114.911 220.071,133.411 220.939,133.775" fill="#1d2f44" stroke="#24364b" stroke-width="0.55" stroke-linejoin="round" stroke-linecap="round" /><polygon points="187.922,158.057 186.056,160.517 184.830,162.550 184.290,164.079 184.457,165.043 185.326,165.407 186.862,165.156 189.006,164.299 191.677,162.871 194.772,160.925 198.171,158.537 201.744,155.797 205.353,152.813 208.861,149.697 212.132,146.571 215.040,143.553 217.474,140.761 219.340,138.301 220.567,136.268 221.107,134.739 220.939,133.775 220.071,133.411 218.535,133.663 216.390,134.519 213.719,135.947 210.625,137.893 207.226,140.282 203.653,143.021 200.043,146.005 196.535,149.121 193.265,152.247 190.356,155.265" fill="#28405c" stroke="#24364b" stroke-width="0.55" stroke-linejoin="round" stroke-linecap="round" /><polygon points="191.744,156.168 190.335,158.025 189.409,159.560 189.002,160.713 189.128,161.441 189.783,161.716 190.943,161.526 192.562,160.880 194.578,159.802 196.914,158.333 199.479,156.530 202.176,154.462 204.901,152.210 207.549,149.858 210.018,147.498 212.213,145.220 214.050,143.112 215.459,141.255 216.385,139.721 216.792,138.567 216.666,137.839 216.010,137.565 214.851,137.754 213.232,138.401 211.216,139.479 208.880,140.948 206.315,142.751 203.618,144.818 200.893,147.071 198.245,149.423 195.776,151.783 193.581,154.060" fill="#085d70" stroke="#24364b" stroke-width="0.55" stroke-linejoin="round" stroke-linecap="round" /><polygon points="168.384,145.579 168.552,146.543 184.457,165.043 184.290,164.079" fill="#253b55" stroke="#24364b" stroke-width="0.55" stroke-linejoin="round" stroke-linecap="round" /><polygon points="193.036,157.671 191.627,159.528 190.701,161.063 190.294,162.217 190.420,162.945 191.076,163.219 192.235,163.029 193.854,162.383 195.870,161.305 198.206,159.836 200.772,158.033 203.469,155.966 206.193,153.713 208.841,151.361 211.310,149.001 213.505,146.723 215.343,144.615 216.751,142.758 217.677,141.224 218.085,140.070 217.958,139.342 217.303,139.068 216.143,139.257 214.524,139.904 212.508,140.982 210.173,142.451 207.607,144.254 204.910,146.321 202.185,148.574 199.537,150.926 197.069,153.286 194.873,155.564" fill="#0c87a3" stroke="#24364b" stroke-width="0.55" stroke-linejoin="round" stroke-linecap="round" /><polygon points="198.192,155.001 197.409,156.033 196.895,156.886 196.668,157.526 196.739,157.931 197.103,158.083 197.747,157.978 198.646,157.619 199.766,157.020 201.064,156.204 202.489,155.202 203.988,154.054 205.502,152.802 206.972,151.496 208.344,150.184 209.564,148.919 210.584,147.748 211.367,146.716 211.881,145.864 212.108,145.223 212.038,144.818 211.673,144.666 211.029,144.771 210.130,145.130 209.010,145.729 207.712,146.545 206.287,147.547 204.788,148.696 203.275,149.947 201.804,151.254 200.432,152.565 199.213,153.830" fill="#102b47" stroke="#24364b" stroke-width="0.55" stroke-linejoin="round" stroke-linecap="round" /><polygon points="152.099,278.405 170.543,277.567 170.543,255.502 152.099,256.340" fill="#86909e" stroke="#24364b" stroke-width="0.55" stroke-linejoin="round" stroke-linecap="round" /><polygon points="133.651,277.584 152.099,278.405 152.099,256.340 133.651,255.520" fill="#8a94a2" stroke="#24364b" stroke-width="0.55" stroke-linejoin="round" stroke-linecap="round" /><polygon points="198.689,155.579 197.906,156.611 197.392,157.464 197.165,158.105 197.236,158.509 197.600,158.661 198.244,158.556 199.143,158.197 200.263,157.598 201.561,156.782 202.986,155.780 204.485,154.632 205.999,153.380 207.470,152.074 208.841,150.763 210.061,149.497 211.081,148.326 211.864,147.294 212.378,146.442 212.605,145.801 212.535,145.397 212.170,145.244 211.526,145.349 210.627,145.709 209.507,146.308 208.209,147.124 206.784,148.125 205.285,149.274 203.772,150.525 202.301,151.832 200.929,153.143 199.710,154.408" fill="#173f68" stroke="#24364b" stroke-width="0.55" stroke-linejoin="round" stroke-linecap="round" /><polygon points="212.038,144.818 211.673,144.666 212.170,145.244 212.535,145.397" fill="#112e4c" stroke="#24364b" stroke-width="0.55" stroke-linejoin="round" stroke-linecap="round" /><polygon points="196.668,157.526 196.739,157.931 197.236,158.509 197.165,158.105" fill="#153a60" stroke="#24364b" stroke-width="0.55" stroke-linejoin="round" stroke-linecap="round" /><polygon points="85.362,76.699 106.693,50.644 109.178,53.535 87.847,79.590" fill="#5e768f" stroke="#24364b" stroke-width="0.55" stroke-linejoin="round" stroke-linecap="round" /><polygon points="216.666,137.839 216.010,137.565 217.303,139.068 217.958,139.342" fill="#086377" stroke="#24364b" stroke-width="0.55" stroke-linejoin="round" stroke-linecap="round" /><polygon points="189.002,160.713 189.128,161.441 190.420,162.945 190.294,162.217" fill="#0b7d96" stroke="#24364b" stroke-width="0.55" stroke-linejoin="round" stroke-linecap="round" /><polygon points="211.673,144.666 211.029,144.771 211.526,145.349 212.170,145.244" fill="#112f4e" stroke="#24364b" stroke-width="0.55" stroke-linejoin="round" stroke-linecap="round" /><polygon points="196.895,156.886 196.668,157.526 197.165,158.105 197.392,157.464" fill="#163b61" stroke="#24364b" stroke-width="0.55" stroke-linejoin="round" stroke-linecap="round" /><polygon points="204.165,114.911 202.629,115.163 218.535,133.663 220.071,133.411" fill="#1e3045" stroke="#24364b" stroke-width="0.55" stroke-linejoin="round" stroke-linecap="round" /><polygon points="168.924,144.051 168.384,145.579 184.290,164.079 184.830,162.550" fill="#253c56" stroke="#24364b" stroke-width="0.55" stroke-linejoin="round" stroke-linecap="round" /><polygon points="211.029,144.771 210.130,145.130 210.627,145.709 211.526,145.349" fill="#123150" stroke="#24364b" stroke-width="0.55" stroke-linejoin="round" stroke-linecap="round" /><polygon points="216.010,137.565 214.851,137.754 216.143,139.257 217.303,139.068" fill="#09667a" stroke="#24364b" stroke-width="0.55" stroke-linejoin="round" stroke-linecap="round" /><polygon points="197.409,156.033 196.895,156.886 197.392,157.464 197.906,156.611" fill="#163b62" stroke="#24364b" stroke-width="0.55" stroke-linejoin="round" stroke-linecap="round" /><polygon points="189.409,159.560 189.002,160.713 190.294,162.217 190.701,161.063" fill="#0b7e98" stroke="#24364b" stroke-width="0.55" stroke-linejoin="round" stroke-linecap="round" /><polygon points="210.130,145.130 209.010,145.729 209.507,146.308 210.627,145.709" fill="#123253" stroke="#24364b" stroke-width="0.55" stroke-linejoin="round" stroke-linecap="round" /><polygon points="198.192,155.001 197.409,156.033 197.906,156.611 198.689,155.579" fill="#163b62" stroke="#24364b" stroke-width="0.55" stroke-linejoin="round" stroke-linecap="round" /><polygon points="107.342,51.270 159.773,20.583 227.370,99.208 174.940,129.895" fill="#f8ffff" stroke="#24364b" stroke-width="0.55" stroke-linejoin="round" stroke-linecap="round" /><polygon points="209.010,145.729 207.712,146.545 208.209,147.124 209.507,146.308" fill="#133455" stroke="#24364b" stroke-width="0.55" stroke-linejoin="round" stroke-linecap="round" /><polygon points="199.213,153.830 198.192,155.001 198.689,155.579 199.710,154.408" fill="#163b62" stroke="#24364b" stroke-width="0.55" stroke-linejoin="round" stroke-linecap="round" /><polygon points="214.851,137.754 213.232,138.401 214.524,139.904 216.143,139.257" fill="#09697e" stroke="#24364b" stroke-width="0.55" stroke-linejoin="round" stroke-linecap="round" /><polygon points="94.943,209.782 94.943,117.385 121.832,126.959 121.832,219.356" fill="#7c98b9" stroke="#24364b" stroke-width="0.55" stroke-linejoin="round" stroke-linecap="round" /><polygon points="202.629,115.163 200.485,116.019 216.390,134.519 218.535,133.663" fill="#1f3147" stroke="#24364b" stroke-width="0.55" stroke-linejoin="round" stroke-linecap="round" /><polygon points="190.335,158.025 189.409,159.560 190.701,161.063 191.627,159.528" fill="#0b7f99" stroke="#24364b" stroke-width="0.55" stroke-linejoin="round" stroke-linecap="round" /><polygon points="170.151,142.017 168.924,144.051 184.830,162.550 186.056,160.517" fill="#263c57" stroke="#24364b" stroke-width="0.55" stroke-linejoin="round" stroke-linecap="round" /><polygon points="207.712,146.545 206.287,147.547 206.784,148.125 208.209,147.124" fill="#133558" stroke="#24364b" stroke-width="0.55" stroke-linejoin="round" stroke-linecap="round" /><polygon points="200.432,152.565 199.213,153.830 199.710,154.408 200.929,153.143" fill="#163b61" stroke="#24364b" stroke-width="0.55" stroke-linejoin="round" stroke-linecap="round" /><polygon points="206.287,147.547 204.788,148.696 205.285,149.274 206.784,148.125" fill="#14375a" stroke="#24364b" stroke-width="0.55" stroke-linejoin="round" stroke-linecap="round" /><polygon points="201.804,151.254 200.432,152.565 200.929,153.143 202.301,151.832" fill="#153a60" stroke="#24364b" stroke-width="0.55" stroke-linejoin="round" stroke-linecap="round" /><polygon points="204.788,148.696 203.275,149.947 203.772,150.525 205.285,149.274" fill="#15385c" stroke="#24364b" stroke-width="0.55" stroke-linejoin="round" stroke-linecap="round" /><polygon points="203.275,149.947 201.804,151.254 202.301,151.832 203.772,150.525" fill="#15395e" stroke="#24364b" stroke-width="0.55" stroke-linejoin="round" stroke-linecap="round" /><polygon points="213.232,138.401 211.216,139.479 212.508,140.982 214.524,139.904" fill="#096c81" stroke="#24364b" stroke-width="0.55" stroke-linejoin="round" stroke-linecap="round" /><polygon points="191.744,156.168 190.335,158.025 191.627,159.528 193.036,157.671" fill="#0b8099" stroke="#24364b" stroke-width="0.55" stroke-linejoin="round" stroke-linecap="round" /><polygon points="121.832,219.356 121.832,126.959 132.794,120.543 132.794,212.940" fill="#87a5c9" stroke="#24364b" stroke-width="0.55" stroke-linejoin="round" stroke-linecap="round" /><polygon points="200.485,116.019 197.814,117.447 213.719,135.947 216.390,134.519" fill="#203349" stroke="#24364b" stroke-width="0.55" stroke-linejoin="round" stroke-linecap="round" /><polygon points="172.017,139.557 170.151,142.017 186.056,160.517 187.922,158.057" fill="#263c57" stroke="#24364b" stroke-width="0.55" stroke-linejoin="round" stroke-linecap="round" /><polygon points="211.216,139.479 208.880,140.948 210.173,142.451 212.508,140.982" fill="#096f85" stroke="#24364b" stroke-width="0.55" stroke-linejoin="round" stroke-linecap="round" /><polygon points="193.581,154.060 191.744,156.168 193.036,157.671 194.873,155.564" fill="#0b7f99" stroke="#24364b" stroke-width="0.55" stroke-linejoin="round" stroke-linecap="round" /><polygon points="208.880,140.948 206.315,142.751 207.607,144.254 210.173,142.451" fill="#0a7289" stroke="#24364b" stroke-width="0.55" stroke-linejoin="round" stroke-linecap="round" /><polygon points="197.814,117.447 194.719,119.393 210.625,137.893 213.719,135.947" fill="#21344c" stroke="#24364b" stroke-width="0.55" stroke-linejoin="round" stroke-linecap="round" /><polygon points="195.776,151.783 193.581,154.060 194.873,155.564 197.069,153.286" fill="#0b7e98" stroke="#24364b" stroke-width="0.55" stroke-linejoin="round" stroke-linecap="round" /><polygon points="174.451,136.765 172.017,139.557 187.922,158.057 190.356,155.265" fill="#263c57" stroke="#24364b" stroke-width="0.55" stroke-linejoin="round" stroke-linecap="round" /><polygon points="79.612,85.142 107.342,51.270 174.940,129.895 147.210,163.766" fill="#d5dce4" stroke="#24364b" stroke-width="0.55" stroke-linejoin="round" stroke-linecap="round" /><polygon points="206.315,142.751 203.618,144.818 204.910,146.321 207.607,144.254" fill="#0a758d" stroke="#24364b" stroke-width="0.55" stroke-linejoin="round" stroke-linecap="round" /><polygon points="103.963,115.985 106.015,119.537 93.622,126.790 91.570,123.238" fill="#12a79a" stroke="#24364b" stroke-width="0.55" stroke-linejoin="round" stroke-linecap="round" /><polygon points="198.245,149.423 195.776,151.783 197.069,153.286 199.537,150.926" fill="#0b7d96" stroke="#24364b" stroke-width="0.55" stroke-linejoin="round" stroke-linecap="round" /><polygon points="106.015,119.537 108.515,122.742 96.123,129.996 93.622,126.790" fill="#12a597" stroke="#24364b" stroke-width="0.55" stroke-linejoin="round" stroke-linecap="round" /><polygon points="102.438,112.223 103.963,115.985 91.570,123.238 90.046,119.477" fill="#13aa9c" stroke="#24364b" stroke-width="0.55" stroke-linejoin="round" stroke-linecap="round" /><polygon points="203.618,144.818 200.893,147.071 202.185,148.574 204.910,146.321" fill="#0a7890" stroke="#24364b" stroke-width="0.55" stroke-linejoin="round" stroke-linecap="round" /><polygon points="200.893,147.071 198.245,149.423 199.537,150.926 202.185,148.574" fill="#0a7b94" stroke="#24364b" stroke-width="0.55" stroke-linejoin="round" stroke-linecap="round" /><polygon points="108.515,122.742 111.368,125.478 98.975,132.732 96.123,129.996" fill="#12a194" stroke="#24364b" stroke-width="0.55" stroke-linejoin="round" stroke-linecap="round" /><polygon points="101.499,108.396 102.438,112.223 90.046,119.477 89.107,115.650" fill="#13ab9d" stroke="#24364b" stroke-width="0.55" stroke-linejoin="round" stroke-linecap="round" /><polygon points="194.719,119.393 191.320,121.782 207.226,140.282 210.625,137.893" fill="#22364e" stroke="#24364b" stroke-width="0.55" stroke-linejoin="round" stroke-linecap="round" /><polygon points="177.359,133.747 174.451,136.765 190.356,155.265 193.265,152.247" fill="#253c56" stroke="#24364b" stroke-width="0.55" stroke-linejoin="round" stroke-linecap="round" /><polygon points="111.368,125.478 114.463,127.640 102.071,134.893 98.975,132.732" fill="#119d91" stroke="#24364b" stroke-width="0.55" stroke-linejoin="round" stroke-linecap="round" /><polygon points="101.182,104.652 101.499,108.396 89.107,115.650 88.790,111.905" fill="#13ab9d" stroke="#24364b" stroke-width="0.55" stroke-linejoin="round" stroke-linecap="round" /><polygon points="191.320,121.782 187.747,124.521 203.653,143.021 207.226,140.282" fill="#233750" stroke="#24364b" stroke-width="0.55" stroke-linejoin="round" stroke-linecap="round" /><polygon points="180.630,130.621 177.359,133.747 193.265,152.247 196.535,149.121" fill="#253b55" stroke="#24364b" stroke-width="0.55" stroke-linejoin="round" stroke-linecap="round" /><polygon points="187.747,124.521 184.138,127.505 200.043,146.005 203.653,143.021" fill="#233952" stroke="#24364b" stroke-width="0.55" stroke-linejoin="round" stroke-linecap="round" /><polygon points="184.138,127.505 180.630,130.621 196.535,149.121 200.043,146.005" fill="#243a54" stroke="#24364b" stroke-width="0.55" stroke-linejoin="round" stroke-linecap="round" /><polygon points="114.463,127.640 117.682,129.144 105.289,136.397 102.071,134.893" fill="#11998d" stroke="#24364b" stroke-width="0.55" stroke-linejoin="round" stroke-linecap="round" /><polygon points="101.499,101.132 101.182,104.652 88.790,111.905 89.107,108.386" fill="#13ab9d" stroke="#24364b" stroke-width="0.55" stroke-linejoin="round" stroke-linecap="round" /><polygon points="117.682,129.144 120.901,129.932 108.508,137.186 105.289,136.397" fill="#109589" stroke="#24364b" stroke-width="0.55" stroke-linejoin="round" stroke-linecap="round" /><polygon points="102.438,97.974 101.499,101.132 89.107,108.386 90.046,105.227" fill="#13aa9c" stroke="#24364b" stroke-width="0.55" stroke-linejoin="round" stroke-linecap="round" /><polygon points="101.182,104.652 101.499,108.396 102.438,112.223 103.963,115.985 106.015,119.537 108.515,122.742 111.368,125.478 114.463,127.640 117.682,129.144 120.901,129.932 123.996,129.975 126.849,129.270 129.349,127.845 131.401,125.755 132.926,123.079 133.865,119.921 134.182,116.401 133.865,112.656 132.926,108.830 131.401,105.068 129.349,101.516 126.849,98.311 123.996,95.575 120.901,93.413 117.682,91.909 114.463,91.121 111.368,91.078 108.515,91.783 106.015,93.208 103.963,95.298 102.438,97.974 101.499,101.132" fill="#0e7d72" stroke="#24364b" stroke-width="0.55" stroke-linejoin="round" stroke-linecap="round" /><polygon points="94.943,117.385 105.906,110.969 132.794,120.543 121.832,126.959" fill="#90b1d7" stroke="#24364b" stroke-width="0.55" stroke-linejoin="round" stroke-linecap="round" /><polygon points="120.901,129.932 123.996,129.975 111.604,137.228 108.508,137.186" fill="#109085" stroke="#24364b" stroke-width="0.55" stroke-linejoin="round" stroke-linecap="round" /><polygon points="103.963,95.298 102.438,97.974 90.046,105.227 91.570,102.552" fill="#12a79a" stroke="#24364b" stroke-width="0.55" stroke-linejoin="round" stroke-linecap="round" /><polygon points="123.996,129.975 126.849,129.270 114.456,136.523 111.604,137.228" fill="#0f8c81" stroke="#24364b" stroke-width="0.55" stroke-linejoin="round" stroke-linecap="round" /><polygon points="106.015,93.208 103.963,95.298 91.570,102.552 93.622,100.461" fill="#12a597" stroke="#24364b" stroke-width="0.55" stroke-linejoin="round" stroke-linecap="round" /><polygon points="120.591,115.152 120.462,116.586 120.079,117.872 119.458,118.962 118.622,119.814 117.604,120.395 116.441,120.682 115.180,120.664 113.869,120.343 112.558,119.730 111.296,118.850 110.134,117.735 109.116,116.429 108.280,114.982 107.659,113.450 107.276,111.890 107.147,110.365 107.276,108.931 107.659,107.644 108.280,106.554 109.116,105.703 110.134,105.122 111.296,104.835 112.558,104.852 113.869,105.173 115.180,105.786 116.441,106.667 117.604,107.781 118.622,109.087 119.458,110.534 120.079,112.067 120.462,113.626" fill="#3c4d5e" stroke="#24364b" stroke-width="0.55" stroke-linejoin="round" stroke-linecap="round" /><polygon points="126.849,129.270 129.349,127.845 116.956,135.098 114.456,136.523" fill="#0f887d" stroke="#24364b" stroke-width="0.55" stroke-linejoin="round" stroke-linecap="round" /><polygon points="108.515,91.783 106.015,93.208 93.622,100.461 96.123,99.036" fill="#12a194" stroke="#24364b" stroke-width="0.55" stroke-linejoin="round" stroke-linecap="round" /><polygon points="129.349,127.845 131.401,125.755 119.008,133.008 116.956,135.098" fill="#0f857a" stroke="#24364b" stroke-width="0.55" stroke-linejoin="round" stroke-linecap="round" /><polygon points="111.368,91.078 108.515,91.783 96.123,99.036 98.975,98.331" fill="#119d91" stroke="#24364b" stroke-width="0.55" stroke-linejoin="round" stroke-linecap="round" /><polygon points="131.401,125.755 132.926,123.079 120.533,130.332 119.008,133.008" fill="#0e8278" stroke="#24364b" stroke-width="0.55" stroke-linejoin="round" stroke-linecap="round" /><polygon points="114.463,91.121 111.368,91.078 98.975,98.331 102.071,98.374" fill="#11998d" stroke="#24364b" stroke-width="0.55" stroke-linejoin="round" stroke-linecap="round" /><polygon points="88.790,111.905 89.107,115.650 90.046,119.477 91.570,123.238 93.622,126.790 96.123,129.996 98.975,132.732 102.071,134.893 105.289,136.397 108.508,137.186 111.604,137.228 114.456,136.523 116.956,135.098 119.008,133.008 120.533,130.332 121.472,127.174 121.789,123.655 121.472,119.910 120.533,116.083 119.008,112.321 116.956,108.770 114.456,105.564 111.604,102.828 108.508,100.666 105.289,99.162 102.071,98.374 98.975,98.331 96.123,99.036 93.622,100.461 91.570,102.552 90.046,105.227 89.107,108.386" fill="#14b6a7" stroke="#24364b" stroke-width="0.55" stroke-linejoin="round" stroke-linecap="round" /><polygon points="132.926,123.079 133.865,119.921 121.472,127.174 120.533,130.332" fill="#0e8076" stroke="#24364b" stroke-width="0.55" stroke-linejoin="round" stroke-linecap="round" /><polygon points="117.682,91.909 114.463,91.121 102.071,98.374 105.289,99.162" fill="#109589" stroke="#24364b" stroke-width="0.55" stroke-linejoin="round" stroke-linecap="round" /><polygon points="133.865,119.921 134.182,116.401 121.789,123.655 121.472,127.174" fill="#0e7f74" stroke="#24364b" stroke-width="0.55" stroke-linejoin="round" stroke-linecap="round" /><polygon points="120.901,93.413 117.682,91.909 105.289,99.162 108.508,100.666" fill="#109085" stroke="#24364b" stroke-width="0.55" stroke-linejoin="round" stroke-linecap="round" /><polygon points="134.182,116.401 133.865,112.656 121.472,119.910 121.789,123.655" fill="#0e7e74" stroke="#24364b" stroke-width="0.55" stroke-linejoin="round" stroke-linecap="round" /><polygon points="123.996,95.575 120.901,93.413 108.508,100.666 111.604,102.828" fill="#0f8c81" stroke="#24364b" stroke-width="0.55" stroke-linejoin="round" stroke-linecap="round" /><polygon points="133.865,112.656 132.926,108.830 120.533,116.083 121.472,119.910" fill="#0e7f74" stroke="#24364b" stroke-width="0.55" stroke-linejoin="round" stroke-linecap="round" /><polygon points="126.849,98.311 123.996,95.575 111.604,102.828 114.456,105.564" fill="#0f887d" stroke="#24364b" stroke-width="0.55" stroke-linejoin="round" stroke-linecap="round" /><polygon points="132.926,108.830 131.401,105.068 119.008,112.321 120.533,116.083" fill="#0e8076" stroke="#24364b" stroke-width="0.55" stroke-linejoin="round" stroke-linecap="round" /><polygon points="129.349,101.516 126.849,98.311 114.456,105.564 116.956,108.770" fill="#0f857a" stroke="#24364b" stroke-width="0.55" stroke-linejoin="round" stroke-linecap="round" /><polygon points="131.401,105.068 129.349,101.516 116.956,108.770 119.008,112.321" fill="#0e8278" stroke="#24364b" stroke-width="0.55" stroke-linejoin="round" stroke-linecap="round" /><polyline points="205.680,152.878 251.408,206.065" fill="none" stroke="#009c91" stroke-width="2.5" stroke-linejoin="round" stroke-linecap="round" /><polygon points="251.408,206.065 248.574,196.633 242.508,201.848" fill="#009c91" stroke="#009c91" stroke-width="0.4" stroke-linejoin="round" stroke-linecap="round" /><text x="449" y="15" font-family="Arial, Helvetica, sans-serif" font-size="13" fill="#2563eb" text-anchor="middle" font-weight="600">PAN</text><polygon points="502.000,80.000 501.745,85.195 500.982,90.340 499.718,95.385 497.966,100.282 495.742,104.984 493.068,109.445 489.970,113.623 486.477,117.477 482.623,120.970 478.445,124.068 473.984,126.742 469.282,128.966 464.385,130.718 459.340,131.982 454.195,132.745 449.000,133.000 443.805,132.745 438.660,131.982 433.615,130.718 428.718,128.966 424.016,126.742 419.555,124.068 415.377,120.970 411.523,117.477 408.030,113.623 404.932,109.445 402.258,104.984 400.034,100.282 398.282,95.385 397.018,90.340 396.255,85.195 396.000,80.000 396.255,74.805 397.018,69.660 398.282,64.615 400.034,59.718 402.258,55.016 404.932,50.555 408.030,46.377 411.523,42.523 415.377,39.030 419.555,35.932 424.016,33.258 428.718,31.034 433.615,29.282 438.660,28.018 443.805,27.255 449.000,27.000 454.195,27.255 459.340,28.018 464.385,29.282 469.282,31.034 473.984,33.258 478.445,35.932 482.623,39.030 486.477,42.523 489.970,46.377 493.068,50.555 495.742,55.016 497.966,59.718 499.718,64.615 500.982,69.660 501.745,74.805" fill="#f5f8ff" stroke="#d5dfed" stroke-width="1" stroke-linejoin="round" stroke-linecap="round" /><polyline points="449.000,133.000 449.000,19.000" fill="none" stroke="#9cacc0" stroke-width="1" stroke-linejoin="round" stroke-linecap="round" stroke-dasharray="4 4" /><polyline points="396.000,80.000 502.000,80.000" fill="none" stroke="#d5dfed" stroke-width="1" stroke-linejoin="round" stroke-linecap="round" /><polyline points="449.000,80.000 452.467,33.489" fill="none" stroke="#2563eb" stroke-width="2.5" stroke-linejoin="round" stroke-linecap="round" /><polygon points="452.467,33.489 447.809,42.167 455.787,42.761" fill="#2563eb" stroke="#2563eb" stroke-width="0.4" stroke-linejoin="round" stroke-linecap="round" /><polyline points="449.000,39.720 449.075,39.720 449.150,39.720 449.225,39.721 449.300,39.721 449.375,39.722 449.450,39.723 449.524,39.723 449.599,39.724 449.674,39.726 449.749,39.727 449.824,39.728 449.899,39.730 449.974,39.732 450.049,39.734 450.124,39.736 450.199,39.738 450.274,39.740 450.348,39.743 450.423,39.745 450.498,39.748 450.573,39.751 450.648,39.754 450.723,39.757 450.798,39.760 450.872,39.764 450.947,39.767 451.022,39.771 451.097,39.775 451.172,39.779 451.247,39.783 451.321,39.787 451.396,39.791 451.471,39.796 451.546,39.801 451.621,39.805 451.695,39.810 451.770,39.815 451.845,39.821 451.920,39.826 451.994,39.831" fill="none" stroke="#2563eb" stroke-width="2" stroke-linejoin="round" stroke-linecap="round" /><polygon points="452.000,80.000 451.986,80.294 451.942,80.585 451.871,80.871 451.772,81.148 451.646,81.414 451.494,81.667 451.319,81.903 451.121,82.121 450.903,82.319 450.667,82.494 450.414,82.646 450.148,82.772 449.871,82.871 449.585,82.942 449.294,82.986 449.000,83.000 448.706,82.986 448.415,82.942 448.129,82.871 447.852,82.772 447.586,82.646 447.333,82.494 447.097,82.319 446.879,82.121 446.681,81.903 446.506,81.667 446.354,81.414 446.228,81.148 446.129,80.871 446.058,80.585 446.014,80.294 446.000,80.000 446.014,79.706 446.058,79.415 446.129,79.129 446.228,78.852 446.354,78.586 446.506,78.333 446.681,78.097 446.879,77.879 447.097,77.681 447.333,77.506 447.586,77.354 447.852,77.228 448.129,77.129 448.415,77.058 448.706,77.014 449.000,77.000 449.294,77.014 449.585,77.058 449.871,77.129 450.148,77.228 450.414,77.354 450.667,77.506 450.903,77.681 451.121,77.879 451.319,78.097 451.494,78.333 451.646,78.586 451.772,78.852 451.871,79.129 451.942,79.415 451.986,79.706" fill="#2563eb" stroke="#2563eb" stroke-width="1" stroke-linejoin="round" stroke-linecap="round" /><text x="449" y="151" font-family="Arial, Helvetica, sans-serif" font-size="21" fill="#2563eb" text-anchor="middle" font-weight="600">-4.26°</text><text x="449" y="175" font-family="Arial, Helvetica, sans-serif" font-size="13" fill="#009c91" text-anchor="middle" font-weight="600">TILT</text><polyline points="387.000,214.000 511.000,214.000" fill="none" stroke="#9cacc0" stroke-width="1" stroke-linejoin="round" stroke-linecap="round" stroke-dasharray="4 4" /><polyline points="449.000,186.000 449.000,244.000" fill="none" stroke="#d5dfed" stroke-width="1" stroke-linejoin="round" stroke-linecap="round" /><polyline points="449.000,214.000 491.295,244.252" fill="none" stroke="#009c91" stroke-width="2.5" stroke-linejoin="round" stroke-linecap="round" /><polygon points="491.295,244.252 486.301,235.762 481.647,242.269" fill="#009c91" stroke="#009c91" stroke-width="0.4" stroke-linejoin="round" stroke-linecap="round" /><polyline points="488.000,214.000 487.995,214.605 487.981,215.211 487.958,215.815 487.925,216.420 487.883,217.024 487.831,217.627 487.770,218.229 487.700,218.831 487.620,219.431 487.531,220.029 487.433,220.627 487.325,221.223 487.209,221.817 487.083,222.409 486.948,222.999 486.803,223.587 486.650,224.172 486.488,224.756 486.316,225.336 486.136,225.914 485.946,226.489 485.748,227.061 485.541,227.630 485.325,228.195 485.100,228.757 484.867,229.316 484.625,229.871 484.374,230.422 484.115,230.969 483.847,231.512 483.571,232.051 483.287,232.585 482.994,233.115 482.694,233.640 482.385,234.161 482.068,234.677 481.743,235.188 481.410,235.693 481.069,236.194 480.721,236.689" fill="none" stroke="#009c91" stroke-width="2" stroke-linejoin="round" stroke-linecap="round" /><polygon points="452.000,214.000 451.986,214.294 451.942,214.585 451.871,214.871 451.772,215.148 451.646,215.414 451.494,215.667 451.319,215.903 451.121,216.121 450.903,216.319 450.667,216.494 450.414,216.646 450.148,216.772 449.871,216.871 449.585,216.942 449.294,216.986 449.000,217.000 448.706,216.986 448.415,216.942 448.129,216.871 447.852,216.772 447.586,216.646 447.333,216.494 447.097,216.319 446.879,216.121 446.681,215.903 446.506,215.667 446.354,215.414 446.228,215.148 446.129,214.871 446.058,214.585 446.014,214.294 446.000,214.000 446.014,213.706 446.058,213.415 446.129,213.129 446.228,212.852 446.354,212.586 446.506,212.333 446.681,212.097 446.879,211.879 447.097,211.681 447.333,211.506 447.586,211.354 447.852,211.228 448.129,211.129 448.415,211.058 448.706,211.014 449.000,211.000 449.294,211.014 449.585,211.058 449.871,211.129 450.148,211.228 450.414,211.354 450.667,211.506 450.903,211.681 451.121,211.879 451.319,212.097 451.494,212.333 451.646,212.586 451.772,212.852 451.871,213.129 451.942,213.415 451.986,213.706" fill="#009c91" stroke="#009c91" stroke-width="1" stroke-linejoin="round" stroke-linecap="round" /><text x="449" y="271" font-family="Arial, Helvetica, sans-serif" font-size="21" fill="#009c91" text-anchor="middle" font-weight="600">+35.57°</text></svg>