<svg xmlns="http://www.w3.org/2000/svg" width="520" height="320" viewBox="0 0 520 320"><title>Parametric two-axis gimbal pose</title><rect width="520" height="320" fill="#ffffff" /><polyline points="10.135,233.094 216.484,295.894" fill="none" stroke="#e2e8f0" stroke-width="1" stroke-linejoin="round" stroke-linecap="round" /><polyline points="25.182,267.438 162.747,173.237" fill="none" stroke="#e2e8f0" stroke-width="1" stroke-linejoin="round" stroke-linecap="round" /><polyline points="48.826,206.600 255.174,269.400" fill="none" stroke="#e2e8f0" stroke-width="1" stroke-linejoin="round" stroke-linecap="round" /><polyline points="83.217,285.100 220.783,190.900" fill="none" stroke="#e2e8f0" stroke-width="1" stroke-linejoin="round" stroke-linecap="round" /><polyline points="87.516,180.106 293.865,242.906" fill="none" stroke="#e2e8f0" stroke-width="1" stroke-linejoin="round" stroke-linecap="round" /><polyline points="141.253,302.763 278.818,208.562" fill="none" stroke="#e2e8f0" stroke-width="1" stroke-linejoin="round" stroke-linecap="round" /><polygon points="170.349,192.899 151.901,192.079 151.901,170.014 170.349,170.834" fill="#9ba6b6" stroke="#24364b" stroke-width="0.55" stroke-linejoin="round" stroke-linecap="round" /><polygon points="151.901,192.079 133.457,192.917 133.457,170.852 151.901,170.014" fill="#9eabba" stroke="#24364b" stroke-width="0.55" stroke-linejoin="round" stroke-linecap="round" /><polygon points="188.091,195.347 170.349,192.899 170.349,170.834 188.091,173.282" fill="#97a2b1" stroke="#24364b" stroke-width="0.55" stroke-linejoin="round" stroke-linecap="round" /><polygon points="133.457,192.917 115.726,195.382 115.726,173.317 133.457,170.852" fill="#a2aebe" stroke="#24364b" stroke-width="0.55" stroke-linejoin="round" stroke-linecap="round" /><polygon points="204.447,199.328 188.091,195.347 188.091,173.282 204.447,177.263" fill="#929dac" stroke="#24364b" stroke-width="0.55" stroke-linejoin="round" stroke-linecap="round" /><polygon points="115.726,195.382 99.389,199.378 99.389,177.313 115.726,173.317" fill="#a5b1c2" stroke="#24364b" stroke-width="0.55" stroke-linejoin="round" stroke-linecap="round" /><polygon points="218.787,204.689 204.447,199.328 204.447,177.263 218.787,182.624" fill="#8e99a7" stroke="#24364b" stroke-width="0.55" stroke-linejoin="round" stroke-linecap="round" /><polygon points="99.389,199.378 85.073,204.753 85.073,182.688 99.389,177.313" fill="#a7b3c4" stroke="#24364b" stroke-width="0.55" stroke-linejoin="round" stroke-linecap="round" /><polygon points="230.560,211.224 218.787,204.689 218.787,182.624 230.560,189.159" fill="#8a94a2" stroke="#24364b" stroke-width="0.55" stroke-linejoin="round" stroke-linecap="round" /><polygon points="85.073,204.753 73.330,211.299 73.330,189.234 85.073,182.688" fill="#a8b5c6" stroke="#24364b" stroke-width="0.55" stroke-linejoin="round" stroke-linecap="round" /><polygon points="155.878,181.384 142.217,181.650 142.217,163.722 155.878,163.457" fill="#4281e3" stroke="#24364b" stroke-width="0.55" stroke-linejoin="round" stroke-linecap="round" /><polygon points="169.390,182.341 155.878,181.384 155.878,163.457 169.390,164.413" fill="#4180e1" stroke="#24364b" stroke-width="0.55" stroke-linejoin="round" stroke-linecap="round" /><polygon points="142.217,181.650 128.932,183.127 128.932,165.199 142.217,163.722" fill="#4282e5" stroke="#24364b" stroke-width="0.55" stroke-linejoin="round" stroke-linecap="round" /><polygon points="182.234,184.482 169.390,182.341 169.390,164.413 182.234,166.554" fill="#407edd" stroke="#24364b" stroke-width="0.55" stroke-linejoin="round" stroke-linecap="round" /><polygon points="128.932,183.127 116.533,185.759 116.533,167.831 128.932,165.199" fill="#4283e6" stroke="#24364b" stroke-width="0.55" stroke-linejoin="round" stroke-linecap="round" /><polygon points="193.915,187.726 182.234,184.482 182.234,166.554 193.915,169.798" fill="#3e7bd8" stroke="#24364b" stroke-width="0.55" stroke-linejoin="round" stroke-linecap="round" /><polygon points="116.533,185.759 105.498,189.444 105.498,171.517 116.533,167.831" fill="#4282e5" stroke="#24364b" stroke-width="0.55" stroke-linejoin="round" stroke-linecap="round" /><polygon points="239.315,218.682 230.560,211.224 230.560,189.159 239.315,196.617" fill="#86909e" stroke="#24364b" stroke-width="0.55" stroke-linejoin="round" stroke-linecap="round" /><polygon points="73.330,211.299 64.609,218.766 64.609,196.701 73.330,189.234" fill="#a8b5c6" stroke="#24364b" stroke-width="0.55" stroke-linejoin="round" stroke-linecap="round" /><polygon points="203.986,191.948 193.915,187.726 193.915,169.798 203.986,174.020" fill="#3d78d3" stroke="#24364b" stroke-width="0.55" stroke-linejoin="round" stroke-linecap="round" /><polygon points="105.498,189.444 96.249,194.042 96.249,176.114 105.498,171.517" fill="#4281e3" stroke="#24364b" stroke-width="0.55" stroke-linejoin="round" stroke-linecap="round" /><polygon points="212.060,196.986 203.986,191.948 203.986,174.020 212.060,179.058" fill="#3b75cd" stroke="#24364b" stroke-width="0.55" stroke-linejoin="round" stroke-linecap="round" /><polygon points="244.714,226.777 239.315,218.682 239.315,196.617 244.714,204.712" fill="#838d9a" stroke="#24364b" stroke-width="0.55" stroke-linejoin="round" stroke-linecap="round" /><polygon points="64.609,218.766 59.248,226.865 59.248,204.800 64.609,196.701" fill="#a8b5c6" stroke="#24364b" stroke-width="0.55" stroke-linejoin="round" stroke-linecap="round" /><polygon points="96.249,194.042 89.143,199.375 89.143,181.447 96.249,176.114" fill="#4180e1" stroke="#24364b" stroke-width="0.55" stroke-linejoin="round" stroke-linecap="round" /><polygon points="217.825,202.646 212.060,196.986 212.060,179.058 217.825,184.718" fill="#3a72c8" stroke="#24364b" stroke-width="0.55" stroke-linejoin="round" stroke-linecap="round" /><polygon points="70.946,194.359 208.447,172.361 208.447,155.812 70.946,177.810" fill="#8499b1" stroke="#24364b" stroke-width="0.55" stroke-linejoin="round" stroke-linecap="round" /><polygon points="89.143,199.375 84.453,205.238 84.453,187.310 89.143,181.447" fill="#407edd" stroke="#24364b" stroke-width="0.55" stroke-linejoin="round" stroke-linecap="round" /><polygon points="246.550,235.197 244.714,226.777 244.714,204.712 246.550,213.132" fill="#808a96" stroke="#24364b" stroke-width="0.55" stroke-linejoin="round" stroke-linecap="round" /><polygon points="59.248,226.865 57.450,235.287 57.450,213.222 59.248,204.800" fill="#a7b3c4" stroke="#24364b" stroke-width="0.55" stroke-linejoin="round" stroke-linecap="round" /><polygon points="73.330,211.299 64.609,218.766 59.248,226.865 57.450,235.287 59.286,243.707 64.685,251.801 73.440,259.260 85.213,265.795 99.553,271.156 115.909,275.137 133.651,277.584 152.099,278.405 170.543,277.567 188.274,275.102 204.611,271.106 218.927,265.731 230.670,259.185 239.391,251.718 244.752,243.618 246.550,235.197 244.714,226.777 239.315,218.682 230.560,211.224 218.787,204.689 204.447,199.328 188.091,195.347 170.349,192.899 151.901,192.079 133.457,192.917 115.726,195.382 99.389,199.378 85.073,204.753" fill="#7a8490" stroke="#24364b" stroke-width="0.55" stroke-linejoin="round" stroke-linecap="round" /><polygon points="208.447,172.361 233.054,204.414 233.054,187.865 208.447,155.812" fill="#798ca2" stroke="#24364b" stroke-width="0.55" stroke-linejoin="round" stroke-linecap="round" /><polygon points="221.060,208.711 217.825,202.646 217.825,184.718 221.060,190.783" fill="#386ec2" stroke="#24364b" stroke-width="0.55" stroke-linejoin="round" stroke-linecap="round" /><polygon points="196.461,173.683 207.739,188.374 224.561,185.682 213.283,170.991" fill="#617791" stroke="#24364b" stroke-width="0.55" stroke-linejoin="round" stroke-linecap="round" /><polygon points="84.453,205.238 82.358,211.407 82.358,193.479 84.453,187.310" fill="#3e7bd8" stroke="#24364b" stroke-width="0.55" stroke-linejoin="round" stroke-linecap="round" /><polygon points="73.330,189.234 64.609,196.701 59.248,204.800 57.450,213.222 59.286,221.642 64.685,229.736 73.440,237.195 85.213,243.730 99.553,249.091 115.909,253.072 133.651,255.520 152.099,256.340 170.543,255.502 188.274,253.037 204.611,249.041 218.927,243.666 230.670,237.120 239.391,229.653 244.752,221.553 246.550,213.132 244.714,204.712 239.315,196.617 230.560,189.159 218.787,182.624 204.447,177.263 188.091,173.282 170.349,170.834 151.901,170.014 133.457,170.852 115.726,173.317 99.389,177.313 85.073,182.688" fill="#b2c0d2" stroke="#24364b" stroke-width="0.55" stroke-linejoin="round" stroke-linecap="round" /><polygon points="128.932,183.127 116.533,185.759 105.498,189.444 96.249,194.042 89.143,199.375 84.453,205.238 82.358,211.407 82.940,217.643 86.175,223.708 91.940,229.368 100.014,234.406 110.085,238.628 121.766,241.872 134.610,244.013 148.122,244.969 161.783,244.704 175.068,243.227 187.467,240.595 198.502,236.909 207.751,232.312 214.857,226.979 219.547,221.116 221.642,214.947 221.060,208.711 217.825,202.646 212.060,196.986 203.986,191.948 193.915,187.726 182.234,184.482 169.390,182.341 155.878,181.384 142.217,181.650" fill="#305fa7" stroke="#24364b" stroke-width="0.55" stroke-linejoin="round" stroke-linecap="round" /><polygon points="221.642,214.947 221.060,208.711 221.060,190.783 221.642,197.019" fill="#366bbc" stroke="#24364b" stroke-width="0.55" stroke-linejoin="round" stroke-linecap="round" /><polygon points="244.752,243.618 246.550,235.197 246.550,213.132 244.752,221.553" fill="#7e8794" stroke="#24364b" stroke-width="0.55" stroke-linejoin="round" stroke-linecap="round" /><polygon points="57.450,235.287 59.286,243.707 59.286,221.642 57.450,213.222" fill="#a5b1c2" stroke="#24364b" stroke-width="0.55" stroke-linejoin="round" stroke-linecap="round" /><polygon points="196.461,173.683 213.283,170.991 213.283,78.594 196.461,81.285" fill="#738cab" stroke="#24364b" stroke-width="0.55" stroke-linejoin="round" stroke-linecap="round" /><polygon points="70.946,194.359 95.553,226.412 233.054,204.414 208.447,172.361" fill="#708296" stroke="#24364b" stroke-width="0.55" stroke-linejoin="round" stroke-linecap="round" /><polygon points="82.358,211.407 82.940,217.643 82.940,199.715 82.358,193.479" fill="#3d78d3" stroke="#24364b" stroke-width="0.55" stroke-linejoin="round" stroke-linecap="round" /><polygon points="128.932,165.199 116.533,167.831 105.498,171.517 96.249,176.114 89.143,181.447 84.453,187.310 82.358,193.479 82.940,199.715 86.175,205.780 91.940,211.440 100.014,216.478 110.085,220.700 121.766,223.944 134.610,226.085 148.122,227.042 161.783,226.776 175.068,225.299 187.467,222.667 198.502,218.982 207.751,214.384 214.857,209.051 219.547,203.188 221.642,197.019 221.060,190.783 217.825,184.718 212.060,179.058 203.986,174.020 193.915,169.798 182.234,166.554 169.390,164.413 155.878,163.457 142.217,163.722" fill="#468bf4" stroke="#24364b" stroke-width="0.55" stroke-linejoin="round" stroke-linecap="round" /><polygon points="219.547,221.116 221.642,214.947 221.642,197.019 219.547,203.188" fill="#3568b7" stroke="#24364b" stroke-width="0.55" stroke-linejoin="round" stroke-linecap="round" /><polygon points="213.283,170.991 224.561,185.682 224.561,93.285 213.283,78.594" fill="#69819d" stroke="#24364b" stroke-width="0.55" stroke-linejoin="round" stroke-linecap="round" /><polygon points="70.946,177.810 208.447,155.812 233.054,187.865 95.553,209.863" fill="#a6c1df" stroke="#24364b" stroke-width="0.55" stroke-linejoin="round" stroke-linecap="round" /><polygon points="239.391,251.718 244.752,243.618 244.752,221.553 239.391,229.653" fill="#7d8692" stroke="#24364b" stroke-width="0.55" stroke-linejoin="round" stroke-linecap="round" /><polygon points="59.286,243.707 64.685,251.801 64.685,229.736 59.286,221.642" fill="#a2aebe" stroke="#24364b" stroke-width="0.55" stroke-linejoin="round" stroke-linecap="round" /><polygon points="82.940,217.643 86.175,223.708 86.175,205.780 82.940,199.715" fill="#3b75cd" stroke="#24364b" stroke-width="0.55" stroke-linejoin="round" stroke-linecap="round" /><polygon points="196.461,173.683 196.461,81.285 207.739,95.976 207.739,188.374" fill="#7c98b9" stroke="#24364b" stroke-width="0.55" stroke-linejoin="round" stroke-linecap="round" /><polygon points="198.906,84.863 198.266,80.811 217.282,77.769 217.922,81.821" fill="#0e8278" stroke="#24364b" stroke-width="0.55" stroke-linejoin="round" stroke-linecap="round" /><polygon points="199.766,88.806 198.906,84.863 217.922,81.821 218.783,85.763" fill="#0f857a" stroke="#24364b" stroke-width="0.55" stroke-linejoin="round" stroke-linecap="round" /><polygon points="198.266,80.811 197.872,76.806 216.889,73.764 217.282,77.769" fill="#0e8076" stroke="#24364b" stroke-width="0.55" stroke-linejoin="round" stroke-linecap="round" /><polygon points="200.815,92.487 199.766,88.806 218.783,85.763 219.831,89.445" fill="#0f887d" stroke="#24364b" stroke-width="0.55" stroke-linejoin="round" stroke-linecap="round" /><polygon points="197.872,76.806 197.739,73.001 216.756,69.958 216.889,73.764" fill="#0e7f74" stroke="#24364b" stroke-width="0.55" stroke-linejoin="round" stroke-linecap="round" /><polygon points="214.857,226.979 219.547,221.116 219.547,203.188 214.857,209.051" fill="#3365b2" stroke="#24364b" stroke-width="0.55" stroke-linejoin="round" stroke-linecap="round" /><polygon points="202.012,95.766 200.815,92.487 219.831,89.445 221.028,92.724" fill="#0f8c81" stroke="#24364b" stroke-width="0.55" stroke-linejoin="round" stroke-linecap="round" /><polygon points="197.739,73.001 197.872,69.542 216.889,66.500 216.756,69.958" fill="#0e7e74" stroke="#24364b" stroke-width="0.55" stroke-linejoin="round" stroke-linecap="round" /><polygon points="203.310,98.517 202.012,95.766 221.028,92.724 222.326,95.474" fill="#109085" stroke="#24364b" stroke-width="0.55" stroke-linejoin="round" stroke-linecap="round" /><polygon points="197.872,69.542 198.266,66.562 217.282,63.520 216.889,66.500" fill="#0e7f74" stroke="#24364b" stroke-width="0.55" stroke-linejoin="round" stroke-linecap="round" /><polygon points="79.439,192.404 90.717,207.095 107.539,204.404 96.261,189.713" fill="#617791" stroke="#24364b" stroke-width="0.55" stroke-linejoin="round" stroke-linecap="round" /><polygon points="86.175,223.708 91.940,229.368 91.940,211.440 86.175,205.780" fill="#3a72c8" stroke="#24364b" stroke-width="0.55" stroke-linejoin="round" stroke-linecap="round" /><polygon points="207.739,188.374 207.739,95.976 224.561,93.285 224.561,185.682" fill="#87a5c9" stroke="#24364b" stroke-width="0.55" stroke-linejoin="round" stroke-linecap="round" /><polygon points="204.660,100.633 203.310,98.517 222.326,95.474 223.676,97.591" fill="#109589" stroke="#24364b" stroke-width="0.55" stroke-linejoin="round" stroke-linecap="round" /><polygon points="198.266,66.562 198.906,64.177 217.922,61.134 217.282,63.520" fill="#0e8076" stroke="#24364b" stroke-width="0.55" stroke-linejoin="round" stroke-linecap="round" /><polygon points="70.946,194.359 70.946,177.810 95.553,209.863 95.553,226.412" fill="#8fa6bf" stroke="#24364b" stroke-width="0.55" stroke-linejoin="round" stroke-linecap="round" /><polygon points="101.493,49.345 102.281,53.090 169.569,42.325 168.780,38.580" fill="#495c70" stroke="#24364b" stroke-width="0.55" stroke-linejoin="round" stroke-linecap="round" /><polygon points="230.670,259.185 239.391,251.718 239.391,229.653 230.670,237.120" fill="#7c8692" stroke="#24364b" stroke-width="0.55" stroke-linejoin="round" stroke-linecap="round" /><polygon points="64.685,251.801 73.440,259.260 73.440,237.195 64.685,229.736" fill="#9eabba" stroke="#24364b" stroke-width="0.55" stroke-linejoin="round" stroke-linecap="round" /><polygon points="93.643,54.468 115.089,156.334 195.541,143.463 174.096,41.597" fill="#a7acb3" stroke="#24364b" stroke-width="0.55" stroke-linejoin="round" stroke-linecap="round" /><polygon points="206.010,102.034 204.660,100.633 223.676,97.591 225.026,98.992" fill="#11998d" stroke="#24364b" stroke-width="0.55" stroke-linejoin="round" stroke-linecap="round" /><polygon points="198.906,64.177 199.766,62.477 218.783,59.434 217.922,61.134" fill="#0e8278" stroke="#24364b" stroke-width="0.55" stroke-linejoin="round" stroke-linecap="round" /><polygon points="207.751,232.312 214.857,226.979 214.857,209.051 207.751,214.384" fill="#3263ae" stroke="#24364b" stroke-width="0.55" stroke-linejoin="round" stroke-linecap="round" /><polygon points="207.308,102.666 206.010,102.034 225.026,98.992 226.324,99.623" fill="#119d91" stroke="#24364b" stroke-width="0.55" stroke-linejoin="round" stroke-linecap="round" /><polygon points="199.766,62.477 200.815,61.527 219.831,58.485 218.783,59.434" fill="#0f857a" stroke="#24364b" stroke-width="0.55" stroke-linejoin="round" stroke-linecap="round" /><polygon points="79.439,192.404 96.261,189.713 96.261,97.316 79.439,100.007" fill="#738cab" stroke="#24364b" stroke-width="0.55" stroke-linejoin="round" stroke-linecap="round" /><polygon points="230.596,87.988 230.464,91.447 230.070,94.427 229.430,96.812 228.570,98.512 227.521,99.462 226.324,99.623 225.026,98.992 223.676,97.591 222.326,95.474 221.028,92.724 219.831,89.445 218.783,85.763 217.922,81.821 217.282,77.769 216.889,73.764 216.756,69.958 216.889,66.500 217.282,63.520 217.922,61.134 218.783,59.434 219.831,58.485 221.028,58.323 222.326,58.955 223.676,60.356 225.026,62.473 226.324,65.223 227.521,68.502 228.570,72.183 229.430,76.126 230.070,80.178 230.464,84.183" fill="#14b6a7" stroke="#24364b" stroke-width="0.55" stroke-linejoin="round" stroke-linecap="round" /><polygon points="91.940,229.368 100.014,234.406 100.014,216.478 91.940,211.440" fill="#386ec2" stroke="#24364b" stroke-width="0.55" stroke-linejoin="round" stroke-linecap="round" /><polygon points="196.461,81.285 213.283,78.594 224.561,93.285 207.739,95.976" fill="#90b1d7" stroke="#24364b" stroke-width="0.55" stroke-linejoin="round" stroke-linecap="round" /><polygon points="95.553,226.412 95.553,209.863 233.054,187.865 233.054,204.414" fill="#9bb4d0" stroke="#24364b" stroke-width="0.55" stroke-linejoin="round" stroke-linecap="round" /><polygon points="208.505,102.504 207.308,102.666 226.324,99.623 227.521,99.462" fill="#12a194" stroke="#24364b" stroke-width="0.55" stroke-linejoin="round" stroke-linecap="round" /><polygon points="200.815,61.527 202.012,61.366 221.028,58.323 219.831,58.485" fill="#0f887d" stroke="#24364b" stroke-width="0.55" stroke-linejoin="round" stroke-linecap="round" /><polygon points="168.780,38.580 169.569,42.325 181.693,32.666 180.905,28.921" fill="#506479" stroke="#24364b" stroke-width="0.55" stroke-linejoin="round" stroke-linecap="round" /><polygon points="213.330,84.752 213.276,86.161 213.116,87.375 212.855,88.347 212.505,89.040 212.077,89.427 211.590,89.493 211.061,89.235 210.511,88.664 209.961,87.802 209.432,86.682 208.945,85.346 208.517,83.846 208.167,82.240 207.906,80.589 207.746,78.957 207.692,77.407 207.746,75.998 207.906,74.784 208.167,73.812 208.517,73.119 208.945,72.733 209.432,72.667 209.961,72.924 210.511,73.495 211.061,74.357 211.590,75.478 212.077,76.813 212.505,78.313 212.855,79.919 213.116,81.570 213.276,83.202" fill="#57708a" stroke="#24364b" stroke-width="0.55" stroke-linejoin="round" stroke-linecap="round" /><polygon points="198.502,236.909 207.751,232.312 207.751,214.384 198.502,218.982" fill="#3262ac" stroke="#24364b" stroke-width="0.55" stroke-linejoin="round" stroke-linecap="round" /><polygon points="211.580,91.031 211.447,94.489 211.054,97.469 210.414,99.855 209.553,101.555 208.505,102.504 207.308,102.666 206.010,102.034 204.660,100.633 203.310,98.517 202.012,95.766 200.815,92.487 199.766,88.806 198.906,84.863 198.266,80.811 197.872,76.806 197.739,73.001 197.872,69.542 198.266,66.562 198.906,64.177 199.766,62.477 200.815,61.527 202.012,61.366 203.310,61.997 204.660,63.398 206.010,65.515 207.308,68.265 208.505,71.544 209.553,75.226 210.414,79.168 211.054,83.220 211.447,87.225" fill="#0e7d72" stroke="#24364b" stroke-width="0.55" stroke-linejoin="round" stroke-linecap="round" /><polygon points="209.553,101.555 208.505,102.504 227.521,99.462 228.570,98.512" fill="#12a597" stroke="#24364b" stroke-width="0.55" stroke-linejoin="round" stroke-linecap="round" /><polygon points="218.927,265.731 230.670,259.185 230.670,237.120 218.927,243.666" fill="#7d8692" stroke="#24364b" stroke-width="0.55" stroke-linejoin="round" stroke-linecap="round" /><polygon points="73.440,259.260 85.213,265.795 85.213,243.730 73.440,237.195" fill="#9ba6b6" stroke="#24364b" stroke-width="0.55" stroke-linejoin="round" stroke-linecap="round" /><polygon points="202.012,61.366 203.310,61.997 222.326,58.955 221.028,58.323" fill="#0f8c81" stroke="#24364b" stroke-width="0.55" stroke-linejoin="round" stroke-linecap="round" /><polygon points="161.317,147.058 165.927,146.094 170.973,170.062 166.363,171.026" fill="#203349" stroke="#24364b" stroke-width="0.55" stroke-linejoin="round" stroke-linecap="round" /><polygon points="100.014,234.406 110.085,238.628 110.085,220.700 100.014,216.478" fill="#366bbc" stroke="#24364b" stroke-width="0.55" stroke-linejoin="round" stroke-linecap="round" /><polygon points="165.927,146.094 170.426,145.005 175.472,168.974 170.973,170.062" fill="#1f3147" stroke="#24364b" stroke-width="0.55" stroke-linejoin="round" stroke-linecap="round" /><polygon points="156.774,147.862 161.317,147.058 166.363,171.026 161.820,171.830" fill="#21344c" stroke="#24364b" stroke-width="0.55" stroke-linejoin="round" stroke-linecap="round" /><polygon points="174.096,41.597 195.541,143.463 211.303,130.907 189.858,29.041" fill="#b5bac1" stroke="#24364b" stroke-width="0.55" stroke-linejoin="round" stroke-linecap="round" /><polygon points="210.414,99.855 209.553,101.555 228.570,98.512 229.430,96.812" fill="#12a79a" stroke="#24364b" stroke-width="0.55" stroke-linejoin="round" stroke-linecap="round" /><polygon points="203.310,61.997 204.660,63.398 223.676,60.356 222.326,58.955" fill="#109085" stroke="#24364b" stroke-width="0.55" stroke-linejoin="round" stroke-linecap="round" /><polygon points="170.426,145.005 174.641,143.835 179.687,167.803 175.472,168.974" fill="#1e3045" stroke="#24364b" stroke-width="0.55" stroke-linejoin="round" stroke-linecap="round" /><polygon points="152.471,148.473 156.774,147.862 161.820,171.830 157.517,172.442" fill="#22364e" stroke="#24364b" stroke-width="0.55" stroke-linejoin="round" stroke-linecap="round" /><polygon points="96.261,189.713 107.539,204.404 107.539,112.007 96.261,97.316" fill="#69819d" stroke="#24364b" stroke-width="0.55" stroke-linejoin="round" stroke-linecap="round" /><polygon points="174.641,143.835 178.410,142.628 183.456,166.596 179.687,167.803" fill="#1d2f44" stroke="#24364b" stroke-width="0.55" stroke-linejoin="round" stroke-linecap="round" /><polygon points="148.574,148.870 152.471,148.473 157.517,172.442 153.620,172.838" fill="#233750" stroke="#24364b" stroke-width="0.55" stroke-linejoin="round" stroke-linecap="round" /><polygon points="187.467,240.595 198.502,236.909 198.502,218.982 187.467,222.667" fill="#3161aa" stroke="#24364b" stroke-width="0.55" stroke-linejoin="round" stroke-linecap="round" /><polygon points="211.054,97.469 210.414,99.855 229.430,96.812 230.070,94.427" fill="#13aa9c" stroke="#24364b" stroke-width="0.55" stroke-linejoin="round" stroke-linecap="round" /><polygon points="101.493,49.345 168.780,38.580 180.905,28.921 113.617,39.686" fill="#576d84" stroke="#24364b" stroke-width="0.55" stroke-linejoin="round" stroke-linecap="round" /><polygon points="204.660,63.398 206.010,65.515 225.026,62.473 223.676,60.356" fill="#109589" stroke="#24364b" stroke-width="0.55" stroke-linejoin="round" stroke-linecap="round" /><polygon points="91.145,100.961 90.884,99.311 207.906,80.589 208.167,82.240" fill="#3e5063" stroke="#24364b" stroke-width="0.55" stroke-linejoin="round" stroke-linecap="round" /><polygon points="91.495,102.567 91.145,100.961 208.167,82.240 208.517,83.846" fill="#405265" stroke="#24364b" stroke-width="0.55" stroke-linejoin="round" stroke-linecap="round" /><polygon points="90.884,99.311 90.724,97.679 207.746,78.957 207.906,80.589" fill="#3d4f61" stroke="#24364b" stroke-width="0.55" stroke-linejoin="round" stroke-linecap="round" /><polygon points="93.643,54.468 174.096,41.597 189.858,29.041 109.405,41.912" fill="#c5cbd3" stroke="#24364b" stroke-width="0.55" stroke-linejoin="round" stroke-linecap="round" /><polygon points="102.281,53.090 114.405,43.431 181.693,32.666 169.569,42.325" fill="#66809b" stroke="#24364b" stroke-width="0.55" stroke-linejoin="round" stroke-linecap="round" /><polygon points="91.923,104.067 91.495,102.567 208.517,83.846 208.945,85.346" fill="#415467" stroke="#24364b" stroke-width="0.55" stroke-linejoin="round" stroke-linecap="round" /><polygon points="90.724,97.679 90.670,96.128 207.692,77.407 207.746,78.957" fill="#3d4e60" stroke="#24364b" stroke-width="0.55" stroke-linejoin="round" stroke-linecap="round" /><polygon points="92.410,105.403 91.923,104.067 208.945,85.346 209.432,86.682" fill="#43576a" stroke="#24364b" stroke-width="0.55" stroke-linejoin="round" stroke-linecap="round" /><polygon points="90.670,96.128 90.724,94.719 207.746,75.998 207.692,77.407" fill="#3d4e60" stroke="#24364b" stroke-width="0.55" stroke-linejoin="round" stroke-linecap="round" /><polygon points="178.410,142.628 181.588,141.430 186.634,165.398 183.456,166.596" fill="#1d2e42" stroke="#24364b" stroke-width="0.55" stroke-linejoin="round" stroke-linecap="round" /><polygon points="145.233,149.036 148.574,148.870 153.620,172.838 150.279,173.004" fill="#233952" stroke="#24364b" stroke-width="0.55" stroke-linejoin="round" stroke-linecap="round" /><polygon points="79.439,192.404 79.439,100.007 90.717,114.698 90.717,207.095" fill="#7c98b9" stroke="#24364b" stroke-width="0.55" stroke-linejoin="round" stroke-linecap="round" /><polygon points="92.939,106.524 92.410,105.403 209.432,86.682 209.961,87.802" fill="#45596d" stroke="#24364b" stroke-width="0.55" stroke-linejoin="round" stroke-linecap="round" /><polygon points="90.724,94.719 90.884,93.505 207.906,74.784 207.746,75.998" fill="#3d4e60" stroke="#24364b" stroke-width="0.55" stroke-linejoin="round" stroke-linecap="round" /><polygon points="110.085,238.628 121.766,241.872 121.766,223.944 110.085,220.700" fill="#3568b7" stroke="#24364b" stroke-width="0.55" stroke-linejoin="round" stroke-linecap="round" /><polygon points="211.447,94.489 211.054,97.469 230.070,94.427 230.464,91.447" fill="#13ab9d" stroke="#24364b" stroke-width="0.55" stroke-linejoin="round" stroke-linecap="round" /><polygon points="166.848,170.300 170.328,169.572 170.738,171.519 167.258,172.247" fill="#096c81" stroke="#24364b" stroke-width="0.55" stroke-linejoin="round" stroke-linecap="round" /><polygon points="206.010,65.515 207.308,68.265 226.324,65.223 225.026,62.473" fill="#11998d" stroke="#24364b" stroke-width="0.55" stroke-linejoin="round" stroke-linecap="round" /><polygon points="170.328,169.572 173.724,168.750 174.134,170.698 170.738,171.519" fill="#09697e" stroke="#24364b" stroke-width="0.55" stroke-linejoin="round" stroke-linecap="round" /><polygon points="163.419,170.906 166.848,170.300 167.258,172.247 163.828,172.854" fill="#096f85" stroke="#24364b" stroke-width="0.55" stroke-linejoin="round" stroke-linecap="round" /><polygon points="93.489,107.386 92.939,106.524 209.961,87.802 210.511,88.664" fill="#475c71" stroke="#24364b" stroke-width="0.55" stroke-linejoin="round" stroke-linecap="round" /><polygon points="90.884,93.505 91.145,92.533 208.167,73.812 207.906,74.784" fill="#3d4f61" stroke="#24364b" stroke-width="0.55" stroke-linejoin="round" stroke-linecap="round" /><polygon points="204.611,271.106 218.927,265.731 218.927,243.666 204.611,249.041" fill="#7e8794" stroke="#24364b" stroke-width="0.55" stroke-linejoin="round" stroke-linecap="round" /><polygon points="173.724,168.750 176.905,167.867 177.315,169.814 174.134,170.698" fill="#09667a" stroke="#24364b" stroke-width="0.55" stroke-linejoin="round" stroke-linecap="round" /><polygon points="85.213,265.795 99.553,271.156 99.553,249.091 85.213,243.730" fill="#97a2b1" stroke="#24364b" stroke-width="0.55" stroke-linejoin="round" stroke-linecap="round" /><polygon points="160.170,171.368 163.419,170.906 163.828,172.854 160.580,173.315" fill="#0a7289" stroke="#24364b" stroke-width="0.55" stroke-linejoin="round" stroke-linecap="round" /><polygon points="94.039,107.957 93.489,107.386 210.511,88.664 211.061,89.235" fill="#495f74" stroke="#24364b" stroke-width="0.55" stroke-linejoin="round" stroke-linecap="round" /><polygon points="91.145,92.533 91.495,91.841 208.517,73.119 208.167,73.812" fill="#3e5063" stroke="#24364b" stroke-width="0.55" stroke-linejoin="round" stroke-linecap="round" /><polygon points="211.580,91.031 211.447,94.489 230.464,91.447 230.596,87.988" fill="#13ab9d" stroke="#24364b" stroke-width="0.55" stroke-linejoin="round" stroke-linecap="round" /><polygon points="181.588,141.430 184.053,140.287 189.099,164.256 186.634,165.398" fill="#1c2d41" stroke="#24364b" stroke-width="0.55" stroke-linejoin="round" stroke-linecap="round" /><polygon points="207.308,68.265 208.505,71.544 227.521,68.502 226.324,65.223" fill="#119d91" stroke="#24364b" stroke-width="0.55" stroke-linejoin="round" stroke-linecap="round" /><polygon points="142.576,148.965 145.233,149.036 150.279,173.004 147.622,172.933" fill="#243a54" stroke="#24364b" stroke-width="0.55" stroke-linejoin="round" stroke-linecap="round" /><polygon points="175.068,243.227 187.467,240.595 187.467,222.667 175.068,225.299" fill="#3160a9" stroke="#24364b" stroke-width="0.55" stroke-linejoin="round" stroke-linecap="round" /><polygon points="176.905,167.867 179.750,166.955 180.160,168.903 177.315,169.814" fill="#086377" stroke="#24364b" stroke-width="0.55" stroke-linejoin="round" stroke-linecap="round" /><polygon points="157.229,171.667 160.170,171.368 160.580,173.315 157.639,173.615" fill="#0a758d" stroke="#24364b" stroke-width="0.55" stroke-linejoin="round" stroke-linecap="round" /><polygon points="94.568,108.214 94.039,107.957 211.061,89.235 211.590,89.493" fill="#4c6177" stroke="#24364b" stroke-width="0.55" stroke-linejoin="round" stroke-linecap="round" /><polygon points="91.495,91.841 91.923,91.454 208.945,72.733 208.517,73.119" fill="#405265" stroke="#24364b" stroke-width="0.55" stroke-linejoin="round" stroke-linecap="round" /><polygon points="211.447,87.225 211.580,91.031 230.596,87.988 230.464,84.183" fill="#13ab9d" stroke="#24364b" stroke-width="0.55" stroke-linejoin="round" stroke-linecap="round" /><polygon points="208.505,71.544 209.553,75.226 228.570,72.183 227.521,68.502" fill="#12a194" stroke="#24364b" stroke-width="0.55" stroke-linejoin="round" stroke-linecap="round" /><polygon points="92.946,97.661 93.586,101.713 74.570,104.755 73.930,100.703" fill="#13aa9c" stroke="#24364b" stroke-width="0.55" stroke-linejoin="round" stroke-linecap="round" /><polygon points="121.766,241.872 134.610,244.013 134.610,226.085 121.766,223.944" fill="#3365b2" stroke="#24364b" stroke-width="0.55" stroke-linejoin="round" stroke-linecap="round" /><polygon points="93.586,101.713 94.447,105.655 75.430,108.697 74.570,104.755" fill="#12a79a" stroke="#24364b" stroke-width="0.55" stroke-linejoin="round" stroke-linecap="round" /><polygon points="179.750,166.955 182.149,166.051 182.559,167.999 180.160,168.903" fill="#086175" stroke="#24364b" stroke-width="0.55" stroke-linejoin="round" stroke-linecap="round" /><polygon points="92.553,93.655 92.946,97.661 73.930,100.703 73.536,96.698" fill="#13ab9d" stroke="#24364b" stroke-width="0.55" stroke-linejoin="round" stroke-linecap="round" /><polygon points="95.055,108.148 94.568,108.214 211.590,89.493 212.077,89.427" fill="#4d647a" stroke="#24364b" stroke-width="0.55" stroke-linejoin="round" stroke-linecap="round" /><polygon points="91.923,91.454 92.410,91.388 209.432,72.667 208.945,72.733" fill="#415467" stroke="#24364b" stroke-width="0.55" stroke-linejoin="round" stroke-linecap="round" /><polygon points="154.707,171.792 157.229,171.667 157.639,173.615 155.117,173.740" fill="#0a7890" stroke="#24364b" stroke-width="0.55" stroke-linejoin="round" stroke-linecap="round" /><polygon points="211.054,83.220 211.447,87.225 230.464,84.183 230.070,80.178" fill="#13aa9c" stroke="#24364b" stroke-width="0.55" stroke-linejoin="round" stroke-linecap="round" /><polygon points="209.553,75.226 210.414,79.168 229.430,76.126 228.570,72.183" fill="#12a597" stroke="#24364b" stroke-width="0.55" stroke-linejoin="round" stroke-linecap="round" /><polygon points="210.414,79.168 211.054,83.220 230.070,80.178 229.430,76.126" fill="#12a79a" stroke="#24364b" stroke-width="0.55" stroke-linejoin="round" stroke-linecap="round" /><polygon points="94.447,105.655 95.495,109.336 76.479,112.379 75.430,108.697" fill="#12a597" stroke="#24364b" stroke-width="0.55" stroke-linejoin="round" stroke-linecap="round" /><polygon points="92.420,89.850 92.553,93.655 73.536,96.698 73.404,92.892" fill="#13ab9d" stroke="#24364b" stroke-width="0.55" stroke-linejoin="round" stroke-linecap="round" /><polygon points="184.053,140.287 185.711,139.244 190.757,163.212 189.099,164.256" fill="#1c2d40" stroke="#24364b" stroke-width="0.55" stroke-linejoin="round" stroke-linecap="round" /><polygon points="95.483,107.762 95.055,108.148 212.077,89.427 212.505,89.040" fill="#4f667d" stroke="#24364b" stroke-width="0.55" stroke-linejoin="round" stroke-linecap="round" /><polygon points="140.706,148.660 142.576,148.965 147.622,172.933 145.752,172.628" fill="#253b55" stroke="#24364b" stroke-width="0.55" stroke-linejoin="round" stroke-linecap="round" /><polygon points="161.783,244.704 175.068,243.227 175.068,225.299 161.783,226.776" fill="#3161aa" stroke="#24364b" stroke-width="0.55" stroke-linejoin="round" stroke-linecap="round" /><polygon points="92.410,91.388 92.939,91.646 209.961,72.924 209.432,72.667" fill="#43576a" stroke="#24364b" stroke-width="0.55" stroke-linejoin="round" stroke-linecap="round" /><polygon points="101.493,49.345 113.617,39.686 114.405,43.431 102.281,53.090" fill="#5e768f" stroke="#24364b" stroke-width="0.55" stroke-linejoin="round" stroke-linecap="round" /><polygon points="182.149,166.051 184.010,165.189 184.420,167.136 182.559,167.999" fill="#085f73" stroke="#24364b" stroke-width="0.55" stroke-linejoin="round" stroke-linecap="round" /><polygon points="134.610,244.013 148.122,244.969 148.122,227.042 134.610,226.085" fill="#3263ae" stroke="#24364b" stroke-width="0.55" stroke-linejoin="round" stroke-linecap="round" /><polygon points="95.495,109.336 96.692,112.615 77.676,115.658 76.479,112.379" fill="#12a194" stroke="#24364b" stroke-width="0.55" stroke-linejoin="round" stroke-linecap="round" /><polygon points="152.702,171.739 154.707,171.792 155.117,173.740 153.112,173.686" fill="#0a7b94" stroke="#24364b" stroke-width="0.55" stroke-linejoin="round" stroke-linecap="round" /><polygon points="92.553,86.391 92.420,89.850 73.404,92.892 73.536,89.434" fill="#13ab9d" stroke="#24364b" stroke-width="0.55" stroke-linejoin="round" stroke-linecap="round" /><polygon points="167.898,171.142 169.832,170.738 169.989,171.487 168.056,171.891" fill="#123253" stroke="#24364b" stroke-width="0.55" stroke-linejoin="round" stroke-linecap="round" /><polygon points="95.833,107.069 95.483,107.762 212.505,89.040 212.855,88.347" fill="#50687f" stroke="#24364b" stroke-width="0.55" stroke-linejoin="round" stroke-linecap="round" /><polygon points="169.832,170.738 171.718,170.281 171.876,171.030 169.989,171.487" fill="#123150" stroke="#24364b" stroke-width="0.55" stroke-linejoin="round" stroke-linecap="round" /><polygon points="92.939,91.646 93.489,92.216 210.511,73.495 209.961,72.924" fill="#45596d" stroke="#24364b" stroke-width="0.55" stroke-linejoin="round" stroke-linecap="round" /><polygon points="165.993,171.479 167.898,171.142 168.056,171.891 166.151,172.228" fill="#133455" stroke="#24364b" stroke-width="0.55" stroke-linejoin="round" stroke-linecap="round" /><polygon points="148.122,244.969 161.783,244.704 161.783,226.776 148.122,227.042" fill="#3262ac" stroke="#24364b" stroke-width="0.55" stroke-linejoin="round" stroke-linecap="round" /><polygon points="171.718,170.281 173.486,169.791 173.643,170.540 171.876,171.030" fill="#112f4e" stroke="#24364b" stroke-width="0.55" stroke-linejoin="round" stroke-linecap="round" /><polygon points="164.189,171.736 165.993,171.479 166.151,172.228 164.346,172.485" fill="#133558" stroke="#24364b" stroke-width="0.55" stroke-linejoin="round" stroke-linecap="round" /><polygon points="96.094,106.097 95.833,107.069 212.855,88.347 213.116,87.375" fill="#516980" stroke="#24364b" stroke-width="0.55" stroke-linejoin="round" stroke-linecap="round" /><polygon points="93.489,92.216 94.039,93.079 211.061,74.357 210.511,73.495" fill="#475c71" stroke="#24364b" stroke-width="0.55" stroke-linejoin="round" stroke-linecap="round" /><polygon points="173.486,169.791 175.066,169.284 175.224,170.033 173.643,170.540" fill="#112e4c" stroke="#24364b" stroke-width="0.55" stroke-linejoin="round" stroke-linecap="round" /><polygon points="162.554,171.902 164.189,171.736 164.346,172.485 162.712,172.651" fill="#14375a" stroke="#24364b" stroke-width="0.55" stroke-linejoin="round" stroke-linecap="round" /><polygon points="188.274,275.102 204.611,271.106 204.611,249.041 188.274,253.037" fill="#808a96" stroke="#24364b" stroke-width="0.55" stroke-linejoin="round" stroke-linecap="round" /><polygon points="96.692,112.615 97.990,115.366 78.974,118.408 77.676,115.658" fill="#119d91" stroke="#24364b" stroke-width="0.55" stroke-linejoin="round" stroke-linecap="round" /><polygon points="99.553,271.156 115.909,275.137 115.909,253.072 99.553,249.091" fill="#929dac" stroke="#24364b" stroke-width="0.55" stroke-linejoin="round" stroke-linecap="round" /><polygon points="92.946,83.412 92.553,86.391 73.536,89.434 73.930,86.454" fill="#13aa9c" stroke="#24364b" stroke-width="0.55" stroke-linejoin="round" stroke-linecap="round" /><polygon points="184.010,165.189 185.261,164.401 185.671,166.349 184.420,167.136" fill="#085e72" stroke="#24364b" stroke-width="0.55" stroke-linejoin="round" stroke-linecap="round" /><polygon points="185.711,139.244 186.497,138.340 191.543,162.309 190.757,163.212" fill="#1c2d40" stroke="#24364b" stroke-width="0.55" stroke-linejoin="round" stroke-linecap="round" /><polygon points="90.717,207.095 90.717,114.698 107.539,112.007 107.539,204.404" fill="#87a5c9" stroke="#24364b" stroke-width="0.55" stroke-linejoin="round" stroke-linecap="round" /><polygon points="96.254,104.883 96.094,106.097 213.116,87.375 213.276,86.161" fill="#526a81" stroke="#24364b" stroke-width="0.55" stroke-linejoin="round" stroke-linecap="round" /><polygon points="94.039,93.079 94.568,94.199 211.590,75.478 211.061,74.357" fill="#495f74" stroke="#24364b" stroke-width="0.55" stroke-linejoin="round" stroke-linecap="round" /><polygon points="175.066,169.284 176.399,168.782 176.557,169.531 175.224,170.033" fill="#112d4a" stroke="#24364b" stroke-width="0.55" stroke-linejoin="round" stroke-linecap="round" /><polygon points="151.290,171.509 152.702,171.739 153.112,173.686 151.700,173.456" fill="#0b7d96" stroke="#24364b" stroke-width="0.55" stroke-linejoin="round" stroke-linecap="round" /><polygon points="161.153,171.971 162.554,171.902 162.712,172.651 161.311,172.720" fill="#15385c" stroke="#24364b" stroke-width="0.55" stroke-linejoin="round" stroke-linecap="round" /><polygon points="139.694,148.132 140.706,148.660 145.752,172.628 144.740,172.101" fill="#253c56" stroke="#24364b" stroke-width="0.55" stroke-linejoin="round" stroke-linecap="round" /><polygon points="96.308,103.474 96.254,104.883 213.276,86.161 213.330,84.752" fill="#526a82" stroke="#24364b" stroke-width="0.55" stroke-linejoin="round" stroke-linecap="round" /><polygon points="94.568,94.199 95.055,95.535 212.077,76.813 211.590,75.478" fill="#4c6177" stroke="#24364b" stroke-width="0.55" stroke-linejoin="round" stroke-linecap="round" /><polygon points="176.399,168.782 177.433,168.303 177.591,169.052 176.557,169.531" fill="#102c49" stroke="#24364b" stroke-width="0.55" stroke-linejoin="round" stroke-linecap="round" /><polygon points="160.039,171.942 161.153,171.971 161.311,172.720 160.197,172.691" fill="#15395e" stroke="#24364b" stroke-width="0.55" stroke-linejoin="round" stroke-linecap="round" /><polygon points="96.254,101.924 96.308,103.474 213.330,84.752 213.276,83.202" fill="#526a81" stroke="#24364b" stroke-width="0.55" stroke-linejoin="round" stroke-linecap="round" /><polygon points="95.055,95.535 95.483,97.035 212.505,78.313 212.077,76.813" fill="#4d647a" stroke="#24364b" stroke-width="0.55" stroke-linejoin="round" stroke-linecap="round" /><polygon points="96.094,100.292 96.254,101.924 213.276,83.202 213.116,81.570" fill="#516980" stroke="#24364b" stroke-width="0.55" stroke-linejoin="round" stroke-linecap="round" /><polygon points="95.483,97.035 95.833,98.641 212.855,79.919 212.505,78.313" fill="#4f667d" stroke="#24364b" stroke-width="0.55" stroke-linejoin="round" stroke-linecap="round" /><polygon points="95.833,98.641 96.094,100.292 213.116,81.570 212.855,79.919" fill="#50687f" stroke="#24364b" stroke-width="0.55" stroke-linejoin="round" stroke-linecap="round" /><polygon points="97.990,115.366 99.340,117.482 80.324,120.525 78.974,118.408" fill="#11998d" stroke="#24364b" stroke-width="0.55" stroke-linejoin="round" stroke-linecap="round" /><polygon points="93.586,81.026 92.946,83.412 73.930,86.454 74.570,84.068" fill="#12a79a" stroke="#24364b" stroke-width="0.55" stroke-linejoin="round" stroke-linecap="round" /><polygon points="140.365,146.499 139.578,147.402 139.694,148.132 140.706,148.660 142.576,148.965 145.233,149.036 148.574,148.870 152.471,148.473 156.774,147.862 161.317,147.058 165.927,146.094 170.426,145.005 174.641,143.835 178.410,142.628 181.588,141.430 184.053,140.287 185.711,139.244 186.497,138.340 186.382,137.610 185.370,137.083 183.500,136.778 180.843,136.707 177.502,136.873 173.605,137.269 169.302,137.881 164.758,138.685 160.149,139.649 155.650,140.737 151.435,141.908 147.666,143.115 144.488,144.313 142.023,145.455" fill="#1b2c3f" stroke="#24364b" stroke-width="0.55" stroke-linejoin="round" stroke-linecap="round" /><polygon points="115.089,156.334 130.850,143.778 211.303,130.907 195.541,143.463" fill="#e8eff8" stroke="#24364b" stroke-width="0.55" stroke-linejoin="round" stroke-linecap="round" /><polygon points="185.261,164.401 185.855,163.719 186.265,165.666 185.671,166.349" fill="#085e71" stroke="#24364b" stroke-width="0.55" stroke-linejoin="round" stroke-linecap="round" /><polygon points="177.433,168.303 178.128,167.865 178.286,168.614 177.591,169.052" fill="#102c49" stroke="#24364b" stroke-width="0.55" stroke-linejoin="round" stroke-linecap="round" /><polygon points="159.255,171.814 160.039,171.942 160.197,172.691 159.413,172.563" fill="#153a60" stroke="#24364b" stroke-width="0.55" stroke-linejoin="round" stroke-linecap="round" /><polygon points="150.526,171.110 151.290,171.509 151.700,173.456 150.936,173.058" fill="#0b7e98" stroke="#24364b" stroke-width="0.55" stroke-linejoin="round" stroke-linecap="round" /><polygon points="186.497,138.340 186.382,137.610 191.428,161.579 191.543,162.309" fill="#1c2d40" stroke="#24364b" stroke-width="0.55" stroke-linejoin="round" stroke-linecap="round" /><polygon points="139.578,147.402 139.694,148.132 144.740,172.101 144.624,171.371" fill="#263c57" stroke="#24364b" stroke-width="0.55" stroke-linejoin="round" stroke-linecap="round" /><polygon points="178.128,167.865 178.458,167.486 178.616,168.235 178.286,168.614" fill="#102c48" stroke="#24364b" stroke-width="0.55" stroke-linejoin="round" stroke-linecap="round" /><polygon points="158.830,171.593 159.255,171.814 159.413,172.563 158.988,172.342" fill="#163b61" stroke="#24364b" stroke-width="0.55" stroke-linejoin="round" stroke-linecap="round" /><polygon points="170.543,277.567 188.274,275.102 188.274,253.037 170.543,255.502" fill="#838d9a" stroke="#24364b" stroke-width="0.55" stroke-linejoin="round" stroke-linecap="round" /><polygon points="115.909,275.137 133.651,277.584 133.651,255.520 115.909,253.072" fill="#8e99a7" stroke="#24364b" stroke-width="0.55" stroke-linejoin="round" stroke-linecap="round" /><polygon points="99.340,117.482 100.690,118.883 81.674,121.926 80.324,120.525" fill="#109589" stroke="#24364b" stroke-width="0.55" stroke-linejoin="round" stroke-linecap="round" /><polygon points="94.447,79.326 93.586,81.026 74.570,84.068 75.430,82.368" fill="#12a597" stroke="#24364b" stroke-width="0.55" stroke-linejoin="round" stroke-linecap="round" /><polygon points="145.411,170.467 144.624,171.371 144.740,172.101 145.752,172.628 147.622,172.933 150.279,173.004 153.620,172.838 157.517,172.442 161.820,171.830 166.363,171.026 170.973,170.062 175.472,168.974 179.687,167.803 183.456,166.596 186.634,165.398 189.099,164.256 190.757,163.212 191.543,162.309 191.428,161.579 190.416,161.051 188.546,160.746 185.889,160.675 182.548,160.841 178.651,161.238 174.348,161.849 169.804,162.653 165.195,163.617 160.696,164.706 156.481,165.876 152.712,167.083 149.534,168.281 147.069,169.424" fill="#28405c" stroke="#24364b" stroke-width="0.55" stroke-linejoin="round" stroke-linecap="round" /><polygon points="151.032,169.877 150.439,170.560 150.526,171.110 151.290,171.509 152.702,171.739 154.707,171.792 157.229,171.667 160.170,171.368 163.419,170.906 166.848,170.300 170.328,169.572 173.724,168.750 176.905,167.867 179.750,166.955 182.149,166.051 184.010,165.189 185.261,164.401 185.855,163.719 185.768,163.168 185.004,162.770 183.592,162.540 181.587,162.486 179.065,162.611 176.123,162.911 172.875,163.372 169.446,163.979 165.966,164.707 162.570,165.528 159.389,166.412 156.544,167.323 154.145,168.227 152.284,169.090" fill="#085d70" stroke="#24364b" stroke-width="0.55" stroke-linejoin="round" stroke-linecap="round" /><polygon points="185.855,163.719 185.768,163.168 186.178,165.116 186.265,165.666" fill="#085e72" stroke="#24364b" stroke-width="0.55" stroke-linejoin="round" stroke-linecap="round" /><polygon points="150.439,170.560 150.526,171.110 150.936,173.058 150.849,172.507" fill="#0b7f99" stroke="#24364b" stroke-width="0.55" stroke-linejoin="round" stroke-linecap="round" /><polygon points="151.442,171.825 150.849,172.507 150.936,173.058 151.700,173.456 153.112,173.686 155.117,173.740 157.639,173.615 160.580,173.315 163.828,172.854 167.258,172.247 170.738,171.519 174.134,170.698 177.315,169.814 180.160,168.903 182.559,167.999 184.420,167.136 185.671,166.349 186.265,165.666 186.178,165.116 185.414,164.717 184.002,164.487 181.997,164.434 179.475,164.559 176.533,164.858 173.285,165.320 169.856,165.926 166.376,166.654 162.980,167.476 159.799,168.359 156.954,169.271 154.555,170.175 152.694,171.037" fill="#0c87a3" stroke="#24364b" stroke-width="0.55" stroke-linejoin="round" stroke-linecap="round" /><polygon points="178.458,167.486 178.410,167.180 178.567,167.929 178.616,168.235" fill="#102c49" stroke="#24364b" stroke-width="0.55" stroke-linejoin="round" stroke-linecap="round" /><polygon points="159.112,170.907 158.782,171.287 158.830,171.593 159.255,171.814 160.039,171.942 161.153,171.971 162.554,171.902 164.189,171.736 165.993,171.479 167.898,171.142 169.832,170.738 171.718,170.281 173.486,169.791 175.066,169.284 176.399,168.782 177.433,168.303 178.128,167.865 178.458,167.486 178.410,167.180 177.985,166.959 177.201,166.831 176.087,166.801 174.685,166.871 173.051,167.037 171.247,167.294 169.341,167.631 167.408,168.035 165.522,168.491 163.754,168.982 162.174,169.489 160.841,169.991 159.807,170.470" fill="#102b47" stroke="#24364b" stroke-width="0.55" stroke-linejoin="round" stroke-linecap="round" /><polygon points="93.643,54.468 109.405,41.912 130.850,143.778 115.089,156.334" fill="#d5dce4" stroke="#24364b" stroke-width="0.55" stroke-linejoin="round" stroke-linecap="round" /><polygon points="159.270,171.657 158.940,172.036 158.988,172.342 159.413,172.563 160.197,172.691 161.311,172.720 162.712,172.651 164.346,172.485 166.151,172.228 168.056,171.891 169.989,171.487 171.876,171.030 173.643,170.540 175.224,170.033 176.557,169.531 177.591,169.052 178.286,168.614 178.616,168.235 178.567,167.929 178.143,167.708 177.358,167.580 176.244,167.550 174.843,167.620 173.209,167.786 171.405,168.043 169.499,168.380 167.566,168.784 165.679,169.240 163.912,169.731 162.331,170.238 160.999,170.740 159.965,171.219" fill="#173f68" stroke="#24364b" stroke-width="0.55" stroke-linejoin="round" stroke-linecap="round" /><polygon points="158.782,171.287 158.830,171.593 158.988,172.342 158.940,172.036" fill="#163b62" stroke="#24364b" stroke-width="0.55" stroke-linejoin="round" stroke-linecap="round" /><polygon points="113.617,39.686 180.905,28.921 181.693,32.666 114.405,43.431" fill="#6d89a6" stroke="#24364b" stroke-width="0.55" stroke-linejoin="round" stroke-linecap="round" /><polygon points="152.099,278.405 170.543,277.567 170.543,255.502 152.099,256.340" fill="#86909e" stroke="#24364b" stroke-width="0.55" stroke-linejoin="round" stroke-linecap="round" /><polygon points="133.651,277.584 152.099,278.405 152.099,256.340 133.651,255.520" fill="#8a94a2" stroke="#24364b" stroke-width="0.55" stroke-linejoin="round" stroke-linecap="round" /><polygon points="178.410,167.180 177.985,166.959 178.143,167.708 178.567,167.929" fill="#102c49" stroke="#24364b" stroke-width="0.55" stroke-linejoin="round" stroke-linecap="round" /><polygon points="186.382,137.610 185.370,137.083 190.416,161.051 191.428,161.579" fill="#1c2d41" stroke="#24364b" stroke-width="0.55" stroke-linejoin="round" stroke-linecap="round" /><polygon points="159.112,170.907 158.782,171.287 158.940,172.036 159.270,171.657" fill="#163b62" stroke="#24364b" stroke-width="0.55" stroke-linejoin="round" stroke-linecap="round" /><polygon points="79.439,100.007 96.261,97.316 107.539,112.007 90.717,114.698" fill="#90b1d7" stroke="#24364b" stroke-width="0.55" stroke-linejoin="round" stroke-linecap="round" /><polygon points="140.365,146.499 139.578,147.402 144.624,171.371 145.411,170.467" fill="#263c57" stroke="#24364b" stroke-width="0.55" stroke-linejoin="round" stroke-linecap="round" /><polygon points="100.690,118.883 101.988,119.515 82.972,122.557 81.674,121.926" fill="#109085" stroke="#24364b" stroke-width="0.55" stroke-linejoin="round" stroke-linecap="round" /><polygon points="95.495,78.377 94.447,79.326 75.430,82.368 76.479,81.419" fill="#12a194" stroke="#24364b" stroke-width="0.55" stroke-linejoin="round" stroke-linecap="round" /><polygon points="185.768,163.168 185.004,162.770 185.414,164.717 186.178,165.116" fill="#085f73" stroke="#24364b" stroke-width="0.55" stroke-linejoin="round" stroke-linecap="round" /><polygon points="151.032,169.877 150.439,170.560 150.849,172.507 151.442,171.825" fill="#0b8099" stroke="#24364b" stroke-width="0.55" stroke-linejoin="round" stroke-linecap="round" /><polygon points="92.420,89.850 92.553,93.655 92.946,97.661 93.586,101.713 94.447,105.655 95.495,109.336 96.692,112.615 97.990,115.366 99.340,117.482 100.690,118.883 101.988,119.515 103.185,119.353 104.234,118.404 105.094,116.704 105.734,114.318 106.128,111.339 106.261,107.880 106.128,104.075 105.734,100.069 105.094,96.018 104.234,92.075 103.185,88.394 101.988,85.115 100.690,82.364 99.340,80.248 97.990,78.847 96.692,78.215 95.495,78.377 94.447,79.326 93.586,81.026 92.946,83.412 92.553,86.391" fill="#0e7d72" stroke="#24364b" stroke-width="0.55" stroke-linejoin="round" stroke-linecap="round" /><polygon points="177.985,166.959 177.201,166.831 177.358,167.580 178.143,167.708" fill="#112d4a" stroke="#24364b" stroke-width="0.55" stroke-linejoin="round" stroke-linecap="round" /><polygon points="159.807,170.470 159.112,170.907 159.270,171.657 159.965,171.219" fill="#163b62" stroke="#24364b" stroke-width="0.55" stroke-linejoin="round" stroke-linecap="round" /><polygon points="96.308,103.474 96.254,104.883 96.094,106.097 95.833,107.069 95.483,107.762 95.055,108.148 94.568,108.214 94.039,107.957 93.489,107.386 92.939,106.524 92.410,105.403 91.923,104.067 91.495,102.567 91.145,100.961 90.884,99.311 90.724,97.679 90.670,96.128 90.724,94.719 90.884,93.505 91.145,92.533 91.495,91.841 91.923,91.454 92.410,91.388 92.939,91.646 93.489,92.216 94.039,93.079 94.568,94.199 95.055,95.535 95.483,97.035 95.833,98.641 96.094,100.292 96.254,101.924" fill="#3c4d5e" stroke="#24364b" stroke-width="0.55" stroke-linejoin="round" stroke-linecap="round" /><polygon points="177.201,166.831 176.087,166.801 176.244,167.550 177.358,167.580" fill="#112e4c" stroke="#24364b" stroke-width="0.55" stroke-linejoin="round" stroke-linecap="round" /><polygon points="160.841,169.991 159.807,170.470 159.965,171.219 160.999,170.740" fill="#163b61" stroke="#24364b" stroke-width="0.55" stroke-linejoin="round" stroke-linecap="round" /><polygon points="101.988,119.515 103.185,119.353 84.169,122.396 82.972,122.557" fill="#0f8c81" stroke="#24364b" stroke-width="0.55" stroke-linejoin="round" stroke-linecap="round" /><polygon points="185.004,162.770 183.592,162.540 184.002,164.487 185.414,164.717" fill="#086175" stroke="#24364b" stroke-width="0.55" stroke-linejoin="round" stroke-linecap="round" /><polygon points="185.370,137.083 183.500,136.778 188.546,160.746 190.416,161.051" fill="#1d2e42" stroke="#24364b" stroke-width="0.55" stroke-linejoin="round" stroke-linecap="round" /><polygon points="96.692,78.215 95.495,78.377 76.479,81.419 77.676,81.257" fill="#119d91" stroke="#24364b" stroke-width="0.55" stroke-linejoin="round" stroke-linecap="round" /><polygon points="152.284,169.090 151.032,169.877 151.442,171.825 152.694,171.037" fill="#0b7f99" stroke="#24364b" stroke-width="0.55" stroke-linejoin="round" stroke-linecap="round" /><polygon points="142.023,145.455 140.365,146.499 145.411,170.467 147.069,169.424" fill="#263c57" stroke="#24364b" stroke-width="0.55" stroke-linejoin="round" stroke-linecap="round" /><polygon points="176.087,166.801 174.685,166.871 174.843,167.620 176.244,167.550" fill="#112f4e" stroke="#24364b" stroke-width="0.55" stroke-linejoin="round" stroke-linecap="round" /><polygon points="162.174,169.489 160.841,169.991 160.999,170.740 162.331,170.238" fill="#153a60" stroke="#24364b" stroke-width="0.55" stroke-linejoin="round" stroke-linecap="round" /><polygon points="174.685,166.871 173.051,167.037 173.209,167.786 174.843,167.620" fill="#123150" stroke="#24364b" stroke-width="0.55" stroke-linejoin="round" stroke-linecap="round" /><polygon points="163.754,168.982 162.174,169.489 162.331,170.238 163.912,169.731" fill="#15395e" stroke="#24364b" stroke-width="0.55" stroke-linejoin="round" stroke-linecap="round" /><polygon points="173.051,167.037 171.247,167.294 171.405,168.043 173.209,167.786" fill="#123253" stroke="#24364b" stroke-width="0.55" stroke-linejoin="round" stroke-linecap="round" /><polygon points="165.522,168.491 163.754,168.982 163.912,169.731 165.679,169.240" fill="#15385c" stroke="#24364b" stroke-width="0.55" stroke-linejoin="round" stroke-linecap="round" /><polygon points="73.404,92.892 73.536,96.698 73.930,100.703 74.570,104.755 75.430,108.697 76.479,112.379 77.676,115.658 78.974,118.408 80.324,120.525 81.674,121.926 82.972,122.557 84.169,122.396 85.217,121.446 86.078,119.746 86.718,117.361 87.111,114.381 87.244,110.922 87.111,107.117 86.718,103.112 86.078,99.060 85.217,95.117 84.169,91.436 82.972,88.157 81.674,85.407 80.324,83.290 78.974,81.889 77.676,81.257 76.479,81.419 75.430,82.368 74.570,84.068 73.930,86.454 73.536,89.434" fill="#14b6a7" stroke="#24364b" stroke-width="0.55" stroke-linejoin="round" stroke-linecap="round" /><polygon points="183.592,162.540 181.587,162.486 181.997,164.434 184.002,164.487" fill="#086377" stroke="#24364b" stroke-width="0.55" stroke-linejoin="round" stroke-linecap="round" /><polygon points="171.247,167.294 169.341,167.631 169.499,168.380 171.405,168.043" fill="#133455" stroke="#24364b" stroke-width="0.55" stroke-linejoin="round" stroke-linecap="round" /><polygon points="167.408,168.035 165.522,168.491 165.679,169.240 167.566,168.784" fill="#14375a" stroke="#24364b" stroke-width="0.55" stroke-linejoin="round" stroke-linecap="round" /><polygon points="154.145,168.227 152.284,169.090 152.694,171.037 154.555,170.175" fill="#0b7e98" stroke="#24364b" stroke-width="0.55" stroke-linejoin="round" stroke-linecap="round" /><polygon points="169.341,167.631 167.408,168.035 167.566,168.784 169.499,168.380" fill="#133558" stroke="#24364b" stroke-width="0.55" stroke-linejoin="round" stroke-linecap="round" /><polygon points="103.185,119.353 104.234,118.404 85.217,121.446 84.169,122.396" fill="#0f887d" stroke="#24364b" stroke-width="0.55" stroke-linejoin="round" stroke-linecap="round" /><polygon points="183.500,136.778 180.843,136.707 185.889,160.675 188.546,160.746" fill="#1d2f44" stroke="#24364b" stroke-width="0.55" stroke-linejoin="round" stroke-linecap="round" /><polygon points="97.990,78.847 96.692,78.215 77.676,81.257 78.974,81.889" fill="#11998d" stroke="#24364b" stroke-width="0.55" stroke-linejoin="round" stroke-linecap="round" /><polygon points="144.488,144.313 142.023,145.455 147.069,169.424 149.534,168.281" fill="#253c56" stroke="#24364b" stroke-width="0.55" stroke-linejoin="round" stroke-linecap="round" /><polygon points="181.587,162.486 179.065,162.611 179.475,164.559 181.997,164.434" fill="#09667a" stroke="#24364b" stroke-width="0.55" stroke-linejoin="round" stroke-linecap="round" /><polygon points="156.544,167.323 154.145,168.227 154.555,170.175 156.954,169.271" fill="#0b7d96" stroke="#24364b" stroke-width="0.55" stroke-linejoin="round" stroke-linecap="round" /><polygon points="104.234,118.404 105.094,116.704 86.078,119.746 85.217,121.446" fill="#0f857a" stroke="#24364b" stroke-width="0.55" stroke-linejoin="round" stroke-linecap="round" /><polygon points="180.843,136.707 177.502,136.873 182.548,160.841 185.889,160.675" fill="#1e3045" stroke="#24364b" stroke-width="0.55" stroke-linejoin="round" stroke-linecap="round" /><polygon points="99.340,80.248 97.990,78.847 78.974,81.889 80.324,83.290" fill="#109589" stroke="#24364b" stroke-width="0.55" stroke-linejoin="round" stroke-linecap="round" /><polygon points="147.666,143.115 144.488,144.313 149.534,168.281 152.712,167.083" fill="#253b55" stroke="#24364b" stroke-width="0.55" stroke-linejoin="round" stroke-linecap="round" /><polygon points="179.065,162.611 176.123,162.911 176.533,164.858 179.475,164.559" fill="#09697e" stroke="#24364b" stroke-width="0.55" stroke-linejoin="round" stroke-linecap="round" /><polygon points="159.389,166.412 156.544,167.323 156.954,169.271 159.799,168.359" fill="#0a7b94" stroke="#24364b" stroke-width="0.55" stroke-linejoin="round" stroke-linecap="round" /><polygon points="109.405,41.912 189.858,29.041 211.303,130.907 130.850,143.778" fill="#f8ffff" stroke="#24364b" stroke-width="0.55" stroke-linejoin="round" stroke-linecap="round" /><polygon points="176.123,162.911 172.875,163.372 173.285,165.320 176.533,164.858" fill="#096c81" stroke="#24364b" stroke-width="0.55" stroke-linejoin="round" stroke-linecap="round" /><polygon points="162.570,165.528 159.389,166.412 159.799,168.359 162.980,167.476" fill="#0a7890" stroke="#24364b" stroke-width="0.55" stroke-linejoin="round" stroke-linecap="round" /><polygon points="177.502,136.873 173.605,137.269 178.651,161.238 182.548,160.841" fill="#1f3147" stroke="#24364b" stroke-width="0.55" stroke-linejoin="round" stroke-linecap="round" /><polygon points="172.875,163.372 169.446,163.979 169.856,165.926 173.285,165.320" fill="#096f85" stroke="#24364b" stroke-width="0.55" stroke-linejoin="round" stroke-linecap="round" /><polygon points="165.966,164.707 162.570,165.528 162.980,167.476 166.376,166.654" fill="#0a758d" stroke="#24364b" stroke-width="0.55" stroke-linejoin="round" stroke-linecap="round" /><polygon points="151.435,141.908 147.666,143.115 152.712,167.083 156.481,165.876" fill="#243a54" stroke="#24364b" stroke-width="0.55" stroke-linejoin="round" stroke-linecap="round" /><polygon points="105.094,116.704 105.734,114.318 86.718,117.361 86.078,119.746" fill="#0e8278" stroke="#24364b" stroke-width="0.55" stroke-linejoin="round" stroke-linecap="round" /><polygon points="169.446,163.979 165.966,164.707 166.376,166.654 169.856,165.926" fill="#0a7289" stroke="#24364b" stroke-width="0.55" stroke-linejoin="round" stroke-linecap="round" /><polygon points="100.690,82.364 99.340,80.248 80.324,83.290 81.674,85.407" fill="#109085" stroke="#24364b" stroke-width="0.55" stroke-linejoin="round" stroke-linecap="round" /><polygon points="173.605,137.269 169.302,137.881 174.348,161.849 178.651,161.238" fill="#203349" stroke="#24364b" stroke-width="0.55" stroke-linejoin="round" stroke-linecap="round" /><polygon points="155.650,140.737 151.435,141.908 156.481,165.876 160.696,164.706" fill="#233952" stroke="#24364b" stroke-width="0.55" stroke-linejoin="round" stroke-linecap="round" /><polygon points="105.734,114.318 106.128,111.339 87.111,114.381 86.718,117.361" fill="#0e8076" stroke="#24364b" stroke-width="0.55" stroke-linejoin="round" stroke-linecap="round" /><polygon points="101.988,85.115 100.690,82.364 81.674,85.407 82.972,88.157" fill="#0f8c81" stroke="#24364b" stroke-width="0.55" stroke-linejoin="round" stroke-linecap="round" /><polygon points="169.302,137.881 164.758,138.685 169.804,162.653 174.348,161.849" fill="#21344c" stroke="#24364b" stroke-width="0.55" stroke-linejoin="round" stroke-linecap="round" /><polygon points="160.149,139.649 155.650,140.737 160.696,164.706 165.195,163.617" fill="#233750" stroke="#24364b" stroke-width="0.55" stroke-linejoin="round" stroke-linecap="round" /><polygon points="164.758,138.685 160.149,139.649 165.195,163.617 169.804,162.653" fill="#22364e" stroke="#24364b" stroke-width="0.55" stroke-linejoin="round" stroke-linecap="round" /><polygon points="106.128,111.339 106.261,107.880 87.244,110.922 87.111,114.381" fill="#0e7f74" stroke="#24364b" stroke-width="0.55" stroke-linejoin="round" stroke-linecap="round" /><polygon points="103.185,88.394 101.988,85.115 82.972,88.157 84.169,91.436" fill="#0f887d" stroke="#24364b" stroke-width="0.55" stroke-linejoin="round" stroke-linecap="round" /><polygon points="106.261,107.880 106.128,104.075 87.111,107.117 87.244,110.922" fill="#0e7e74" stroke="#24364b" stroke-width="0.55" stroke-linejoin="round" stroke-linecap="round" /><polygon points="104.234,92.075 103.185,88.394 84.169,91.436 85.217,95.117" fill="#0f857a" stroke="#24364b" stroke-width="0.55" stroke-linejoin="round" stroke-linecap="round" /><polygon points="106.128,104.075 105.734,100.069 86.718,103.112 87.111,107.117" fill="#0e7f74" stroke="#24364b" stroke-width="0.55" stroke-linejoin="round" stroke-linecap="round" /><polygon points="105.094,96.018 104.234,92.075 85.217,95.117 86.078,99.060" fill="#0e8278" stroke="#24364b" stroke-width="0.55" stroke-linejoin="round" stroke-linecap="round" /><polygon points="105.734,100.069 105.094,96.018 86.078,99.060 86.718,103.112" fill="#0e8076" stroke="#24364b" stroke-width="0.55" stroke-linejoin="round" stroke-linecap="round" /><polyline points="169.030,171.334 183.537,240.243" fill="none" stroke="#009c91" stroke-width="2.5" stroke-linejoin="round" stroke-linecap="round" /><polygon points="183.537,240.243 185.597,230.612 177.769,232.260" fill="#009c91" stroke="#009c91" stroke-width="0.4" stroke-linejoin="round" stroke-linecap="round" /><text x="449" y="15" font-family="Arial, Helvetica, sans-serif" font-size="13" fill="#2563eb" text-anchor="middle" font-weight="600">PAN</text><polygon points="502.000,80.000 501.745,85.195 500.982,90.340 499.718,95.385 497.966,100.282 495.742,104.984 493.068,109.445 489.970,113.623 486.477,117.477 482.623,120.970 478.445,124.068 473.984,126.742 469.282,128.966 464.385,130.718 459.340,131.982 454.195,132.745 449.000,133.000 443.805,132.745 438.660,131.982 433.615,130.718 428.718,128.966 424.016,126.742 419.555,124.068 415.377,120.970 411.523,117.477 408.030,113.623 404.932,109.445 402.258,104.984 400.034,100.282 398.282,95.385 397.018,90.340 396.255,85.195 396.000,80.000 396.255,74.805 397.018,69.660 398.282,64.615 400.034,59.718 402.258,55.016 404.932,50.555 408.030,46.377 411.523,42.523 415.377,39.030 419.555,35.932 424.016,33.258 428.718,31.034 433.615,29.282 438.660,28.018 443.805,27.255 449.000,27.000 454.195,27.255 459.340,28.018 464.385,29.282 469.282,31.034 473.984,33.258 478.445,35.932 482.623,39.030 486.477,42.523 489.970,46.377 493.068,50.555 495.742,55.016 497.966,59.718 499.718,64.615 500.982,69.660 501.745,74.805" fill="#f5f8ff" stroke="#d5dfed" stroke-width="1" stroke-linejoin="round" stroke-linecap="round" /><polyline points="449.000,133.000 449.000,19.000" fill="none" stroke="#9cacc0" stroke-width="1" stroke-linejoin="round" stroke-linecap="round" stroke-dasharray="4 4" /><polyline points="396.000,80.000 502.000,80.000" fill="none" stroke="#d5dfed" stroke-width="1" stroke-linejoin="round" stroke-linecap="round" /><polyline points="449.000,80.000 477.067,42.750" fill="none" stroke="#2563eb" stroke-width="2.5" stroke-linejoin="round" stroke-linecap="round" /><polygon points="477.067,42.750 468.456,47.531 474.845,52.345" fill="#2563eb" stroke="#2563eb" stroke-width="0.4" stroke-linejoin="round" stroke-linecap="round" /><polyline points="449.000,39.720 449.650,39.725 450.300,39.741 450.950,39.767 451.599,39.804 452.248,39.851 452.895,39.909 453.542,39.977 454.187,40.055 454.832,40.144 455.474,40.244 456.115,40.353 456.754,40.473 457.391,40.604 458.026,40.744 458.659,40.895 459.289,41.056 459.916,41.227 460.540,41.409 461.162,41.600 461.780,41.801 462.395,42.012 463.006,42.234 463.614,42.465 464.218,42.705 464.818,42.956 465.414,43.216 466.006,43.486 466.593,43.765 467.176,44.054 467.754,44.352 468.327,44.659 468.895,44.976 469.457,45.302 470.015,45.636 470.567,45.980 471.113,46.333 471.654,46.694 472.188,47.064 472.717,47.443 473.239,47.830" fill="none" stroke="#2563eb" stroke-width="2" stroke-linejoin="round" stroke-linecap="round" /><polygon points="452.000,80.000 451.986,80.294 451.942,80.585 451.871,80.871 451.772,81.148 451.646,81.414 451.494,81.667 451.319,81.903 451.121,82.121 450.903,82.319 450.667,82.494 450.414,82.646 450.148,82.772 449.871,82.871 449.585,82.942 449.294,82.986 449.000,83.000 448.706,82.986 448.415,82.942 448.129,82.871 447.852,82.772 447.586,82.646 447.333,82.494 447.097,82.319 446.879,82.121 446.681,81.903 446.506,81.667 446.354,81.414 446.228,81.148 446.129,80.871 446.058,80.585 446.014,80.294 446.000,80.000 446.014,79.706 446.058,79.415 446.129,79.129 446.228,78.852 446.354,78.586 446.506,78.333 446.681,78.097 446.879,77.879 447.097,77.681 447.333,77.506 447.586,77.354 447.852,77.228 448.129,77.129 448.415,77.058 448.706,77.014 449.000,77.000 449.294,77.014 449.585,77.058 449.871,77.129 450.148,77.228 450.414,77.354 450.667,77.506 450.903,77.681 451.121,77.879 451.319,78.097 451.494,78.333 451.646,78.586 451.772,78.852 451.871,79.129 451.942,79.415 451.986,79.706" fill="#2563eb" stroke="#2563eb" stroke-width="1" stroke-linejoin="round" stroke-linecap="round" /><text x="449" y="151" font-family="Arial, Helvetica, sans-serif" font-size="21" fill="#2563eb" text-anchor="middle" font-weight="600">-37.00°</text><text x="449" y="175" font-family="Arial, Helvetica, sans-serif" font-size="13" fill="#009c91" text-anchor="middle" font-weight="600">TILT</text><polyline points="387.000,214.000 511.000,214.000" fill="none" stroke="#9cacc0" stroke-width="1" stroke-linejoin="round" stroke-linecap="round" stroke-dasharray="4 4" /><polyline points="449.000,186.000 449.000,244.000" fill="none" stroke="#d5dfed" stroke-width="1" stroke-linejoin="round" stroke-linecap="round" /><polyline points="449.000,214.000 500.990,213.005" fill="none" stroke="#009c91" stroke-width="2.5" stroke-linejoin="round" stroke-linecap="round" /><polygon points="500.990,213.005 491.916,209.178 492.069,217.176" fill="#009c91" stroke="#009c91" stroke-width="0.4" stroke-linejoin="round" stroke-linecap="round" /><polyline points="488.000,214.000 488.000,213.981 488.000,213.963 488.000,213.944 488.000,213.925 488.000,213.907 488.000,213.888 488.000,213.869 488.000,213.851 488.000,213.832 488.000,213.813 487.999,213.795 487.999,213.776 487.999,213.757 487.999,213.739 487.999,213.720 487.999,213.701 487.999,213.683 487.999,213.664 487.998,213.645 487.998,213.627 487.998,213.608 487.998,213.589 487.998,213.571 487.997,213.552 487.997,213.533 487.997,213.515 487.997,213.496 487.996,213.477 487.996,213.459 487.996,213.440 487.996,213.421 487.995,213.403 487.995,213.384 487.995,213.365 487.995,213.347 487.994,213.328 487.994,213.309 487.994,213.291 487.993,213.272 487.993,213.253" fill="none" stroke="#009c91" stroke-width="2" stroke-linejoin="round" stroke-linecap="round" /><polygon points="452.000,214.000 451.986,214.294 451.942,214.585 451.871,214.871 451.772,215.148 451.646,215.414 451.494,215.667 451.319,215.903 451.121,216.121 450.903,216.319 450.667,216.494 450.414,216.646 450.148,216.772 449.871,216.871 449.585,216.942 449.294,216.986 449.000,217.000 448.706,216.986 448.415,216.942 448.129,216.871 447.852,216.772 447.586,216.646 447.333,216.494 447.097,216.319 446.879,216.121 446.681,215.903 446.506,215.667 446.354,215.414 446.228,215.148 446.129,214.871 446.058,214.585 446.014,214.294 446.000,214.000 446.014,213.706 446.058,213.415 446.129,213.129 446.228,212.852 446.354,212.586 446.506,212.333 446.681,212.097 446.879,211.879 447.097,211.681 447.333,211.506 447.586,211.354 447.852,211.228 448.129,211.129 448.415,211.058 448.706,211.014 449.000,211.000 449.294,211.014 449.585,211.058 449.871,211.129 450.148,211.228 450.414,211.354 450.667,211.506 450.903,211.681 451.121,211.879 451.319,212.097 451.494,212.333 451.646,212.586 451.772,212.852 451.871,213.129 451.942,213.415 451.986,213.706" fill="#009c91" stroke="#009c91" stroke-width="1" stroke-linejoin="round" stroke-linecap="round" /><text x="449" y="271" font-family="Arial, Helvetica, sans-serif" font-size="21" fill="#009c91" text-anchor="middle" font-weight="600">-1.10°</text></svg>